{
.appVersion = "1141";
classes = (
{
automatic = 1;

glyphs = (
{
glyphname = A;
lastChange = "2018-11-30 12:57:44 +0000";
layers = (
{
anchors = (
{
name = bottom;
position = "{232, 0}";
},
{
name = ogonek;
position = "{487, 0}";
},
{
name = top;
position = "{361, 587}";
}
);
background = {
anchors = (
{
name = bottom;
position = "{232.25, 0}";
},
{
name = ogonek;
position = "{487.321, 0}";
},
{
name = top;
position = "{361.214, 587}";
}
);
paths = (
{
closed = 1;
nodes = (
"119.714 0 LINE",
"127.857 32.429 LINE",
"70.786 45.036 LINE",
"159.036 200.536 LINE",
"177.964 230.536 LINE",
"358.679 544.321 LINE",
"335.536 521.107 LINE",
"384.143 231.929 LINE",
"389.143 202.786 LINE",
"415.607 45.036 LINE",
"353.464 32.429 LINE",
"348.393 0 LINE",
"520.143 0 LINE",
"528.286 32.429 LINE",
"481.75 45.036 LINE",
"388.179 605 LINE",
"336.643 576.036 LINE",
"17.929 45.036 LINE",
"-33.679 32.429 LINE",
"-38.75 0 LINE"
);
},
{
closed = 1;
nodes = (
"190.714 193.429 OFFCURVE",
"239.286 193.964 OFFCURVE",
"273.714 193.964 CURVE SMOOTH",
"310.071 193.964 OFFCURVE",
"360.643 193.429 OFFCURVE",
"417.321 191.964 CURVE",
"426.929 238 LINE",
"402.929 237 OFFCURVE",
"352.357 235.464 OFFCURVE",
"283.786 235.464 CURVE SMOOTH",
"215.679 235.464 OFFCURVE",
"163.25 237 OFFCURVE",
"138.25 238 CURVE",
"128.643 192.429 LINE"
);
}
);
};
color = -1;
layerId = "D9A1C40A-2361-406B-8D3E-8FA7FBCB82BD";
paths = (
{
closed = 1;
nodes = (
"121 0 LINE",
"128 32 LINE",
"71 45 LINE",
"159 201 LINE",
"178 231 LINE",
"358 544 LINE",
"336 521 LINE",
"384 232 LINE",
"389 203 LINE",
"416 45 LINE",
"353 32 LINE",
"348 0 LINE",
"521 0 LINE",
"528 32 LINE",
"482 45 LINE",
"388 605 LINE",
"337 576 LINE",
"18 45 LINE",
"-34 32 LINE",
"-39 0 LINE"
);
},
{
closed = 1;
nodes = (
"191 193 OFFCURVE",
"239 194 OFFCURVE",
"274 194 CURVE SMOOTH",
"310 194 OFFCURVE",
"361 193 OFFCURVE",
"417 192 CURVE",
"427 238 LINE",
"403 237 OFFCURVE",
"352 235 OFFCURVE",
"284 235 CURVE SMOOTH",
"216 235 OFFCURVE",
"163 237 OFFCURVE",
"138 238 CURVE",
"129 192 LINE"
);
}
);
width = 571;
},
{
anchors = (
{
name = bottom;
position = "{223, 0}";
},
{
name = ogonek;
position = "{539, 0}";
},
{
name = top;
position = "{378, 587}";
}
);
background = {
paths = (
{
closed = 1;
nodes = (
"169 0 LINE",
"184 57 LINE",
"122 76 LINE",
"196 203 LINE",
"210 233 LINE",
"318 420 LINE",
"287 442 LINE",
"341 228 LINE",
"346 191 LINE",
"371 76 LINE",
"301 57 LINE",
"292 0 LINE",
"593 0 LINE",
"608 57 LINE",
"559 76 LINE",
"433 605 LINE",
"322 550 LINE",
"20 76 LINE",
"-37 57 LINE",
"-46 0 LINE"
);
},
{
closed = 1;
nodes = (
"180 161 OFFCURVE",
"205 163 OFFCURVE",
"263 163 CURVE SMOOTH",
"320 163 OFFCURVE",
"346 161 OFFCURVE",
"356 161 CURVE",
"372 238 LINE",
"348 237 OFFCURVE",
"322 233 OFFCURVE",
"278 233 CURVE SMOOTH",
"232 233 OFFCURVE",
"212 237 OFFCURVE",
"187 238 CURVE",
"171 160 LINE"
);
}
);
};
color = -1;
layerId = "24976ABE-9171-461B-B338-52EF76BD92C7";
paths = (
{
closed = 1;
nodes = (
"168 0 LINE",
"183 57 LINE",
"121 76 LINE",
"197 203 LINE",
"209 233 LINE",
"315 420 LINE",
"286 442 LINE",
"340 228 LINE",
"345 191 LINE",
"370 76 LINE",
"300 57 LINE",
"291 0 LINE",
"592 0 LINE",
"607 57 LINE",
"558 76 LINE",
"432 605 LINE",
"321 550 LINE",
"19 76 LINE",
"-38 57 LINE",
"-47 0 LINE"
);
},
{
closed = 1;
nodes = (
"161 161 OFFCURVE",
"191 163 OFFCURVE",
"260 163 CURVE SMOOTH",
"329 163 OFFCURVE",
"360 161 OFFCURVE",
"372 161 CURVE",
"391 238 LINE",
"362 237 OFFCURVE",
"331 233 OFFCURVE",
"278 233 CURVE SMOOTH",
"223 233 OFFCURVE",
"199 237 OFFCURVE",
"169 238 CURVE",
"150 160 LINE"
);
}
);
width = 633;
},
{
anchors = (
{
name = bottom;
position = "{229.046, 0}";
},
{
name = ogonek;
position = "{497.128, 0}";
},
{
name = top;
position = "{363.532, 587}";
}
);
color = -1;
layerId = "8B4ACB86-485E-4983-BA11-7AC678D884D1";
paths = (
{
closed = 1;
nodes = (
"128.596 0 LINE",
"138.128 37.486 LINE",
"80.284 51.33 LINE",
"165.33 201.422 LINE",
"183.486 231.422 LINE",
"348.294 517.836 LINE",
"325.028 504.12 LINE",
"373.872 231.156 LINE",
"378.872 200.468 LINE",
"405.028 51.33 LINE",
"340.762 37.486 LINE",
"334.918 0 LINE",
"534.082 0 LINE",
"543.614 37.486 LINE",
"496.77 51.33 LINE",
"396.44 605 LINE",
"332.358 570.514 LINE",
"17.156 51.33 LINE",
"-36.11 37.486 LINE",
"-41.954 0 LINE"
);
},
{
closed = 1;
nodes = (
"187.624 186.248 OFFCURVE",
"230.56 187.67 OFFCURVE",
"270.624 187.67 CURVE SMOOTH",
"310.844 187.67 OFFCURVE",
"356.358 186.248 OFFCURVE",
"403.074 185.67 CURVE",
"413.918 238 LINE",
"389.918 237 OFFCURVE",
"344.404 234.578 OFFCURVE",
"281.468 234.578 CURVE SMOOTH",
"218.11 234.578 OFFCURVE",
"172.284 237 OFFCURVE",
"147.284 238 CURVE",
"136.596 185.248 LINE"
);
}
);
width = 581.55;
}
);
leftKerningGroup = A;
note = A;
rightKerningGroup = A;
unicode = 0041;
},
{
glyphname = Aogonek;
lastChange = "2018-11-30 12:57:44 +0000";
layers = (
{
anchors = (
{
name = top;
position = "{361, 587}";
}
);
background = {
anchors = (
{
name = top;
position = "{361.214, 587}";
}
);
paths = (
{
closed = 1;
nodes = (
"190.714 193.429 OFFCURVE",
"239.286 193.964 OFFCURVE",
"273.714 193.964 CURVE SMOOTH",
"310.071 193.964 OFFCURVE",
"360.643 193.429 OFFCURVE",
"417.321 191.964 CURVE",
"426.929 238 LINE",
"402.929 237 OFFCURVE",
"352.357 235.464 OFFCURVE",
"283.786 235.464 CURVE SMOOTH",
"215.679 235.464 OFFCURVE",
"163.25 237 OFFCURVE",
"138.25 238 CURVE",
"128.643 192.429 LINE"
);
},
{
closed = 1;
nodes = (
"528.286 32.429 LINE",
"481.75 45.036 LINE",
"388.179 605 LINE",
"336.643 576.036 LINE",
"17.929 45.036 LINE",
"-33.679 32.429 LINE",
"-38.75 0 LINE",
"119.714 0 LINE",
"127.857 32.429 LINE",
"70.786 45.036 LINE",
"159.036 200.536 LINE",
"177.964 230.536 LINE",
"358.679 544.321 LINE",
"335.536 521.107 LINE",
"384.143 231.929 LINE",
"389.143 202.786 LINE",
"415.607 45.036 LINE",
"353.464 32.429 LINE",
"348.393 0 LINE",
"492.393 0 LINE",
"500.429 22.714 LINE",
"375.357 -24.179 OFFCURVE",
"299.214 -83.714 OFFCURVE",
"299.214 -151.643 CURVE SMOOTH",
"299.214 -190.464 OFFCURVE",
"325.321 -223 OFFCURVE",
"390.321 -223 CURVE SMOOTH",
"427.071 -223 OFFCURVE",
"468.071 -205 OFFCURVE",
"500.071 -173 CURVE",
"485.464 -151.571 LINE",
"459 -174.571 OFFCURVE",
"434.464 -187.036 OFFCURVE",
"409.536 -187.036 CURVE SMOOTH",
"375.75 -187.036 OFFCURVE",
"358.679 -170.107 OFFCURVE",
"358.679 -141.107 CURVE SMOOTH",
"358.679 -85 OFFCURVE",
"411.071 -37.321 OFFCURVE",
"520.143 0 CURVE"
);
}
);
};
color = -1;
layerId = "D9A1C40A-2361-406B-8D3E-8FA7FBCB82BD";
paths = (
{
closed = 1;
nodes = (
"427 -223 OFFCURVE",
"468 -205 OFFCURVE",
"500 -173 CURVE",
"485 -152 LINE",
"459 -175 OFFCURVE",
"434 -187 OFFCURVE",
"410 -187 CURVE SMOOTH",
"376 -187 OFFCURVE",
"359 -170 OFFCURVE",
"359 -141 CURVE SMOOTH",
"359 -85 OFFCURVE",
"411 -37 OFFCURVE",
"521 0 CURVE",
"528 32 LINE",
"482 45 LINE",
"388 605 LINE",
"337 576 LINE",
"18 45 LINE",
"-34 32 LINE",
"-39 0 LINE",
"121 0 LINE",
"128 32 LINE",
"71 45 LINE",
"159 201 LINE",
"178 231 LINE",
"359 544 LINE",
"336 521 LINE",
"384 232 LINE",
"389 203 LINE",
"416 45 LINE",
"353 32 LINE",
"348 0 LINE",
"492 0 LINE",
"500 23 LINE",
"375 -24 OFFCURVE",
"299 -84 OFFCURVE",
"299 -152 CURVE SMOOTH",
"299 -190 OFFCURVE",
"325 -223 OFFCURVE",
"390 -223 CURVE SMOOTH"
);
},
{
closed = 1;
nodes = (
"191 193 OFFCURVE",
"239 194 OFFCURVE",
"274 194 CURVE SMOOTH",
"310 194 OFFCURVE",
"361 193 OFFCURVE",
"417 192 CURVE",
"427 238 LINE",
"403 237 OFFCURVE",
"352 235 OFFCURVE",
"284 235 CURVE SMOOTH",
"216 235 OFFCURVE",
"163 237 OFFCURVE",
"138 238 CURVE",
"129 192 LINE"
);
}
);
width = 571;
},
{
anchors = (
{
name = top;
position = "{378, 587}";
}
);
background = {
anchors = (
{
name = top;
position = "{374, 587}";
}
);
paths = (
{
closed = 1;
nodes = (
"169 0 LINE",
"184 57 LINE",
"122 76 LINE",
"198 203 LINE",
"210 233 LINE",
"316 420 LINE",
"287 442 LINE",
"341 228 LINE",
"346 191 LINE",
"371 76 LINE",
"301 57 LINE",
"292 0 LINE",
"593 0 LINE",
"608 57 LINE",
"559 76 LINE",
"433 605 LINE",
"322 550 LINE",
"20 76 LINE",
"-37 57 LINE",
"-46 0 LINE"
);
},
{
closed = 1;
nodes = (
"162 161 OFFCURVE",
"192 163 OFFCURVE",
"261 163 CURVE SMOOTH",
"330 163 OFFCURVE",
"361 161 OFFCURVE",
"373 161 CURVE",
"392 238 LINE",
"363 237 OFFCURVE",
"332 233 OFFCURVE",
"279 233 CURVE SMOOTH",
"224 233 OFFCURVE",
"200 237 OFFCURVE",
"170 238 CURVE",
"151 160 LINE"
);
}
);
};
color = -1;
layerId = "24976ABE-9171-461B-B338-52EF76BD92C7";
paths = (
{
closed = 1;
nodes = (
"493 -223 OFFCURVE",
"534 -205 OFFCURVE",
"566 -173 CURVE",
"545 -127 LINE",
"521 -150 OFFCURVE",
"494 -161 OFFCURVE",
"474 -161 CURVE SMOOTH",
"452 -161 OFFCURVE",
"431 -148 OFFCURVE",
"431 -119 CURVE SMOOTH",
"431 -85 OFFCURVE",
"477 -27 OFFCURVE",
"592 0 CURVE",
"607 57 LINE",
"558 76 LINE",
"432 605 LINE",
"321 550 LINE",
"19 76 LINE",
"-38 57 LINE",
"-47 0 LINE",
"168 0 LINE",
"183 57 LINE",
"121 76 LINE",
"197 203 LINE",
"209 233 LINE",
"315 420 LINE",
"286 442 LINE",
"340 228 LINE",
"345 191 LINE",
"370 76 LINE",
"300 57 LINE",
"291 0 LINE",
"491 0 LINE",
"473 6 LINE",
"401 -6 OFFCURVE",
"316 -67 OFFCURVE",
"316 -131 CURVE SMOOTH",
"316 -188 OFFCURVE",
"377 -223 OFFCURVE",
"442 -223 CURVE SMOOTH"
);
},
{
closed = 1;
nodes = (
"161 161 OFFCURVE",
"191 163 OFFCURVE",
"260 163 CURVE SMOOTH",
"329 163 OFFCURVE",
"360 161 OFFCURVE",
"372 161 CURVE",
"391 238 LINE",
"362 237 OFFCURVE",
"331 233 OFFCURVE",
"278 233 CURVE SMOOTH",
"223 233 OFFCURVE",
"199 237 OFFCURVE",
"169 238 CURVE",
"150 160 LINE"
);
}
);
width = 633;
},
{
anchors = (
{
name = top;
position = "{363.532, 587}";
}
);
color = -1;
layerId = "8B4ACB86-485E-4983-BA11-7AC678D884D1";
paths = (
{
closed = 1;
nodes = (
"440.082 -223 OFFCURVE",
"481.082 -205 OFFCURVE",
"513.082 -173 CURVE",
"496.816 -146.514 LINE",
"471.238 -169.514 OFFCURVE",
"445.816 -181.514 OFFCURVE",
"422.238 -181.514 CURVE SMOOTH",
"390.77 -181.514 OFFCURVE",
"372.926 -165.358 OFFCURVE",
"372.926 -136.358 CURVE SMOOTH",
"372.926 -85 OFFCURVE",
"424.082 -34.89 OFFCURVE",
"534.082 0 CURVE",
"543.614 37.486 LINE",
"496.77 51.33 LINE",
"396.44 605 LINE",
"332.358 570.514 LINE",
"17.156 51.33 LINE",
"-36.11 37.486 LINE",
"-41.954 0 LINE",
"128.596 0 LINE",
"138.128 37.486 LINE",
"80.284 51.33 LINE",
"165.33 201.422 LINE",
"183.486 231.422 LINE",
"348.872 517.836 LINE",
"325.028 504.12 LINE",
"373.872 231.156 LINE",
"378.872 200.468 LINE",
"405.028 51.33 LINE",
"340.762 37.486 LINE",
"334.918 0 LINE",
"490.734 0 LINE",
"493.248 19.624 LINE",
"379.642 -20.202 OFFCURVE",
"301.532 -80.624 OFFCURVE",
"301.532 -147.358 CURVE SMOOTH",
"301.532 -189.578 OFFCURVE",
"335.128 -223 OFFCURVE",
"400.128 -223 CURVE SMOOTH"
);
},
{
closed = 1;
nodes = (
"187.624 186.248 OFFCURVE",
"230.56 187.67 OFFCURVE",
"270.624 187.67 CURVE SMOOTH",
"310.844 187.67 OFFCURVE",
"356.358 186.248 OFFCURVE",
"403.074 185.67 CURVE",
"413.918 238 LINE",
"389.918 237 OFFCURVE",
"344.404 234.578 OFFCURVE",
"281.468 234.578 CURVE SMOOTH",
"218.11 234.578 OFFCURVE",
"172.284 237 OFFCURVE",
"147.284 238 CURVE",
"136.596 185.248 LINE"
);
}
);
width = 581.55;
}
);
leftKerningGroup = A;
leftMetricsKey = A;
widthMetricsKey = A;
note = Aogonek;
rightKerningGroup = A;
unicode = 0104;
},
{
glyphname = AE;
lastChange = "2018-11-30 12:57:44 +0000";
layers = (
{
anchors = (
{
name = bottom;
position = "{360, 0}";
},
{
name = top;
position = "{484, 587}";
}
);
background = {
anchors = (
{
name = bottom;
position = "{360, 0}";
},
{
name = top;
position = "{484, 587}";
}
);
paths = (
{
closed = 1;
nodes = (
"738 134 LINE",
"695 142 LINE",
"630 49 LINE",
"620 46 OFFCURVE",
"597 45 OFFCURVE",
"558 45 CURVE SMOOTH",
"454 45 LINE SMOOTH",
"415 45 OFFCURVE",
"411 44 OFFCURVE",
"400 46 CURVE",
"402 57 OFFCURVE",
"422 158 OFFCURVE",
"429 196 CURVE SMOOTH",
"469 384 LINE SMOOTH",
"479 431 OFFCURVE",
"503 535 OFFCURVE",
"506 541 CURVE",
"524 543 OFFCURVE",
"547 544 OFFCURVE",
"564 544 CURVE SMOOTH",
"687 544 LINE SMOOTH",
"701 544 OFFCURVE",
"715 543 OFFCURVE",
"720 542 CURVE",
"731 459 LINE",
"772 464 LINE",
"784 591 LINE",
"752 587 OFFCURVE",
"741 587 OFFCURVE",
"708 587 CURVE SMOOTH",
"377 587 LINE",
"369 555 LINE",
"454 542 LINE",
"450 575 LINE",
"7 45 LINE",
"-46 32 LINE",
"-51 0 LINE",
"119 0 LINE",
"127 32 LINE",
"69 45 LINE",
"477 551 LINE",
"441 528 LINE",
"358 145 LINE SMOOTH",
"345 78 OFFCURVE",
"338 57 OFFCURVE",
"336 45 CURVE",
"273 32 LINE",
"268 0 LINE",
"604 0 LINE SMOOTH",
"622 0 OFFCURVE",
"627 0 OFFCURVE",
"676 -5 CURVE"
);
},
{
closed = 1;
nodes = (
"200 191 OFFCURVE",
"238 190 OFFCURVE",
"291 190 CURVE SMOOTH",
"377 190 OFFCURVE",
"397 191 OFFCURVE",
"400 188 CURVE",
"409 236 LINE",
"394 234 OFFCURVE",
"356 233 OFFCURVE",
"301 233 CURVE SMOOTH",
"250 233 OFFCURVE",
"204 234 OFFCURVE",
"185 236 CURVE",
"167 189 LINE"
);
},
{
closed = 1;
nodes = (
"647 208 LINE",
"687 398 LINE",
"651 398 LINE",
"622 327 LINE",
"613 324 OFFCURVE",
"600 324 OFFCURVE",
"580 324 CURVE SMOOTH",
"504 324 LINE SMOOTH",
"489 324 OFFCURVE",
"473 324 OFFCURVE",
"446 325 CURVE",
"436 279 LINE",
"464 280 OFFCURVE",
"480 281 OFFCURVE",
"496 281 CURVE SMOOTH",
"573 281 LINE SMOOTH",
"593 281 OFFCURVE",
"606 280 OFFCURVE",
"613 277 CURVE",
"611 208 LINE"
);
}
);
};
color = -1;
layerId = "D9A1C40A-2361-406B-8D3E-8FA7FBCB82BD";
paths = (
{
closed = 1;
nodes = (
"738 134 LINE",
"695 142 LINE",
"630 49 LINE",
"620 46 OFFCURVE",
"597 45 OFFCURVE",
"558 45 CURVE SMOOTH",
"454 45 LINE SMOOTH",
"425 45 OFFCURVE",
"421 45 OFFCURVE",
"400 47 CURVE",
"402 58 OFFCURVE",
"421 159 OFFCURVE",
"429 197 CURVE SMOOTH",
"469 384 LINE SMOOTH",
"479 431 OFFCURVE",
"503 535 OFFCURVE",
"506 541 CURVE",
"524 543 OFFCURVE",
"547 544 OFFCURVE",
"564 544 CURVE SMOOTH",
"687 544 LINE SMOOTH",
"701 544 OFFCURVE",
"715 543 OFFCURVE",
"720 542 CURVE",
"731 459 LINE",
"772 464 LINE",
"784 591 LINE",
"752 587 OFFCURVE",
"741 587 OFFCURVE",
"708 587 CURVE SMOOTH",
"378 587 LINE",
"369 555 LINE",
"454 542 LINE",
"450 575 LINE",
"7 45 LINE",
"-46 32 LINE",
"-51 0 LINE",
"118 0 LINE",
"127 32 LINE",
"69 45 LINE",
"477 551 LINE",
"441 528 LINE",
"359 145 LINE SMOOTH",
"345 78 OFFCURVE",
"339 57 OFFCURVE",
"337 45 CURVE",
"274 32 LINE",
"269 0 LINE",
"604 0 LINE SMOOTH",
"622 0 OFFCURVE",
"627 0 OFFCURVE",
"676 -5 CURVE"
);
},
{
closed = 1;
nodes = (
"200 191 OFFCURVE",
"238 190 OFFCURVE",
"291 190 CURVE SMOOTH",
"377 190 OFFCURVE",
"397 191 OFFCURVE",
"400 188 CURVE",
"409 236 LINE",
"394 234 OFFCURVE",
"356 233 OFFCURVE",
"301 233 CURVE SMOOTH",
"250 233 OFFCURVE",
"204 234 OFFCURVE",
"185 236 CURVE",
"167 189 LINE"
);
},
{
closed = 1;
nodes = (
"647 208 LINE",
"687 398 LINE",
"651 398 LINE",
"622 326 LINE",
"613 324 OFFCURVE",
"600 324 OFFCURVE",
"580 324 CURVE SMOOTH",
"504 324 LINE SMOOTH",
"489 324 OFFCURVE",
"473 324 OFFCURVE",
"446 325 CURVE",
"436 279 LINE",
"464 280 OFFCURVE",
"480 281 OFFCURVE",
"496 281 CURVE SMOOTH",
"573 281 LINE SMOOTH",
"593 281 OFFCURVE",
"606 280 OFFCURVE",
"613 278 CURVE",
"611 208 LINE"
);
}
);
width = 792;
},
{
anchors = (
{
name = bottom;
position = "{401, 0}";
},
{
name = top;
position = "{525, 587}";
}
);
background = {
paths = (
{
closed = 1;
nodes = (
"833 166 LINE",
"766 178 LINE",
"693 75 LINE",
"672 71 OFFCURVE",
"676 71 OFFCURVE",
"620 71 CURVE SMOOTH",
"594 71 LINE SMOOTH",
"544 71 OFFCURVE",
"521 72 OFFCURVE",
"494 76 CURVE",
"496 97 OFFCURVE",
"506 152 OFFCURVE",
"517 202 CURVE SMOOTH",
"557 390 LINE SMOOTH",
"567 437 OFFCURVE",
"581 499 OFFCURVE",
"587 519 CURVE",
"601 521 OFFCURVE",
"630 522 OFFCURVE",
"656 522 CURVE SMOOTH",
"708 522 LINE SMOOTH",
"724 522 OFFCURVE",
"736 521 OFFCURVE",
"757 517 CURVE",
"771 428 LINE",
"840 435 LINE",
"848 593 LINE",
"805 590 OFFCURVE",
"711 587 OFFCURVE",
"661 587 CURVE SMOOTH",
"368 587 LINE",
"353 530 LINE",
"414 513 LINE",
"411 490 OFFCURVE",
"401 436 OFFCURVE",
"385 358 CURVE SMOOTH",
"359 235 LINE SMOOTH",
"343 159 OFFCURVE",
"325 93 OFFCURVE",
"319 76 CURVE",
"250 57 LINE",
"241 0 LINE",
"589 0 LINE SMOOTH",
"640 0 OFFCURVE",
"712 -3 OFFCURVE",
"753 -7 CURVE"
);
},
{
closed = 1;
nodes = (
"718 196 LINE",
"762 404 LINE",
"697 404 LINE",
"675 340 LINE",
"666 339 OFFCURVE",
"640 338 OFFCURVE",
"612 338 CURVE SMOOTH",
"574 338 LINE SMOOTH",
"547 338 OFFCURVE",
"525 341 OFFCURVE",
"520 342 CURVE",
"503 261 LINE",
"508 262 OFFCURVE",
"531 264 OFFCURVE",
"558 264 CURVE SMOOTH",
"595 264 LINE SMOOTH",
"624 264 OFFCURVE",
"646 264 OFFCURVE",
"658 263 CURVE",
"653 196 LINE"
);
}
);
};
color = -1;
layerId = "24976ABE-9171-461B-B338-52EF76BD92C7";
paths = (
{
closed = 1;
nodes = (
"832 166 LINE",
"765 178 LINE",
"692 75 LINE",
"671 72 OFFCURVE",
"656 71 OFFCURVE",
"622 71 CURVE SMOOTH",
"591 71 LINE SMOOTH",
"563 71 OFFCURVE",
"530 72 OFFCURVE",
"503 76 CURVE",
"505 96 OFFCURVE",
"515 152 OFFCURVE",
"526 202 CURVE SMOOTH",
"566 390 LINE SMOOTH",
"576 437 OFFCURVE",
"590 499 OFFCURVE",
"596 519 CURVE",
"611 521 OFFCURVE",
"637 522 OFFCURVE",
"665 522 CURVE SMOOTH",
"706 522 LINE SMOOTH",
"723 522 OFFCURVE",
"734 521 OFFCURVE",
"756 517 CURVE",
"770 428 LINE",
"839 435 LINE",
"847 593 LINE",
"804 590 OFFCURVE",
"706 587 OFFCURVE",
"660 587 CURVE SMOOTH",
"342 587 LINE",
"327 529 LINE",
"420 511 LINE",
"420 553 LINE",
"-13 76 LINE",
"-73 58 LINE",
"-82 0 LINE",
"135 0 LINE",
"150 58 LINE",
"91 76 LINE",
"462 498 LINE",
"422 492 LINE",
"362 208 LINE SMOOTH",
"352 160 OFFCURVE",
"342 110 OFFCURVE",
"332 76 CURVE",
"265 57 LINE",
"256 0 LINE",
"588 0 LINE SMOOTH",
"639 0 OFFCURVE",
"711 -3 OFFCURVE",
"752 -7 CURVE"
);
},
{
closed = 1;
nodes = (
"154 152 OFFCURVE",
"193 154 OFFCURVE",
"250 154 CURVE SMOOTH",
"294 154 OFFCURVE",
"333 153 OFFCURVE",
"375 152 CURVE",
"394 228 LINE",
"349 224 OFFCURVE",
"312 223 OFFCURVE",
"265 223 CURVE SMOOTH",
"201 223 OFFCURVE",
"207 226 OFFCURVE",
"176 228 CURVE",
"132 150 LINE"
);
},
{
closed = 1;
nodes = (
"717 196 LINE",
"761 404 LINE",
"696 404 LINE",
"674 340 LINE",
"665 339 OFFCURVE",
"640 338 OFFCURVE",
"611 338 CURVE SMOOTH",
"584 338 LINE SMOOTH",
"557 338 OFFCURVE",
"533 341 OFFCURVE",
"529 342 CURVE",
"512 261 LINE",
"516 262 OFFCURVE",
"540 264 OFFCURVE",
"568 264 CURVE SMOOTH",
"595 264 LINE SMOOTH",
"623 264 OFFCURVE",
"647 264 OFFCURVE",
"657 263 CURVE",
"652 196 LINE"
);
}
);
width = 857;
},
{
anchors = (
{
name = bottom;
position = "{368.44, 0}";
},
{
name = top;
position = "{492.44, 587}";
}
);
color = -1;
layerId = "8B4ACB86-485E-4983-BA11-7AC678D884D1";
paths = (
{
closed = 1;
nodes = (
"757.412 140.752 LINE",
"709.77 149.596 LINE",
"643.082 54.486 LINE",
"630.972 51.486 OFFCURVE",
"613.458 50.486 OFFCURVE",
"571.082 50.486 CURVE SMOOTH",
"484.806 50.486 LINE SMOOTH",
"452.852 50.486 OFFCURVE",
"443.366 50.908 OFFCURVE",
"421.522 52.908 CURVE",
"423.522 66.018 OFFCURVE",
"440.834 157.312 OFFCURVE",
"449.256 197.844 CURVE SMOOTH",
"489.256 385.266 LINE SMOOTH",
"499.256 432.266 OFFCURVE",
"521.146 527.404 OFFCURVE",
"524.568 536.358 CURVE",
"542.146 538.358 OFFCURVE",
"565.568 539.358 OFFCURVE",
"585.1 539.358 CURVE SMOOTH",
"690.798 539.358 LINE SMOOTH",
"705.22 539.358 OFFCURVE",
"718.798 538.358 OFFCURVE",
"727.174 536.514 CURVE",
"739.018 452.67 LINE",
"785.926 457.67 LINE",
"797.082 591.422 LINE",
"763.816 588.266 OFFCURVE",
"733.404 587 OFFCURVE",
"697.872 587 CURVE SMOOTH",
"370.404 587 LINE",
"359.716 549.514 LINE",
"446.404 535.67 LINE",
"443.67 570.358 LINE",
"2.358 51.33 LINE",
"-51.908 37.486 LINE",
"-57.752 0 LINE",
"120.954 0 LINE",
"131.642 37.486 LINE",
"73.22 51.33 LINE",
"474.046 540.028 LINE",
"436.358 520.404 LINE",
"359 158.082 LINE SMOOTH",
"346.266 95.302 OFFCURVE",
"339 67.972 OFFCURVE",
"335.312 51.33 CURVE",
"271.046 37.486 LINE",
"265.202 0 LINE",
"600.202 0 LINE SMOOTH",
"625.376 0 OFFCURVE",
"647.256 -1.266 OFFCURVE",
"691.614 -5.422 CURVE"
);
},
{
closed = 1;
nodes = (
"189.872 182.56 OFFCURVE",
"227.028 182.404 OFFCURVE",
"280.028 182.404 CURVE SMOOTH",
"350.836 182.404 OFFCURVE",
"374.212 182.56 OFFCURVE",
"390.716 180.404 CURVE",
"401.404 234.312 LINE",
"380.918 231.89 OFFCURVE",
"343.762 230.89 OFFCURVE",
"290.872 230.89 CURVE SMOOTH",
"238.606 230.89 OFFCURVE",
"203.156 232.312 OFFCURVE",
"182.468 234.312 CURVE",
"159.404 180.56 LINE"
);
},
{
closed = 1;
nodes = (
"661.77 205.468 LINE",
"702.614 399.266 LINE",
"660.284 399.266 LINE",
"632.972 328.954 LINE",
"623.972 327.376 OFFCURVE",
"608.018 326.954 OFFCURVE",
"586.33 326.954 CURVE SMOOTH",
"520.458 326.954 LINE SMOOTH",
"502.926 326.954 OFFCURVE",
"485.66 327.376 OFFCURVE",
"463.302 328.376 CURVE",
"451.614 275.202 LINE",
"474.972 276.202 OFFCURVE",
"492.66 277.624 OFFCURVE",
"510.77 277.624 CURVE SMOOTH",
"577.22 277.624 LINE SMOOTH",
"599.33 277.624 OFFCURVE",
"614.44 276.202 OFFCURVE",
"622.284 274.624 CURVE",
"619.44 205.468 LINE"
);
}
);
width = 804.66;
}
);
leftKerningGroup = AE;
note = AE;
rightKerningGroup = E;
unicode = 00C6;
},
{
glyphname = B;
lastChange = "2018-11-30 12:57:44 +0000";
layers = (
{
anchors = (
{
name = bottom;
position = "{222, 0}";
},
{
name = top;
position = "{346, 587}";
}
);
background = {
anchors = (
{
name = bottom;
position = "{222, 0}";
},
{
name = top;
position = "{346, 587}";
}
);
paths = (
{
closed = 1;
nodes = (
"17 32 LINE",
"12 0 LINE",
"220 0 LINE SMOOTH",
"382 0 OFFCURVE",
"486 84 OFFCURVE",
"486 192 CURVE SMOOTH",
"486 260 OFFCURVE",
"430 309 OFFCURVE",
"336 314 CURVE",
"352 308 LINE",
"436 318 OFFCURVE",
"516 392 OFFCURVE",
"516 473 CURVE SMOOTH",
"516 548 OFFCURVE",
"451 587 OFFCURVE",
"340 587 CURVE SMOOTH",
"134 587 LINE",
"125 555 LINE",
"182 542 LINE",
"182 525 OFFCURVE",
"175 487 OFFCURVE",
"156 393 CURVE SMOOTH",
"111 186 LINE SMOOTH",
"91 95 OFFCURVE",
"85 65 OFFCURVE",
"79 45 CURVE"
);
},
{
closed = 1;
nodes = (
"220 415 LINE SMOOTH",
"234 478 OFFCURVE",
"248 540 OFFCURVE",
"251 549 CURVE",
"328 549 LINE SMOOTH",
"411 549 OFFCURVE",
"451 519 OFFCURVE",
"451 460 CURVE SMOOTH",
"451 379 OFFCURVE",
"388 322 OFFCURVE",
"274 322 CURVE SMOOTH",
"239 322 OFFCURVE",
"215 324 OFFCURVE",
"186 325 CURVE",
"176 281 LINE",
"190 283 OFFCURVE",
"200 283 OFFCURVE",
"265 283 CURVE SMOOTH",
"371 283 OFFCURVE",
"421 247 OFFCURVE",
"421 179 CURVE SMOOTH",
"421 89 OFFCURVE",
"360 40 OFFCURVE",
"225 40 CURVE SMOOTH",
"201 40 OFFCURVE",
"162 44 OFFCURVE",
"146 47 CURVE",
"144 57 OFFCURVE",
"157 115 OFFCURVE",
"170 177 CURVE SMOOTH"
);
}
);
};
color = -1;
layerId = "D9A1C40A-2361-406B-8D3E-8FA7FBCB82BD";
paths = (
{
closed = 1;
nodes = (
"16 32 LINE",
"11 0 LINE",
"218 0 LINE SMOOTH",
"380 0 OFFCURVE",
"484 84 OFFCURVE",
"484 192 CURVE SMOOTH",
"484 260 OFFCURVE",
"428 309 OFFCURVE",
"334 314 CURVE",
"350 308 LINE",
"434 318 OFFCURVE",
"514 392 OFFCURVE",
"514 473 CURVE SMOOTH",
"514 548 OFFCURVE",
"449 587 OFFCURVE",
"338 587 CURVE SMOOTH",
"134 587 LINE",
"125 555 LINE",
"182 542 LINE",
"182 525 OFFCURVE",
"175 487 OFFCURVE",
"155 393 CURVE SMOOTH",
"111 186 LINE SMOOTH",
"92 95 OFFCURVE",
"85 65 OFFCURVE",
"79 45 CURVE"
);
},
{
closed = 1;
nodes = (
"219 415 LINE SMOOTH",
"232 478 OFFCURVE",
"247 540 OFFCURVE",
"250 549 CURVE",
"326 549 LINE SMOOTH",
"409 549 OFFCURVE",
"449 519 OFFCURVE",
"449 460 CURVE SMOOTH",
"449 379 OFFCURVE",
"386 322 OFFCURVE",
"272 322 CURVE SMOOTH",
"237 322 OFFCURVE",
"213 323 OFFCURVE",
"184 325 CURVE",
"174 281 LINE",
"208 283 OFFCURVE",
"218 283 OFFCURVE",
"263 283 CURVE SMOOTH",
"369 283 OFFCURVE",
"419 247 OFFCURVE",
"419 179 CURVE SMOOTH",
"419 89 OFFCURVE",
"358 40 OFFCURVE",
"223 40 CURVE SMOOTH",
"199 40 OFFCURVE",
"161 44 OFFCURVE",
"145 47 CURVE",
"146 57 OFFCURVE",
"156 115 OFFCURVE",
"169 177 CURVE SMOOTH"
);
}
);
width = 542;
},
{
anchors = (
{
name = bottom;
position = "{280, 0}";
},
{
name = top;
position = "{404, 587}";
}
);
background = {
anchors = (
{
name = bottom;
position = "{281, 0}";
},
{
name = top;
position = "{405, 587}";
}
);
paths = (
{
closed = 1;
nodes = (
"-3 57 LINE",
"-13 0 LINE",
"289 0 LINE SMOOTH",
"467 0 OFFCURVE",
"585 80 OFFCURVE",
"585 196 CURVE SMOOTH",
"585 278 OFFCURVE",
"518 319 OFFCURVE",
"407 324 CURVE",
"397 308 LINE",
"552 314 OFFCURVE",
"611 386 OFFCURVE",
"611 467 CURVE SMOOTH",
"611 552 OFFCURVE",
"540 587 OFFCURVE",
"417 587 CURVE SMOOTH",
"115 587 LINE",
"99 530 LINE",
"162 513 LINE",
"159 490 OFFCURVE",
"149 436 OFFCURVE",
"133 358 CURVE SMOOTH",
"107 235 LINE SMOOTH",
"91 158 OFFCURVE",
"73 93 OFFCURVE",
"67 76 CURVE"
);
},
{
closed = 1;
nodes = (
"309 407 LINE SMOOTH",
"322 466 OFFCURVE",
"332 511 OFFCURVE",
"335 524 CURVE",
"356 524 LINE SMOOTH",
"405 524 OFFCURVE",
"432 501 OFFCURVE",
"432 450 CURVE SMOOTH",
"432 383 OFFCURVE",
"386 334 OFFCURVE",
"331 334 CURVE SMOOTH",
"308 334 OFFCURVE",
"299 334 OFFCURVE",
"289 335 CURVE",
"274 260 LINE",
"298 262 OFFCURVE",
"316 262 OFFCURVE",
"318 262 CURVE SMOOTH",
"377 262 OFFCURVE",
"406 241 OFFCURVE",
"406 185 CURVE SMOOTH",
"406 120 OFFCURVE",
"362 66 OFFCURVE",
"302 66 CURVE SMOOTH",
"274 66 OFFCURVE",
"253 69 OFFCURVE",
"241 75 CURVE",
"246 92 OFFCURVE",
"251 127 OFFCURVE",
"261 177 CURVE SMOOTH"
);
}
);
};
color = -1;
layerId = "24976ABE-9171-461B-B338-52EF76BD92C7";
paths = (
{
closed = 1;
nodes = (
"-2 57 LINE",
"-11 0 LINE",
"288 0 LINE SMOOTH",
"466 0 OFFCURVE",
"584 80 OFFCURVE",
"584 196 CURVE SMOOTH",
"584 278 OFFCURVE",
"517 319 OFFCURVE",
"401 324 CURVE",
"391 308 LINE",
"551 314 OFFCURVE",
"610 386 OFFCURVE",
"610 467 CURVE SMOOTH",
"610 552 OFFCURVE",
"539 587 OFFCURVE",
"416 587 CURVE SMOOTH",
"115 587 LINE",
"100 530 LINE",
"161 513 LINE",
"158 490 OFFCURVE",
"148 436 OFFCURVE",
"132 358 CURVE SMOOTH",
"106 235 LINE SMOOTH",
"90 158 OFFCURVE",
"72 93 OFFCURVE",
"66 76 CURVE"
);
},
{
closed = 1;
nodes = (
"308 407 LINE SMOOTH",
"321 466 OFFCURVE",
"331 511 OFFCURVE",
"334 524 CURVE",
"355 524 LINE SMOOTH",
"404 524 OFFCURVE",
"431 501 OFFCURVE",
"431 450 CURVE SMOOTH",
"431 383 OFFCURVE",
"385 334 OFFCURVE",
"320 334 CURVE SMOOTH",
"307 334 OFFCURVE",
"298 334 OFFCURVE",
"278 335 CURVE",
"263 260 LINE",
"276 261 OFFCURVE",
"296 262 OFFCURVE",
"307 262 CURVE SMOOTH",
"376 262 OFFCURVE",
"405 238 OFFCURVE",
"405 185 CURVE SMOOTH",
"405 108 OFFCURVE",
"357 66 OFFCURVE",
"297 66 CURVE SMOOTH",
"271 66 OFFCURVE",
"252 69 OFFCURVE",
"240 75 CURVE",
"245 92 OFFCURVE",
"250 127 OFFCURVE",
"260 177 CURVE SMOOTH"
);
}
);
width = 636;
},
{
anchors = (
{
name = bottom;
position = "{232.972, 0}";
},
{
name = top;
position = "{356.972, 587}";
}
);
color = -1;
layerId = "8B4ACB86-485E-4983-BA11-7AC678D884D1";
paths = (
{
closed = 1;
nodes = (
"10.936 37.486 LINE",
"5.092 0 LINE",
"231.926 0 LINE SMOOTH",
"397.724 0 OFFCURVE",
"504.256 83.156 OFFCURVE",
"504.256 192.844 CURVE SMOOTH",
"504.256 263.798 OFFCURVE",
"446.146 311.11 OFFCURVE",
"348.77 316.11 CURVE",
"359.284 308 LINE",
"458.054 317.156 OFFCURVE",
"533.412 390.734 OFFCURVE",
"533.412 471.734 CURVE SMOOTH",
"533.412 548.844 OFFCURVE",
"467.568 587 OFFCURVE",
"353.614 587 CURVE SMOOTH",
"129.358 587 LINE",
"118.67 549.514 LINE",
"176.514 535.67 LINE",
"175.67 517.826 OFFCURVE",
"168.248 476.028 OFFCURVE",
"149.092 385.826 CURVE SMOOTH",
"108.89 196.128 LINE SMOOTH",
"90.312 108.082 OFFCURVE",
"81.202 70.908 OFFCURVE",
"75.202 51.33 CURVE"
);
},
{
closed = 1;
nodes = (
"237.146 413.312 LINE SMOOTH",
"250.146 475.468 OFFCURVE",
"263.88 533.67 OFFCURVE",
"266.88 543.514 CURVE",
"331.486 543.514 LINE SMOOTH",
"407.312 543.514 OFFCURVE",
"444.358 515.202 OFFCURVE",
"444.358 457.89 CURVE SMOOTH",
"444.358 379.844 OFFCURVE",
"385.156 324.532 OFFCURVE",
"283.816 324.532 CURVE SMOOTH",
"250.926 324.532 OFFCURVE",
"230.302 325.532 OFFCURVE",
"205.522 327.11 CURVE",
"194.256 276.358 LINE",
"221.926 278.358 OFFCURVE",
"233.614 278.358 OFFCURVE",
"273.972 278.358 CURVE SMOOTH",
"369.844 278.358 OFFCURVE",
"415.202 245.734 OFFCURVE",
"415.202 180.266 CURVE SMOOTH",
"415.202 95.33 OFFCURVE",
"358 45.486 OFFCURVE",
"238.614 45.486 CURVE SMOOTH",
"213.77 45.486 OFFCURVE",
"179.146 49.486 OFFCURVE",
"163.99 52.908 CURVE",
"165.412 64.174 OFFCURVE",
"174.568 117.532 OFFCURVE",
"187.146 177 CURVE SMOOTH"
);
}
);
width = 560.146;
}
);
leftKerningGroup = H;
note = B;
rightKerningGroup = B;
unicode = 0042;
},
{
glyphname = C;
lastChange = "2018-11-30 12:57:44 +0000";
layers = (
{
anchors = (
{
name = bottom;
position = "{303, 0}";
},
{
name = top;
position = "{427, 587}";
}
);
background = {
anchors = (
{
name = bottom;
position = "{303, 0}";
},
{
name = top;
position = "{427, 587}";
}
);
paths = (
{
closed = 1;
nodes = (
"382 -9 OFFCURVE",
"430 2 OFFCURVE",
"502 32 CURVE",
"555 154 LINE",
"512 158 LINE",
"447 62 LINE",
"415 42 OFFCURVE",
"380 36 OFFCURVE",
"339 36 CURVE SMOOTH",
"218 36 OFFCURVE",
"146 110 OFFCURVE",
"146 236 CURVE SMOOTH",
"146 413 OFFCURVE",
"259 552 OFFCURVE",
"426 552 CURVE SMOOTH",
"480 552 OFFCURVE",
"529 541 OFFCURVE",
"549 523 CURVE",
"557 435 LINE",
"594 437 LINE",
"614 566 LINE",
"569 586 OFFCURVE",
"505 596 OFFCURVE",
"442 596 CURVE SMOOTH",
"234 596 OFFCURVE",
"67 431 OFFCURVE",
"67 228 CURVE SMOOTH",
"67 82 OFFCURVE",
"167 -9 OFFCURVE",
"329 -9 CURVE SMOOTH"
);
}
);
};
color = -1;
layerId = "D9A1C40A-2361-406B-8D3E-8FA7FBCB82BD";
paths = (
{
closed = 1;
nodes = (
"381 -9 OFFCURVE",
"438 3 OFFCURVE",
"502 32 CURVE",
"555 154 LINE",
"512 158 LINE",
"447 62 LINE",
"415 42 OFFCURVE",
"380 36 OFFCURVE",
"339 36 CURVE SMOOTH",
"218 36 OFFCURVE",
"146 110 OFFCURVE",
"146 236 CURVE SMOOTH",
"146 388 OFFCURVE",
"239 552 OFFCURVE",
"426 552 CURVE SMOOTH",
"480 552 OFFCURVE",
"529 541 OFFCURVE",
"549 523 CURVE",
"557 435 LINE",
"594 437 LINE",
"614 566 LINE",
"569 586 OFFCURVE",
"505 596 OFFCURVE",
"442 596 CURVE SMOOTH",
"213 596 OFFCURVE",
"67 412 OFFCURVE",
"67 228 CURVE SMOOTH",
"67 82 OFFCURVE",
"167 -9 OFFCURVE",
"329 -9 CURVE SMOOTH"
);
}
);
width = 596;
},
{
anchors = (
{
name = bottom;
position = "{308, 0}";
},
{
name = top;
position = "{432, 587}";
}
);
background = {
anchors = (
{
name = bottom;
position = "{309, 0}";
},
{
name = top;
position = "{433, 587}";
}
);
paths = (
{
closed = 1;
nodes = (
"410 -9 OFFCURVE",
"509 16 OFFCURVE",
"555 46 CURVE",
"605 185 LINE",
"524 193 LINE",
"482 107 LINE",
"465 89 OFFCURVE",
"416 71 OFFCURVE",
"385 71 CURVE SMOOTH",
"303 71 OFFCURVE",
"249 138 OFFCURVE",
"249 240 CURVE SMOOTH",
"249 346 OFFCURVE",
"305 520 OFFCURVE",
"454 520 CURVE SMOOTH",
"486 520 OFFCURVE",
"507 516 OFFCURVE",
"534 505 CURVE",
"541 395 LINE",
"614 397 LINE",
"650 560 LINE",
"610 582 OFFCURVE",
"540 596 OFFCURVE",
"466 596 CURVE SMOOTH",
"232 596 OFFCURVE",
"52 435 OFFCURVE",
"52 222 CURVE SMOOTH",
"52 76 OFFCURVE",
"160 -9 OFFCURVE",
"343 -9 CURVE SMOOTH"
);
}
);
};
color = -1;
layerId = "24976ABE-9171-461B-B338-52EF76BD92C7";
paths = (
{
closed = 1;
nodes = (
"409 -9 OFFCURVE",
"501 11 OFFCURVE",
"554 46 CURVE",
"604 185 LINE",
"523 193 LINE",
"478 100 LINE",
"455 82 OFFCURVE",
"415 71 OFFCURVE",
"382 71 CURVE SMOOTH",
"300 71 OFFCURVE",
"248 138 OFFCURVE",
"248 240 CURVE SMOOTH",
"248 373 OFFCURVE",
"318 520 OFFCURVE",
"457 520 CURVE SMOOTH",
"485 520 OFFCURVE",
"508 516 OFFCURVE",
"533 505 CURVE",
"540 395 LINE",
"613 397 LINE",
"649 560 LINE",
"609 582 OFFCURVE",
"539 596 OFFCURVE",
"465 596 CURVE SMOOTH",
"231 596 OFFCURVE",
"51 435 OFFCURVE",
"51 222 CURVE SMOOTH",
"51 76 OFFCURVE",
"159 -9 OFFCURVE",
"342 -9 CURVE SMOOTH"
);
}
);
width = 638;
},
{
anchors = (
{
name = bottom;
position = "{303.422, 0}";
},
{
name = top;
position = "{427.422, 587}";
}
);
color = -1;
layerId = "8B4ACB86-485E-4983-BA11-7AC678D884D1";
paths = (
{
closed = 1;
nodes = (
"386.486 -9 OFFCURVE",
"450.66 4.688 OFFCURVE",
"512.55 34.954 CURVE",
"564.706 160.33 LINE",
"513.688 165.174 LINE",
"453.752 71.284 LINE",
"424.706 52.128 OFFCURVE",
"386.752 43.174 OFFCURVE",
"347.862 43.174 CURVE SMOOTH",
"234.88 43.174 OFFCURVE",
"166.678 115.908 OFFCURVE",
"166.678 236.844 CURVE SMOOTH",
"166.678 389.688 OFFCURVE",
"259.678 545.248 OFFCURVE",
"432.33 545.248 CURVE SMOOTH",
"480.422 545.248 OFFCURVE",
"523.514 535.514 OFFCURVE",
"544.78 519.202 CURVE",
"552.78 426.56 LINE",
"597.376 428.56 LINE",
"620.752 564.734 LINE",
"576.596 585.156 OFFCURVE",
"511.752 596 OFFCURVE",
"446.22 596 CURVE SMOOTH",
"220.596 596 OFFCURVE",
"62.78 420.862 OFFCURVE",
"62.78 226.734 CURVE SMOOTH",
"62.78 80.734 OFFCURVE",
"164.89 -9 OFFCURVE",
"331.11 -9 CURVE SMOOTH"
);
}
);
width = 603.596;
}
);
leftKerningGroup = O;
note = C;
rightKerningGroup = C;
unicode = 0043;
},
{
glyphname = D;
lastChange = "2018-11-30 12:57:44 +0000";
layers = (
{
anchors = (
{
name = bottom;
position = "{273, 0}";
},
{
name = center;
position = "{357, 294}";
},
{
name = stroke;
position = "{212, 294}";
},
{
name = top;
position = "{397, 587}";
}
);
background = {
anchors = (
{
name = bottom;
position = "{272.964, 0}";
},
{
name = center;
position = "{354.964, 294}";
},
{
name = stroke;
position = "{212.429, 294}";
},
{
name = top;
position = "{396.964, 587}";
}
);
paths = (
{
closed = 1;
nodes = (
"126.429 554.571 LINE",
"183.036 541.5 LINE",
"182.5 524.893 OFFCURVE",
"176.429 486.607 OFFCURVE",
"156.5 392.893 CURVE SMOOTH",
"112.321 185.857 LINE SMOOTH",
"98.25 117.571 OFFCURVE",
"86.179 64.5 OFFCURVE",
"80.179 45.036 CURVE",
"18.036 32.429 LINE",
"12.964 0 LINE",
"262.643 0 LINE SMOOTH",
"472.857 0 OFFCURVE",
"637.071 162.607 OFFCURVE",
"637.071 358.607 CURVE SMOOTH",
"637.071 509 OFFCURVE",
"527.143 587 OFFCURVE",
"342 587 CURVE SMOOTH",
"134.571 587 LINE"
);
},
{
closed = 1;
nodes = (
"287 544.5 OFFCURVE",
"310.857 546.964 OFFCURVE",
"334.786 546.964 CURVE SMOOTH",
"481.643 546.964 OFFCURVE",
"558.75 485.5 OFFCURVE",
"558.75 351.214 CURVE SMOOTH",
"558.75 166.821 OFFCURVE",
"447.857 45.036 OFFCURVE",
"274.25 45.036 CURVE SMOOTH",
"229.143 45.036 OFFCURVE",
"195.214 48.036 OFFCURVE",
"150.571 54.036 CURVE",
"154.036 88.536 OFFCURVE",
"159.25 122.143 OFFCURVE",
"173.179 185.857 CURVE SMOOTH",
"217.357 393.821 LINE SMOOTH",
"237.286 486 OFFCURVE",
"246.429 519.571 OFFCURVE",
"252.357 538.571 CURVE"
);
}
);
};
color = -1;
layerId = "D9A1C40A-2361-406B-8D3E-8FA7FBCB82BD";
paths = (
{
closed = 1;
nodes = (
"126 555 LINE",
"183 542 LINE",
"181 525 OFFCURVE",
"176 487 OFFCURVE",
"156 393 CURVE SMOOTH",
"112 186 LINE SMOOTH",
"98 118 OFFCURVE",
"86 65 OFFCURVE",
"80 45 CURVE",
"17 32 LINE",
"12 0 LINE",
"265 0 LINE SMOOTH",
"474 0 OFFCURVE",
"635 163 OFFCURVE",
"635 359 CURVE SMOOTH",
"635 509 OFFCURVE",
"527 587 OFFCURVE",
"344 587 CURVE SMOOTH",
"135 587 LINE"
);
},
{
closed = 1;
nodes = (
"286 545 OFFCURVE",
"310 547 OFFCURVE",
"337 547 CURVE SMOOTH",
"484 547 OFFCURVE",
"560 486 OFFCURVE",
"560 351 CURVE SMOOTH",
"560 167 OFFCURVE",
"447 45 OFFCURVE",
"276 45 CURVE SMOOTH",
"228 45 OFFCURVE",
"194 48 OFFCURVE",
"148 54 CURVE",
"153 89 OFFCURVE",
"158 122 OFFCURVE",
"172 186 CURVE SMOOTH",
"216 394 LINE SMOOTH",
"235 486 OFFCURVE",
"245 520 OFFCURVE",
"251 539 CURVE"
);
}
);
width = 671;
},
{
anchors = (
{
name = bottom;
position = "{304, 0}";
},
{
name = center;
position = "{386, 294}";
},
{
name = stroke;
position = "{242, 294}";
},
{
name = top;
position = "{428, 587}";
}
);
background = {
anchors = (
{
name = bottom;
position = "{305, 0}";
},
{
name = center;
position = "{387, 294}";
},
{
name = stroke;
position = "{243, 294}";
},
{
name = top;
position = "{429, 587}";
}
);
paths = (
{
closed = 1;
nodes = (
"100 530 LINE",
"163 513 LINE",
"160 490 OFFCURVE",
"150 436 OFFCURVE",
"134 358 CURVE SMOOTH",
"108 235 LINE SMOOTH",
"90 150 OFFCURVE",
"74 93 OFFCURVE",
"68 76 CURVE",
"-2 57 LINE",
"-12 0 LINE",
"305 0 LINE SMOOTH",
"528 0 OFFCURVE",
"704 169 OFFCURVE",
"704 365 CURVE SMOOTH",
"704 509 OFFCURVE",
"598 587 OFFCURVE",
"405 587 CURVE SMOOTH",
"116 587 LINE"
);
},
{
closed = 1;
nodes = (
"350 516 OFFCURVE",
"366 516 OFFCURVE",
"386 516 CURVE SMOOTH",
"467 516 OFFCURVE",
"522 457 OFFCURVE",
"522 363 CURVE SMOOTH",
"522 185 OFFCURVE",
"446 76 OFFCURVE",
"323 76 CURVE SMOOTH",
"300 76 OFFCURVE",
"270 79 OFFCURVE",
"246 85 CURVE",
"248 91 OFFCURVE",
"265 187 OFFCURVE",
"275 235 CURVE SMOOTH",
"301 355 LINE SMOOTH",
"317 429 OFFCURVE",
"334 495 OFFCURVE",
"336 514 CURVE"
);
}
);
};
color = -1;
layerId = "24976ABE-9171-461B-B338-52EF76BD92C7";
paths = (
{
closed = 1;
nodes = (
"101 530 LINE",
"162 513 LINE",
"159 490 OFFCURVE",
"149 436 OFFCURVE",
"133 358 CURVE SMOOTH",
"107 235 LINE SMOOTH",
"89 150 OFFCURVE",
"73 93 OFFCURVE",
"67 76 CURVE",
"-2 57 LINE",
"-11 0 LINE",
"304 0 LINE SMOOTH",
"527 0 OFFCURVE",
"703 169 OFFCURVE",
"703 365 CURVE SMOOTH",
"703 509 OFFCURVE",
"597 587 OFFCURVE",
"404 587 CURVE SMOOTH",
"116 587 LINE"
);
},
{
closed = 1;
nodes = (
"349 515 OFFCURVE",
"365 516 OFFCURVE",
"385 516 CURVE SMOOTH",
"466 516 OFFCURVE",
"521 465 OFFCURVE",
"521 357 CURVE SMOOTH",
"521 185 OFFCURVE",
"445 76 OFFCURVE",
"322 76 CURVE SMOOTH",
"299 76 OFFCURVE",
"269 79 OFFCURVE",
"245 85 CURVE",
"248 101 OFFCURVE",
"264 187 OFFCURVE",
"274 235 CURVE SMOOTH",
"300 355 LINE SMOOTH",
"316 429 OFFCURVE",
"331 495 OFFCURVE",
"335 513 CURVE"
);
}
);
width = 727;
},
{
anchors = (
{
name = bottom;
position = "{278.486, 0}";
},
{
name = center;
position = "{361.642, 294}";
},
{
name = stroke;
position = "{217.486, 294}";
},
{
name = top;
position = "{402.486, 587}";
}
);
color = -1;
layerId = "8B4ACB86-485E-4983-BA11-7AC678D884D1";
paths = (
{
closed = 1;
nodes = (
"119.67 549.514 LINE",
"177.514 535.67 LINE",
"175.514 517.826 OFFCURVE",
"169.248 476.028 OFFCURVE",
"150.092 385.826 CURVE SMOOTH",
"109.89 196.128 LINE SMOOTH",
"95.046 124.752 OFFCURVE",
"82.202 70.908 OFFCURVE",
"76.202 51.33 CURVE",
"11.936 37.486 LINE",
"6.092 0 LINE",
"271.752 0 LINE SMOOTH",
"483.706 0 OFFCURVE",
"648.926 164.266 OFFCURVE",
"648.926 360.266 CURVE SMOOTH",
"648.926 509 OFFCURVE",
"540.926 587 OFFCURVE",
"355.394 587 CURVE SMOOTH",
"130.358 587 LINE"
);
},
{
closed = 1;
nodes = (
"298.66 538.67 OFFCURVE",
"320.55 540.67 OFFCURVE",
"345.44 540.67 CURVE SMOOTH",
"478.514 540.67 OFFCURVE",
"550.294 479.67 OFFCURVE",
"550.294 353.532 CURVE SMOOTH",
"550.294 170.798 OFFCURVE",
"445.734 51.33 OFFCURVE",
"284.44 51.33 CURVE SMOOTH",
"242.348 51.33 OFFCURVE",
"209.192 54.33 OFFCURVE",
"167.834 60.33 CURVE",
"171.99 89.422 OFFCURVE",
"179.522 135.926 OFFCURVE",
"192.678 196.128 CURVE SMOOTH",
"232.88 385.56 LINE SMOOTH",
"251.458 474.184 OFFCURVE",
"262.724 514.514 OFFCURVE",
"267.88 533.514 CURVE"
);
}
);
width = 681.972;
}
);
leftKerningGroup = H;
note = D;
rightKerningGroup = O;
unicode = 0044;
},
{
glyphname = E;
lastChange = "2018-11-30 12:57:44 +0000";
layers = (
{
anchors = (
{
name = bottom;
position = "{231, 0}";
},
{
name = ogonek;
position = "{429, 0}";
},
{
name = top;
position = "{355, 587}";
},
{
name = topleft;
position = "{105, 587}";
}
);
background = {
anchors = (
{
name = bottom;
position = "{231.357, 0}";
},
{
name = ogonek;
position = "{429.143, 0}";
},
{
name = top;
position = "{355.357, 587}";
},
{
name = topleft;
position = "{105, 587}";
}
);
paths = (
{
closed = 1;
nodes = (
"493.429 133.571 LINE",
"451 141.643 LINE",
"385.857 48.964 LINE",
"377.643 46.429 OFFCURVE",
"354.607 44.964 OFFCURVE",
"315.321 44.964 CURVE SMOOTH",
"197.429 44.964 LINE SMOOTH",
"178.393 44.964 OFFCURVE",
"160.786 45.964 OFFCURVE",
"144.107 47.5 CURVE",
"146.107 56.714 OFFCURVE",
"166.429 158.393 OFFCURVE",
"173.5 195.607 CURVE SMOOTH",
"213.5 383.607 LINE SMOOTH",
"223.5 430.607 OFFCURVE",
"247.821 535.357 OFFCURVE",
"249.893 541.107 CURVE",
"269.286 543.107 OFFCURVE",
"284.036 544.107 OFFCURVE",
"308.571 544.107 CURVE SMOOTH",
"439.679 544.107 LINE SMOOTH",
"454.214 544.107 OFFCURVE",
"467.679 543.107 OFFCURVE",
"474.429 541.571 CURVE",
"486.964 458.964 LINE",
"527.464 463.5 LINE",
"539.393 590.536 LINE",
"497.536 586.607 OFFCURVE",
"485.429 587 OFFCURVE",
"463.929 587 CURVE SMOOTH",
"133.571 587 LINE",
"125.429 554.571 LINE",
"182.036 541.5 LINE",
"181.5 524.893 OFFCURVE",
"175.429 486.607 OFFCURVE",
"155.5 392.893 CURVE SMOOTH",
"111.321 185.857 LINE SMOOTH",
"91.393 94.143 OFFCURVE",
"85.179 64.5 OFFCURVE",
"79.179 45.036 CURVE",
"17.036 32.429 LINE",
"12.429 0 LINE",
"359.5 0 LINE SMOOTH",
"378.071 0 OFFCURVE",
"390.286 0.393 OFFCURVE",
"431.607 -4.536 CURVE"
);
},
{
closed = 1;
nodes = (
"403 207.786 LINE",
"443.071 397.607 LINE",
"406.571 397.607 LINE",
"378.179 327.214 LINE",
"369.179 324.286 OFFCURVE",
"355.964 323.75 OFFCURVE",
"335.821 323.75 CURVE SMOOTH",
"251.143 323.75 LINE SMOOTH",
"235.929 323.75 OFFCURVE",
"216.393 324.286 OFFCURVE",
"190.75 325.286 CURVE",
"180.143 279.179 LINE",
"207.25 280.179 OFFCURVE",
"227.786 280.714 OFFCURVE",
"243 280.714 CURVE SMOOTH",
"329.143 280.714 LINE SMOOTH",
"349.286 280.714 OFFCURVE",
"361.5 280.179 OFFCURVE",
"369.036 277.25 CURVE",
"366.5 207.786 LINE"
);
}
);
};
color = -1;
layerId = "D9A1C40A-2361-406B-8D3E-8FA7FBCB82BD";
paths = (
{
closed = 1;
nodes = (
"492 134 LINE",
"450 142 LINE",
"385 49 LINE",
"377 46 OFFCURVE",
"354 45 OFFCURVE",
"314 45 CURVE SMOOTH",
"196 45 LINE SMOOTH",
"177 45 OFFCURVE",
"160 46 OFFCURVE",
"145 48 CURVE",
"147 67 OFFCURVE",
"165 158 OFFCURVE",
"173 196 CURVE SMOOTH",
"213 384 LINE SMOOTH",
"223 431 OFFCURVE",
"247 535 OFFCURVE",
"249 541 CURVE",
"268 543 OFFCURVE",
"283 544 OFFCURVE",
"308 544 CURVE SMOOTH",
"439 544 LINE SMOOTH",
"453 544 OFFCURVE",
"467 543 OFFCURVE",
"473 542 CURVE",
"486 459 LINE",
"526 464 LINE",
"538 591 LINE",
"507 588 OFFCURVE",
"484 587 OFFCURVE",
"463 587 CURVE SMOOTH",
"134 587 LINE",
"125 555 LINE",
"182 542 LINE",
"181 525 OFFCURVE",
"175 487 OFFCURVE",
"155 393 CURVE SMOOTH",
"111 186 LINE SMOOTH",
"91 94 OFFCURVE",
"85 65 OFFCURVE",
"79 45 CURVE",
"16 32 LINE",
"11 0 LINE",
"359 0 LINE SMOOTH",
"377 0 OFFCURVE",
"399 -1 OFFCURVE",
"431 -5 CURVE"
);
},
{
closed = 1;
nodes = (
"402 207 LINE",
"442 398 LINE",
"406 398 LINE",
"377 327 LINE",
"368 325 OFFCURVE",
"355 324 OFFCURVE",
"335 324 CURVE SMOOTH",
"250 324 LINE SMOOTH",
"235 324 OFFCURVE",
"215 324 OFFCURVE",
"190 325 CURVE",
"179 278 LINE",
"206 279 OFFCURVE",
"227 280 OFFCURVE",
"242 280 CURVE SMOOTH",
"328 280 LINE SMOOTH",
"348 280 OFFCURVE",
"361 278 OFFCURVE",
"368 276 CURVE",
"366 207 LINE"
);
}
);
width = 545;
},
{
anchors = (
{
name = bottom;
position = "{256, 0}";
},
{
name = ogonek;
position = "{498, 0}";
},
{
name = top;
position = "{380, 587}";
},
{
name = topleft;
position = "{111, 587}";
}
);
background = {
anchors = (
{
name = bottom;
position = "{257, 0}";
},
{
name = ogonek;
position = "{499, 0}";
},
{
name = top;
position = "{381, 587}";
},
{
name = topleft;
position = "{110, 587}";
}
);
paths = (
{
closed = 1;
nodes = (
"580 166 LINE",
"513 178 LINE",
"440 75 LINE",
"419 71 OFFCURVE",
"423 71 OFFCURVE",
"367 71 CURVE SMOOTH",
"341 71 LINE SMOOTH",
"291 71 OFFCURVE",
"268 72 OFFCURVE",
"241 76 CURVE",
"243 97 OFFCURVE",
"253 152 OFFCURVE",
"264 202 CURVE SMOOTH",
"304 390 LINE SMOOTH",
"314 437 OFFCURVE",
"328 499 OFFCURVE",
"334 519 CURVE",
"348 521 OFFCURVE",
"377 522 OFFCURVE",
"403 522 CURVE SMOOTH",
"455 522 LINE SMOOTH",
"471 522 OFFCURVE",
"483 521 OFFCURVE",
"504 517 CURVE",
"518 428 LINE",
"587 435 LINE",
"595 593 LINE",
"562 593 OFFCURVE",
"458 587 OFFCURVE",
"408 587 CURVE SMOOTH",
"114 587 LINE",
"98 530 LINE",
"161 513 LINE",
"158 490 OFFCURVE",
"148 436 OFFCURVE",
"132 358 CURVE SMOOTH",
"106 235 LINE SMOOTH",
"90 159 OFFCURVE",
"72 93 OFFCURVE",
"66 76 CURVE",
"-4 57 LINE",
"-15 0 LINE",
"336 0 LINE SMOOTH",
"387 0 OFFCURVE",
"469 -6 OFFCURVE",
"500 -7 CURVE"
);
},
{
closed = 1;
nodes = (
"465 196 LINE",
"509 404 LINE",
"444 404 LINE",
"422 339 LINE",
"413 341 OFFCURVE",
"387 338 OFFCURVE",
"359 338 CURVE SMOOTH",
"321 338 LINE SMOOTH",
"294 338 OFFCURVE",
"272 341 OFFCURVE",
"267 342 CURVE",
"250 261 LINE",
"255 262 OFFCURVE",
"278 264 OFFCURVE",
"305 264 CURVE SMOOTH",
"342 264 LINE SMOOTH",
"371 264 OFFCURVE",
"395 262 OFFCURVE",
"405 263 CURVE",
"400 196 LINE"
);
}
);
};
color = -1;
layerId = "24976ABE-9171-461B-B338-52EF76BD92C7";
paths = (
{
closed = 1;
nodes = (
"579 166 LINE",
"512 178 LINE",
"439 75 LINE",
"418 72 OFFCURVE",
"402 71 OFFCURVE",
"366 71 CURVE SMOOTH",
"340 71 LINE SMOOTH",
"290 71 OFFCURVE",
"267 72 OFFCURVE",
"240 76 CURVE",
"242 97 OFFCURVE",
"252 152 OFFCURVE",
"263 202 CURVE SMOOTH",
"303 390 LINE SMOOTH",
"313 437 OFFCURVE",
"327 499 OFFCURVE",
"333 519 CURVE",
"347 521 OFFCURVE",
"376 522 OFFCURVE",
"402 522 CURVE SMOOTH",
"454 522 LINE SMOOTH",
"470 522 OFFCURVE",
"482 521 OFFCURVE",
"503 517 CURVE",
"517 428 LINE",
"586 435 LINE",
"594 593 LINE",
"551 590 OFFCURVE",
"457 587 OFFCURVE",
"407 587 CURVE SMOOTH",
"114 587 LINE",
"99 530 LINE",
"160 513 LINE",
"157 490 OFFCURVE",
"147 436 OFFCURVE",
"131 358 CURVE SMOOTH",
"105 235 LINE SMOOTH",
"89 159 OFFCURVE",
"71 93 OFFCURVE",
"65 76 CURVE",
"-4 57 LINE",
"-13 0 LINE",
"335 0 LINE SMOOTH",
"386 0 OFFCURVE",
"458 -3 OFFCURVE",
"499 -7 CURVE"
);
},
{
closed = 1;
nodes = (
"464 196 LINE",
"508 404 LINE",
"443 404 LINE",
"421 340 LINE",
"412 339 OFFCURVE",
"386 338 OFFCURVE",
"358 338 CURVE SMOOTH",
"320 338 LINE SMOOTH",
"293 338 OFFCURVE",
"271 341 OFFCURVE",
"266 342 CURVE",
"249 261 LINE",
"254 262 OFFCURVE",
"277 264 OFFCURVE",
"304 264 CURVE SMOOTH",
"341 264 LINE SMOOTH",
"370 264 OFFCURVE",
"392 264 OFFCURVE",
"404 263 CURVE",
"399 196 LINE"
);
}
);
width = 603;
},
{
anchors = (
{
name = bottom;
position = "{235.642, 0}";
},
{
name = ogonek;
position = "{442.926, 0}";
},
{
name = top;
position = "{359.642, 587}";
},
{
name = topleft;
position = "{105, 587}";
}
);
color = -1;
layerId = "8B4ACB86-485E-4983-BA11-7AC678D884D1";
paths = (
{
closed = 1;
nodes = (
"509.724 140.752 LINE",
"462.66 149.596 LINE",
"395.55 54.486 LINE",
"385.018 51.486 OFFCURVE",
"367.504 50.486 OFFCURVE",
"324.55 50.486 CURVE SMOOTH",
"225.962 50.486 LINE SMOOTH",
"200.21 50.486 OFFCURVE",
"181.944 51.486 OFFCURVE",
"163.99 53.908 CURVE",
"165.99 71.22 OFFCURVE",
"182.724 156.734 OFFCURVE",
"191.146 197.266 CURVE SMOOTH",
"231.146 385.266 LINE SMOOTH",
"241.146 432.266 OFFCURVE",
"263.036 527.404 OFFCURVE",
"266.302 536.358 CURVE",
"284.036 538.358 OFFCURVE",
"301.99 539.358 OFFCURVE",
"326.99 539.358 CURVE SMOOTH",
"441.532 539.358 LINE SMOOTH",
"455.954 539.358 OFFCURVE",
"469.532 538.358 OFFCURVE",
"478.908 536.514 CURVE",
"491.908 452.67 LINE",
"538.238 457.67 LINE",
"549.394 591.422 LINE",
"515.44 588.844 OFFCURVE",
"477.67 587 OFFCURVE",
"450.34 587 CURVE SMOOTH",
"129.358 587 LINE",
"118.67 549.514 LINE",
"176.514 535.67 LINE",
"175.092 517.826 OFFCURVE",
"168.248 476.028 OFFCURVE",
"149.092 385.826 CURVE SMOOTH",
"108.89 196.128 LINE SMOOTH",
"89.734 107.926 OFFCURVE",
"81.202 70.908 OFFCURVE",
"75.202 51.33 CURVE",
"10.936 37.486 LINE",
"5.514 0 LINE",
"353.092 0 LINE SMOOTH",
"378.266 0 OFFCURVE",
"410.816 -1.844 OFFCURVE",
"444.504 -5.422 CURVE"
);
},
{
closed = 1;
nodes = (
"414.66 204.89 LINE",
"455.504 399.266 LINE",
"413.174 399.266 LINE",
"385.862 329.532 LINE",
"376.862 327.954 OFFCURVE",
"360.908 326.954 OFFCURVE",
"339.22 326.954 CURVE SMOOTH",
"264.348 326.954 LINE SMOOTH",
"246.394 326.954 OFFCURVE",
"226.394 327.376 OFFCURVE",
"205.192 328.376 CURVE",
"193.348 274.624 LINE",
"215.706 275.624 OFFCURVE",
"236.706 277.046 OFFCURVE",
"254.66 277.046 CURVE SMOOTH",
"330.11 277.046 LINE SMOOTH",
"351.798 277.046 OFFCURVE",
"367.33 275.046 OFFCURVE",
"374.752 273.468 CURVE",
"372.33 204.89 LINE"
);
}
);
width = 556.394;
}
);
leftKerningGroup = H;
note = E;
rightKerningGroup = E;
unicode = 0045;
},
{
glyphname = Eogonek;
lastChange = "2018-11-30 12:57:44 +0000";
layers = (
{
anchors = (
{
name = top;
position = "{355, 587}";
},
{
name = topleft;
position = "{105, 587}";
}
);
background = {
anchors = (
{
name = top;
position = "{955, 587}";
},
{
name = topleft;
position = "{705, 587}";
}
);
paths = (
{
closed = 1;
nodes = (
"1003 208 LINE",
"1043 398 LINE",
"1007 398 LINE",
"978 327 LINE",
"969 324 OFFCURVE",
"956 324 OFFCURVE",
"936 324 CURVE SMOOTH",
"851 324 LINE SMOOTH",
"836 324 OFFCURVE",
"816 324 OFFCURVE",
"791 325 CURVE",
"780 279 LINE",
"807 280 OFFCURVE",
"828 281 OFFCURVE",
"843 281 CURVE SMOOTH",
"929 281 LINE SMOOTH",
"949 281 OFFCURVE",
"962 280 OFFCURVE",
"969 277 CURVE",
"967 208 LINE"
);
},
{
closed = 1;
nodes = (
"824 431 OFFCURVE",
"848 535 OFFCURVE",
"850 541 CURVE",
"869 543 OFFCURVE",
"884 544 OFFCURVE",
"909 544 CURVE SMOOTH",
"1040 544 LINE SMOOTH",
"1054 544 OFFCURVE",
"1068 543 OFFCURVE",
"1074 542 CURVE",
"1087 459 LINE",
"1127 464 LINE",
"1139 591 LINE",
"1098 587 OFFCURVE",
"1085 587 OFFCURVE",
"1064 587 CURVE SMOOTH",
"734 587 LINE",
"725 555 LINE",
"782 542 LINE",
"782 525 OFFCURVE",
"776 487 OFFCURVE",
"756 393 CURVE SMOOTH",
"711 186 LINE SMOOTH",
"691 94 OFFCURVE",
"685 65 OFFCURVE",
"679 45 CURVE",
"617 32 LINE",
"612 0 LINE",
"975 0 LINE",
"901 -38 OFFCURVE",
"842 -91 OFFCURVE",
"842 -152 CURVE SMOOTH",
"842 -190 OFFCURVE",
"868 -223 OFFCURVE",
"933 -223 CURVE SMOOTH",
"970 -223 OFFCURVE",
"1011 -205 OFFCURVE",
"1043 -173 CURVE",
"1028 -152 LINE",
"1002 -175 OFFCURVE",
"977 -187 OFFCURVE",
"952 -187 CURVE SMOOTH",
"919 -187 OFFCURVE",
"902 -170 OFFCURVE",
"902 -141 CURVE SMOOTH",
"902 -85 OFFCURVE",
"968 -29 OFFCURVE",
"1033 0 CURVE",
"1093 134 LINE",
"1051 142 LINE",
"986 49 LINE",
"978 46 OFFCURVE",
"955 45 OFFCURVE",
"915 45 CURVE SMOOTH",
"797 45 LINE SMOOTH",
"778 45 OFFCURVE",
"761 46 OFFCURVE",
"744 48 CURVE",
"746 57 OFFCURVE",
"766 158 OFFCURVE",
"774 196 CURVE SMOOTH",
"814 384 LINE SMOOTH"
);
},
{
closed = 1;
nodes = (
"493 134 LINE",
"451 142 LINE",
"386 49 LINE",
"378 46 OFFCURVE",
"355 45 OFFCURVE",
"315 45 CURVE SMOOTH",
"197 45 LINE SMOOTH",
"178 45 OFFCURVE",
"161 46 OFFCURVE",
"146 48 CURVE",
"148 67 OFFCURVE",
"166 158 OFFCURVE",
"174 196 CURVE SMOOTH",
"214 384 LINE SMOOTH",
"224 431 OFFCURVE",
"248 535 OFFCURVE",
"250 541 CURVE",
"269 543 OFFCURVE",
"284 544 OFFCURVE",
"309 544 CURVE SMOOTH",
"440 544 LINE SMOOTH",
"454 544 OFFCURVE",
"468 543 OFFCURVE",
"474 542 CURVE",
"487 459 LINE",
"527 464 LINE",
"539 591 LINE",
"508 588 OFFCURVE",
"485 587 OFFCURVE",
"464 587 CURVE SMOOTH",
"134 587 LINE",
"125 555 LINE",
"182 542 LINE",
"181 525 OFFCURVE",
"175 487 OFFCURVE",
"155 393 CURVE SMOOTH",
"111 186 LINE SMOOTH",
"91 94 OFFCURVE",
"85 65 OFFCURVE",
"79 45 CURVE",
"16 32 LINE",
"11 0 LINE",
"360 0 LINE SMOOTH",
"378 0 OFFCURVE",
"400 -1 OFFCURVE",
"432 -5 CURVE"
);
},
{
closed = 1;
nodes = (
"403 207 LINE",
"443 398 LINE",
"407 398 LINE",
"378 327 LINE",
"369 325 OFFCURVE",
"356 324 OFFCURVE",
"336 324 CURVE SMOOTH",
"251 324 LINE SMOOTH",
"236 324 OFFCURVE",
"216 324 OFFCURVE",
"191 325 CURVE",
"180 278 LINE",
"207 279 OFFCURVE",
"228 280 OFFCURVE",
"243 280 CURVE SMOOTH",
"329 280 LINE SMOOTH",
"349 280 OFFCURVE",
"362 278 OFFCURVE",
"369 276 CURVE",
"367 207 LINE"
);
}
);
};
color = -1;
layerId = "D9A1C40A-2361-406B-8D3E-8FA7FBCB82BD";
paths = (
{
closed = 1;
nodes = (
"402 207 LINE",
"442 398 LINE",
"406 398 LINE",
"377 327 LINE",
"368 325 OFFCURVE",
"355 324 OFFCURVE",
"335 324 CURVE SMOOTH",
"250 324 LINE SMOOTH",
"235 324 OFFCURVE",
"215 324 OFFCURVE",
"190 325 CURVE",
"179 278 LINE",
"206 279 OFFCURVE",
"227 280 OFFCURVE",
"242 280 CURVE SMOOTH",
"328 280 LINE SMOOTH",
"348 280 OFFCURVE",
"361 278 OFFCURVE",
"368 276 CURVE",
"366 207 LINE"
);
},
{
closed = 1;
nodes = (
"223 431 OFFCURVE",
"247 535 OFFCURVE",
"249 541 CURVE",
"268 543 OFFCURVE",
"283 544 OFFCURVE",
"308 544 CURVE SMOOTH",
"439 544 LINE SMOOTH",
"453 544 OFFCURVE",
"467 543 OFFCURVE",
"473 542 CURVE",
"486 459 LINE",
"526 464 LINE",
"538 591 LINE",
"497 587 OFFCURVE",
"484 587 OFFCURVE",
"463 587 CURVE SMOOTH",
"134 587 LINE",
"125 555 LINE",
"182 542 LINE",
"181 525 OFFCURVE",
"175 487 OFFCURVE",
"155 393 CURVE SMOOTH",
"111 186 LINE SMOOTH",
"91 94 OFFCURVE",
"85 65 OFFCURVE",
"79 45 CURVE",
"16 32 LINE",
"11 0 LINE",
"374 0 LINE",
"300 -38 OFFCURVE",
"241 -91 OFFCURVE",
"241 -152 CURVE SMOOTH",
"241 -190 OFFCURVE",
"267 -223 OFFCURVE",
"332 -223 CURVE SMOOTH",
"369 -223 OFFCURVE",
"410 -205 OFFCURVE",
"442 -173 CURVE",
"427 -152 LINE",
"401 -175 OFFCURVE",
"376 -187 OFFCURVE",
"351 -187 CURVE SMOOTH",
"318 -187 OFFCURVE",
"301 -170 OFFCURVE",
"301 -141 CURVE SMOOTH",
"301 -85 OFFCURVE",
"367 -29 OFFCURVE",
"433 0 CURVE",
"492 134 LINE",
"450 142 LINE",
"385 49 LINE",
"377 46 OFFCURVE",
"354 45 OFFCURVE",
"314 45 CURVE SMOOTH",
"196 45 LINE SMOOTH",
"177 45 OFFCURVE",
"162 46 OFFCURVE",
"145 48 CURVE",
"147 67 OFFCURVE",
"165 157 OFFCURVE",
"173 195 CURVE SMOOTH",
"213 384 LINE SMOOTH"
);
}
);
width = 545;
},
{
anchors = (
{
name = top;
position = "{380, 587}";
},
{
name = topleft;
position = "{111, 587}";
}
);
background = {
anchors = (
{
name = top;
position = "{382, 587}";
},
{
name = topleft;
position = "{111, 587}";
}
);
paths = (
{
closed = 1;
nodes = (
"466 196 LINE",
"510 404 LINE",
"445 404 LINE",
"423 339 LINE",
"414 341 OFFCURVE",
"388 338 OFFCURVE",
"360 338 CURVE SMOOTH",
"322 338 LINE SMOOTH",
"295 338 OFFCURVE",
"273 341 OFFCURVE",
"268 342 CURVE",
"251 261 LINE",
"256 262 OFFCURVE",
"279 264 OFFCURVE",
"306 264 CURVE SMOOTH",
"343 264 LINE SMOOTH",
"372 264 OFFCURVE",
"396 262 OFFCURVE",
"406 263 CURVE",
"401 196 LINE"
);
},
{
closed = 1;
nodes = (
"315 437 OFFCURVE",
"329 499 OFFCURVE",
"335 519 CURVE",
"349 521 OFFCURVE",
"378 522 OFFCURVE",
"404 522 CURVE SMOOTH",
"456 522 LINE SMOOTH",
"472 522 OFFCURVE",
"484 521 OFFCURVE",
"505 517 CURVE",
"519 428 LINE",
"588 435 LINE",
"596 593 LINE",
"563 593 OFFCURVE",
"459 587 OFFCURVE",
"409 587 CURVE SMOOTH",
"115 587 LINE",
"99 530 LINE",
"162 513 LINE",
"159 490 OFFCURVE",
"149 436 OFFCURVE",
"133 358 CURVE SMOOTH",
"107 235 LINE SMOOTH",
"91 159 OFFCURVE",
"73 93 OFFCURVE",
"67 76 CURVE",
"-3 57 LINE",
"-14 0 LINE",
"417 0 LINE",
"324 -40 OFFCURVE",
"279 -85 OFFCURVE",
"279 -131 CURVE SMOOTH",
"279 -188 OFFCURVE",
"339 -223 OFFCURVE",
"404 -223 CURVE SMOOTH",
"455 -223 OFFCURVE",
"496 -205 OFFCURVE",
"528 -173 CURVE",
"508 -127 LINE",
"483 -150 OFFCURVE",
"457 -161 OFFCURVE",
"436 -161 CURVE SMOOTH",
"414 -161 OFFCURVE",
"393 -148 OFFCURVE",
"393 -119 CURVE SMOOTH",
"393 -85 OFFCURVE",
"421 -47 OFFCURVE",
"504 0 CURVE",
"581 166 LINE",
"514 178 LINE",
"441 75 LINE",
"420 71 OFFCURVE",
"424 71 OFFCURVE",
"368 71 CURVE SMOOTH",
"342 71 LINE SMOOTH",
"292 71 OFFCURVE",
"269 72 OFFCURVE",
"242 76 CURVE",
"244 97 OFFCURVE",
"254 152 OFFCURVE",
"265 202 CURVE SMOOTH",
"305 390 LINE SMOOTH"
);
}
);
};
color = -1;
layerId = "24976ABE-9171-461B-B338-52EF76BD92C7";
paths = (
{
closed = 1;
nodes = (
"464 196 LINE",
"508 404 LINE",
"443 404 LINE",
"421 340 LINE",
"412 339 OFFCURVE",
"386 338 OFFCURVE",
"358 338 CURVE SMOOTH",
"320 338 LINE SMOOTH",
"293 338 OFFCURVE",
"271 341 OFFCURVE",
"266 342 CURVE",
"249 261 LINE",
"254 262 OFFCURVE",
"277 264 OFFCURVE",
"304 264 CURVE SMOOTH",
"341 264 LINE SMOOTH",
"370 264 OFFCURVE",
"392 264 OFFCURVE",
"404 263 CURVE",
"399 196 LINE"
);
},
{
closed = 1;
nodes = (
"313 437 OFFCURVE",
"327 499 OFFCURVE",
"333 519 CURVE",
"347 521 OFFCURVE",
"376 522 OFFCURVE",
"402 522 CURVE SMOOTH",
"454 522 LINE SMOOTH",
"470 522 OFFCURVE",
"482 521 OFFCURVE",
"503 517 CURVE",
"517 428 LINE",
"586 435 LINE",
"594 593 LINE",
"551 590 OFFCURVE",
"457 587 OFFCURVE",
"407 587 CURVE SMOOTH",
"114 587 LINE",
"99 530 LINE",
"160 513 LINE",
"157 490 OFFCURVE",
"147 436 OFFCURVE",
"131 358 CURVE SMOOTH",
"105 235 LINE SMOOTH",
"89 159 OFFCURVE",
"71 93 OFFCURVE",
"65 76 CURVE",
"-4 57 LINE",
"-13 0 LINE",
"416 0 LINE",
"323 -40 OFFCURVE",
"278 -85 OFFCURVE",
"278 -131 CURVE SMOOTH",
"278 -188 OFFCURVE",
"338 -223 OFFCURVE",
"403 -223 CURVE SMOOTH",
"454 -223 OFFCURVE",
"495 -205 OFFCURVE",
"527 -173 CURVE",
"507 -127 LINE",
"482 -150 OFFCURVE",
"456 -161 OFFCURVE",
"435 -161 CURVE SMOOTH",
"413 -161 OFFCURVE",
"392 -148 OFFCURVE",
"392 -119 CURVE SMOOTH",
"392 -85 OFFCURVE",
"420 -47 OFFCURVE",
"503 0 CURVE",
"579 166 LINE",
"512 178 LINE",
"439 75 LINE",
"418 72 OFFCURVE",
"402 71 OFFCURVE",
"366 71 CURVE SMOOTH",
"340 71 LINE SMOOTH",
"290 71 OFFCURVE",
"267 72 OFFCURVE",
"240 76 CURVE",
"242 97 OFFCURVE",
"252 152 OFFCURVE",
"263 202 CURVE SMOOTH",
"303 390 LINE SMOOTH"
);
}
);
width = 603;
},
{
anchors = (
{
name = top;
position = "{359.642, 587}";
},
{
name = topleft;
position = "{105, 587}";
}
);
color = -1;
layerId = "8B4ACB86-485E-4983-BA11-7AC678D884D1";
paths = (
{
closed = 1;
nodes = (
"414.66 204.89 LINE",
"455.504 399.266 LINE",
"413.174 399.266 LINE",
"385.862 329.532 LINE",
"376.862 327.954 OFFCURVE",
"360.908 326.954 OFFCURVE",
"339.22 326.954 CURVE SMOOTH",
"264.348 326.954 LINE SMOOTH",
"246.394 326.954 OFFCURVE",
"226.394 327.376 OFFCURVE",
"205.192 328.376 CURVE",
"193.348 274.624 LINE",
"215.706 275.624 OFFCURVE",
"236.706 277.046 OFFCURVE",
"254.66 277.046 CURVE SMOOTH",
"330.11 277.046 LINE SMOOTH",
"351.798 277.046 OFFCURVE",
"367.33 275.046 OFFCURVE",
"374.752 273.468 CURVE",
"372.33 204.89 LINE"
);
},
{
closed = 1;
nodes = (
"241.146 432.266 OFFCURVE",
"263.036 527.404 OFFCURVE",
"266.302 536.358 CURVE",
"284.036 538.358 OFFCURVE",
"301.99 539.358 OFFCURVE",
"326.99 539.358 CURVE SMOOTH",
"441.532 539.358 LINE SMOOTH",
"455.954 539.358 OFFCURVE",
"469.532 538.358 OFFCURVE",
"478.908 536.514 CURVE",
"491.908 452.67 LINE",
"538.238 457.67 LINE",
"549.394 591.422 LINE",
"509.66 588.266 OFFCURVE",
"477.67 587 OFFCURVE",
"450.34 587 CURVE SMOOTH",
"129.358 587 LINE",
"118.67 549.514 LINE",
"176.514 535.67 LINE",
"175.092 517.826 OFFCURVE",
"168.248 476.028 OFFCURVE",
"149.092 385.826 CURVE SMOOTH",
"108.89 196.128 LINE SMOOTH",
"89.734 107.926 OFFCURVE",
"81.202 70.908 OFFCURVE",
"75.202 51.33 CURVE",
"10.936 37.486 LINE",
"5.514 0 LINE",
"382.018 0 LINE",
"303.798 -38.422 OFFCURVE",
"247.752 -89.734 OFFCURVE",
"247.752 -147.358 CURVE SMOOTH",
"247.752 -189.578 OFFCURVE",
"281.348 -223 OFFCURVE",
"346.348 -223 CURVE SMOOTH",
"386.302 -223 OFFCURVE",
"427.302 -205 OFFCURVE",
"459.302 -173 CURVE",
"443.036 -146.514 LINE",
"417.036 -169.514 OFFCURVE",
"392.036 -181.514 OFFCURVE",
"367.88 -181.514 CURVE SMOOTH",
"336.99 -181.514 OFFCURVE",
"319.146 -165.358 OFFCURVE",
"319.146 -136.358 CURVE SMOOTH",
"319.146 -85 OFFCURVE",
"377.55 -32.798 OFFCURVE",
"446.926 0 CURVE",
"509.724 140.752 LINE",
"462.66 149.596 LINE",
"395.55 54.486 LINE",
"385.018 51.486 OFFCURVE",
"367.504 50.486 OFFCURVE",
"324.55 50.486 CURVE SMOOTH",
"225.962 50.486 LINE SMOOTH",
"200.21 50.486 OFFCURVE",
"183.1 51.486 OFFCURVE",
"163.99 53.908 CURVE",
"165.99 71.22 OFFCURVE",
"182.724 156.156 OFFCURVE",
"191.146 196.688 CURVE SMOOTH",
"231.146 385.266 LINE SMOOTH"
);
}
);
width = 556.394;
}
);
leftKerningGroup = H;
leftMetricsKey = E;
widthMetricsKey = E;
note = Eogonek;
rightKerningGroup = E;
unicode = 0118;
},
{
glyphname = F;
lastChange = "2018-11-30 12:57:44 +0000";
layers = (
{
anchors = (
{
name = bottom;
position = "{106, 0}";
},
{
name = top;
position = "{341, 587}";
}
);
background = {
anchors = (
{
name = bottom;
position = "{105.964, 0}";
},
{
name = top;
position = "{341, 587}";
}
);
paths = (
{
closed = 1;
nodes = (
"215.5 0 LINE",
"225.107 34.429 LINE",
"147.107 45.036 LINE",
"149.107 63.036 OFFCURVE",
"151.25 87.143 OFFCURVE",
"177.286 209.536 CURVE",
"212.107 377.107 LINE",
"217.464 400.893 OFFCURVE",
"248.75 534.893 OFFCURVE",
"251.286 542.036 CURVE",
"264.821 542.107 OFFCURVE",
"296.143 544.107 OFFCURVE",
"314.75 544.107 CURVE SMOOTH",
"440.536 544.107 LINE SMOOTH",
"455.071 544.107 OFFCURVE",
"468.536 543.107 OFFCURVE",
"472.357 541.571 CURVE",
"484.893 458.964 LINE",
"525.393 463.5 LINE",
"537.321 590.536 LINE",
"495.464 586.607 OFFCURVE",
"481.893 587 OFFCURVE",
"461.857 587 CURVE SMOOTH",
"134.107 587 LINE",
"125.964 554.571 LINE",
"182.571 541.5 LINE",
"180.179 518.393 OFFCURVE",
"175.964 486.607 OFFCURVE",
"156.036 392.893 CURVE",
"110.857 185.857 LINE",
"90.929 94.143 OFFCURVE",
"84.714 64.5 OFFCURVE",
"78.714 45.036 CURVE",
"22.429 32.429 LINE",
"17.821 0 LINE"
);
},
{
closed = 1;
nodes = (
"398.929 202.179 LINE",
"440 394.536 LINE",
"403.5 394.536 LINE",
"375.571 325.143 LINE",
"366.571 320.75 OFFCURVE",
"355.821 320.679 OFFCURVE",
"328.821 320.679 CURVE SMOOTH",
"234.75 320.679 LINE SMOOTH",
"219.536 320.679 OFFCURVE",
"202.929 322.214 OFFCURVE",
"185.536 323.214 CURVE",
"176.857 277.571 LINE",
"202.107 278.571 OFFCURVE",
"215.786 279.107 OFFCURVE",
"225.143 279.107 CURVE SMOOTH",
"319.214 279.107 LINE SMOOTH",
"352.393 279.107 OFFCURVE",
"361.679 278.107 OFFCURVE",
"364.964 274.643 CURVE",
"362.429 202.179 LINE"
);
}
);
};
color = -1;
layerId = "D9A1C40A-2361-406B-8D3E-8FA7FBCB82BD";
paths = (
{
closed = 1;
nodes = (
"215 0 LINE",
"224 34 LINE",
"146 45 LINE",
"148 63 OFFCURVE",
"150 87 OFFCURVE",
"176 210 CURVE",
"211 377 LINE",
"216 401 OFFCURVE",
"248 535 OFFCURVE",
"250 542 CURVE",
"264 542 OFFCURVE",
"295 544 OFFCURVE",
"314 544 CURVE SMOOTH",
"440 544 LINE SMOOTH",
"454 544 OFFCURVE",
"468 543 OFFCURVE",
"471 542 CURVE",
"484 459 LINE",
"524 464 LINE",
"536 591 LINE",
"494 587 OFFCURVE",
"481 587 OFFCURVE",
"461 587 CURVE SMOOTH",
"136 587 LINE",
"127 555 LINE",
"184 542 LINE",
"181 518 OFFCURVE",
"175 487 OFFCURVE",
"155 393 CURVE",
"111 186 LINE",
"91 94 OFFCURVE",
"85 65 OFFCURVE",
"79 45 CURVE",
"21 32 LINE",
"16 0 LINE"
);
},
{
closed = 1;
nodes = (
"398 200 LINE",
"439 395 LINE",
"403 395 LINE",
"375 325 LINE",
"366 323 OFFCURVE",
"355 321 OFFCURVE",
"328 321 CURVE SMOOTH",
"234 321 LINE SMOOTH",
"219 321 OFFCURVE",
"202 322 OFFCURVE",
"185 323 CURVE",
"176 276 LINE",
"201 277 OFFCURVE",
"215 277 OFFCURVE",
"224 277 CURVE SMOOTH",
"318 277 LINE SMOOTH",
"341 277 OFFCURVE",
"357 276 OFFCURVE",
"364 274 CURVE",
"361 200 LINE"
);
}
);
width = 492;
},
{
anchors = (
{
name = bottom;
position = "{135, 0}";
},
{
name = top;
position = "{344, 587}";
}
);
background = {
anchors = (
{
name = bottom;
position = "{136, 0}";
},
{
name = top;
position = "{345, 587}";
}
);
paths = (
{
closed = 1;
nodes = (
"305 0 LINE",
"321 59 LINE",
"243 76 LINE",
"245 94 OFFCURVE",
"255 152 OFFCURVE",
"255 155 CURVE",
"308 412 LINE",
"333 537 OFFCURVE",
"324 500 OFFCURVE",
"329 516 CURVE",
"344 520 OFFCURVE",
"365 522 OFFCURVE",
"390 522 CURVE SMOOTH",
"447 522 LINE SMOOTH",
"463 522 OFFCURVE",
"475 521 OFFCURVE",
"497 517 CURVE",
"511 428 LINE",
"580 435 LINE",
"588 593 LINE",
"554 593 OFFCURVE",
"451 587 OFFCURVE",
"401 587 CURVE SMOOTH",
"116 587 LINE",
"99 530 LINE",
"162 513 LINE",
"166 512 OFFCURVE",
"149 436 OFFCURVE",
"134 358 CURVE",
"107 235 LINE",
"91 159 OFFCURVE",
"72 93 OFFCURVE",
"66 76 CURVE",
"-6 57 LINE",
"-17 0 LINE"
);
},
{
closed = 1;
nodes = (
"456 184 LINE",
"501 397 LINE",
"436 397 LINE",
"412 333 LINE",
"403 335 OFFCURVE",
"378 331 OFFCURVE",
"351 331 CURVE SMOOTH",
"310 331 LINE SMOOTH",
"283 331 OFFCURVE",
"260 334 OFFCURVE",
"249 335 CURVE",
"230 253 LINE",
"241 254 OFFCURVE",
"265 257 OFFCURVE",
"294 257 CURVE SMOOTH",
"335 257 LINE SMOOTH",
"350 257 OFFCURVE",
"376 256 OFFCURVE",
"395 254 CURVE",
"391 184 LINE"
);
}
);
};
color = -1;
layerId = "24976ABE-9171-461B-B338-52EF76BD92C7";
paths = (
{
closed = 1;
nodes = (
"302 0 LINE",
"318 59 LINE",
"240 76 LINE",
"242 94 OFFCURVE",
"249 132 OFFCURVE",
"253 155 CURVE",
"307 412 LINE",
"318 468 OFFCURVE",
"324 500 OFFCURVE",
"328 516 CURVE",
"343 520 OFFCURVE",
"364 522 OFFCURVE",
"389 522 CURVE SMOOTH",
"446 522 LINE SMOOTH",
"462 522 OFFCURVE",
"474 521 OFFCURVE",
"496 517 CURVE",
"510 428 LINE",
"579 435 LINE",
"587 593 LINE",
"543 590 OFFCURVE",
"450 587 OFFCURVE",
"400 587 CURVE SMOOTH",
"115 587 LINE",
"100 530 LINE",
"161 513 LINE",
"160 492 OFFCURVE",
"148 436 OFFCURVE",
"133 358 CURVE",
"106 235 LINE",
"90 159 OFFCURVE",
"71 93 OFFCURVE",
"65 76 CURVE",
"-1 57 LINE",
"-10 0 LINE"
);
},
{
closed = 1;
nodes = (
"455 184 LINE",
"500 397 LINE",
"435 397 LINE",
"411 334 LINE",
"394 332 OFFCURVE",
"377 331 OFFCURVE",
"350 331 CURVE SMOOTH",
"309 331 LINE SMOOTH",
"282 331 OFFCURVE",
"259 334 OFFCURVE",
"248 335 CURVE",
"229 253 LINE",
"240 254 OFFCURVE",
"264 257 OFFCURVE",
"293 257 CURVE SMOOTH",
"334 257 LINE SMOOTH",
"349 257 OFFCURVE",
"375 256 OFFCURVE",
"394 254 CURVE",
"390 184 LINE"
);
}
);
width = 566;
},
{
anchors = (
{
name = bottom;
position = "{111.486, 0}";
},
{
name = top;
position = "{341, 587}";
}
);
color = -1;
layerId = "8B4ACB86-485E-4983-BA11-7AC678D884D1";
paths = (
{
closed = 1;
nodes = (
"233.146 0 LINE",
"243.834 39.486 LINE",
"165.834 51.33 LINE",
"167.834 69.33 OFFCURVE",
"171.522 100.926 OFFCURVE",
"192.036 198.184 CURVE",
"230.834 384.174 LINE",
"240.054 429.696 OFFCURVE",
"263.192 527.826 OFFCURVE",
"266.036 536.514 CURVE",
"280.036 537.358 OFFCURVE",
"309.348 539.358 OFFCURVE",
"329.192 539.358 CURVE SMOOTH",
"440.844 539.358 LINE SMOOTH",
"455.266 539.358 OFFCURVE",
"468.844 538.358 OFFCURVE",
"476.064 536.514 CURVE",
"489.064 452.67 LINE",
"535.394 457.67 LINE",
"546.55 591.422 LINE",
"506.238 588.266 OFFCURVE",
"474.248 587 OFFCURVE",
"447.496 587 CURVE SMOOTH",
"130.936 587 LINE",
"120.248 549.514 LINE",
"178.092 535.67 LINE",
"176.358 516.734 OFFCURVE",
"169.092 476.028 OFFCURVE",
"149.936 385.826 CURVE",
"109.312 196.128 LINE",
"90.156 107.926 OFFCURVE",
"81.624 70.908 OFFCURVE",
"75.624 51.33 CURVE",
"16.358 37.486 LINE",
"10.514 0 LINE"
);
},
{
closed = 1;
nodes = (
"409.394 197.046 LINE",
"451.66 395.422 LINE",
"409.33 395.422 LINE",
"382.174 326.688 LINE",
"373.174 325.11 OFFCURVE",
"359.22 323.11 OFFCURVE",
"332.22 323.11 CURVE SMOOTH",
"249.192 323.11 LINE SMOOTH",
"231.66 323.11 OFFCURVE",
"213.394 324.532 OFFCURVE",
"197.66 325.532 CURVE",
"186.55 271.358 LINE",
"208.596 272.358 OFFCURVE",
"224.706 273.202 OFFCURVE",
"238.348 273.202 CURVE SMOOTH",
"320.954 273.202 LINE SMOOTH",
"344.376 273.202 OFFCURVE",
"361.22 272.202 OFFCURVE",
"369.908 269.78 CURVE",
"366.908 197.046 LINE"
);
}
);
width = 505.504;
}
);
leftKerningGroup = H;
note = F;
rightKerningGroup = F;
unicode = 0046;
},
{
glyphname = G;
lastChange = "2018-11-30 12:57:44 +0000";
layers = (
{
anchors = (
{
name = bottom;
position = "{308, 0}";
},
{
name = top;
position = "{432, 587}";
}
);
background = {
anchors = (
{
name = bottom;
position = "{308, 0}";
},
{
name = top;
position = "{432, 587}";
}
);
paths = (
{
closed = 1;
nodes = (
"392 -9 OFFCURVE",
"481 13 OFFCURVE",
"532 48 CURVE",
"537 75 OFFCURVE",
"542 104 OFFCURVE",
"555 164 CURVE SMOOTH",
"562 203 OFFCURVE",
"568 228 OFFCURVE",
"569 232 CURVE",
"612 242 LINE",
"617 274 LINE",
"449 274 LINE",
"441 240 LINE",
"505 231 LINE",
"504 214 OFFCURVE",
"499 182 OFFCURVE",
"488 131 CURVE SMOOTH",
"466 23 LINE",
"502 82 LINE",
"456 47 OFFCURVE",
"384 35 OFFCURVE",
"344 35 CURVE SMOOTH",
"218 35 OFFCURVE",
"146 110 OFFCURVE",
"146 236 CURVE SMOOTH",
"146 413 OFFCURVE",
"259 552 OFFCURVE",
"428 552 CURVE SMOOTH",
"478 552 OFFCURVE",
"529 541 OFFCURVE",
"554 522 CURVE",
"561 438 LINE",
"601 439 LINE",
"619 565 LINE",
"569 586 OFFCURVE",
"505 596 OFFCURVE",
"446 596 CURVE SMOOTH",
"233 596 OFFCURVE",
"66 431 OFFCURVE",
"66 228 CURVE SMOOTH",
"66 82 OFFCURVE",
"166 -9 OFFCURVE",
"342 -9 CURVE SMOOTH"
);
}
);
};
color = -1;
layerId = "D9A1C40A-2361-406B-8D3E-8FA7FBCB82BD";
paths = (
{
closed = 1;
nodes = (
"392 -9 OFFCURVE",
"481 13 OFFCURVE",
"532 44 CURVE",
"537 75 OFFCURVE",
"543 104 OFFCURVE",
"555 164 CURVE SMOOTH",
"563 203 OFFCURVE",
"568 228 OFFCURVE",
"569 232 CURVE",
"613 242 LINE",
"618 274 LINE",
"451 274 LINE",
"442 240 LINE",
"506 231 LINE",
"505 214 OFFCURVE",
"500 182 OFFCURVE",
"489 131 CURVE SMOOTH",
"466 23 LINE",
"502 82 LINE",
"456 47 OFFCURVE",
"384 35 OFFCURVE",
"344 35 CURVE SMOOTH",
"218 35 OFFCURVE",
"146 110 OFFCURVE",
"146 236 CURVE SMOOTH",
"146 399 OFFCURVE",
"248 552 OFFCURVE",
"428 552 CURVE SMOOTH",
"478 552 OFFCURVE",
"529 541 OFFCURVE",
"554 522 CURVE",
"561 438 LINE",
"601 439 LINE",
"619 565 LINE",
"569 586 OFFCURVE",
"505 596 OFFCURVE",
"446 596 CURVE SMOOTH",
"217 596 OFFCURVE",
"66 418 OFFCURVE",
"66 228 CURVE SMOOTH",
"66 82 OFFCURVE",
"166 -9 OFFCURVE",
"342 -9 CURVE SMOOTH"
);
}
);
width = 644;
},
{
anchors = (
{
name = bottom;
position = "{305, 0}";
},
{
name = top;
position = "{429, 587}";
}
);
background = {
anchors = (
{
name = bottom;
position = "{306, 0}";
},
{
name = top;
position = "{430, 587}";
}
);
paths = (
{
closed = 1;
nodes = (
"406 -9 OFFCURVE",
"477 7 OFFCURVE",
"548 40 CURVE",
"557 100 OFFCURVE",
"562 125 OFFCURVE",
"561 124 CURVE SMOOTH",
"568 150 OFFCURVE",
"574 183 OFFCURVE",
"581 201 CURVE",
"639 221 LINE",
"648 278 LINE",
"358 278 LINE",
"341 219 LINE",
"411 200 LINE",
"408 182 OFFCURVE",
"401 135 OFFCURVE",
"397 117 CURVE SMOOTH",
"376 21 LINE",
"406 72 LINE",
"393 72 OFFCURVE",
"388 70 OFFCURVE",
"381 70 CURVE SMOOTH",
"299 70 OFFCURVE",
"244 138 OFFCURVE",
"244 240 CURVE SMOOTH",
"244 346 OFFCURVE",
"301 520 OFFCURVE",
"451 520 CURVE SMOOTH",
"484 520 OFFCURVE",
"504 516 OFFCURVE",
"529 505 CURVE",
"535 409 LINE",
"609 413 LINE",
"646 561 LINE",
"607 582 OFFCURVE",
"537 596 OFFCURVE",
"462 596 CURVE SMOOTH",
"229 596 OFFCURVE",
"50 435 OFFCURVE",
"50 222 CURVE SMOOTH",
"50 76 OFFCURVE",
"158 -9 OFFCURVE",
"336 -9 CURVE SMOOTH"
);
}
);
};
color = -1;
layerId = "24976ABE-9171-461B-B338-52EF76BD92C7";
paths = (
{
closed = 1;
nodes = (
"405 -9 OFFCURVE",
"476 7 OFFCURVE",
"548 40 CURVE",
"551 71 OFFCURVE",
"557 107 OFFCURVE",
"560 124 CURVE SMOOTH",
"565 151 OFFCURVE",
"572 183 OFFCURVE",
"578 201 CURVE",
"635 221 LINE",
"644 278 LINE",
"355 278 LINE",
"340 219 LINE",
"410 200 LINE",
"407 182 OFFCURVE",
"400 135 OFFCURVE",
"396 117 CURVE SMOOTH",
"376 21 LINE",
"418 75 LINE",
"405 73 OFFCURVE",
"391 70 OFFCURVE",
"380 70 CURVE SMOOTH",
"298 70 OFFCURVE",
"243 138 OFFCURVE",
"243 240 CURVE SMOOTH",
"243 346 OFFCURVE",
"300 520 OFFCURVE",
"453 520 CURVE SMOOTH",
"480 520 OFFCURVE",
"503 517 OFFCURVE",
"528 505 CURVE",
"534 409 LINE",
"608 413 LINE",
"645 561 LINE",
"606 582 OFFCURVE",
"536 596 OFFCURVE",
"461 596 CURVE SMOOTH",
"228 596 OFFCURVE",
"49 435 OFFCURVE",
"49 222 CURVE SMOOTH",
"49 76 OFFCURVE",
"157 -9 OFFCURVE",
"335 -9 CURVE SMOOTH"
);
}
);
width = 672;
},
{
anchors = (
{
name = bottom;
position = "{306.734, 0}";
},
{
name = top;
position = "{430.734, 587}";
}
);
color = -1;
layerId = "8B4ACB86-485E-4983-BA11-7AC678D884D1";
paths = (
{
closed = 1;
nodes = (
"394.11 -9 OFFCURVE",
"479.312 11.734 OFFCURVE",
"534.532 44 CURVE",
"540.376 80.486 OFFCURVE",
"545.954 108.642 OFFCURVE",
"555.422 155.56 CURVE SMOOTH",
"563 192.028 OFFCURVE",
"568.422 218.716 OFFCURVE",
"570.688 225.67 CURVE",
"617.642 237.358 LINE",
"623.486 274.844 LINE",
"430.322 274.844 LINE",
"419.634 235.358 LINE",
"484.9 224.67 LINE",
"483.478 207.248 OFFCURVE",
"477.634 171.872 OFFCURVE",
"468.322 128.046 CURVE SMOOTH",
"445.744 22.578 LINE",
"480.9 79.89 LINE",
"441.652 51.22 OFFCURVE",
"384 42.174 OFFCURVE",
"350.752 42.174 CURVE SMOOTH",
"234.036 42.174 OFFCURVE",
"165.834 115.908 OFFCURVE",
"165.834 236.844 CURVE SMOOTH",
"165.834 398.578 OFFCURVE",
"265.724 545.248 OFFCURVE",
"431.798 545.248 CURVE SMOOTH",
"478.422 545.248 OFFCURVE",
"523.092 535.514 OFFCURVE",
"548.092 518.624 CURVE",
"554.67 431.67 LINE",
"601.844 433.514 LINE",
"624.064 564.156 LINE",
"576.174 585.156 OFFCURVE",
"510.908 596 OFFCURVE",
"448.532 596 CURVE SMOOTH",
"222.064 596 OFFCURVE",
"61.78 424.33 OFFCURVE",
"61.78 226.734 CURVE SMOOTH",
"61.78 80.734 OFFCURVE",
"163.468 -9 OFFCURVE",
"339.89 -9 CURVE SMOOTH"
);
}
);
width = 648.22;
}
);
leftKerningGroup = O;
note = G;
rightKerningGroup = G;
unicode = 0047;
},
{
glyphname = H;
lastChange = "2018-11-30 12:57:44 +0000";
layers = (
{
anchors = (
{
name = bottom;
position = "{285, 0}";
},
{
name = center;
position = "{376, 434}";
},
{
name = top;
position = "{409, 587}";
},
{
name = topleft;
position = "{105, 587}";
}
);
background = {
anchors = (
{
name = bottom;
position = "{285.964, 0}";
},
{
name = center;
position = "{376.964, 434}";
},
{
name = top;
position = "{409.964, 587}";
},
{
name = topleft;
position = "{104.536, 587}";
}
);
paths = (
{
closed = 1;
nodes = (
"218.393 281.036 OFFCURVE",
"264.25 281.107 OFFCURVE",
"344.893 281.107 CURVE SMOOTH",
"425.536 281.107 OFFCURVE",
"467.929 281.036 OFFCURVE",
"498.857 277.107 CURVE",
"510.464 327.75 LINE",
"487.714 326.214 OFFCURVE",
"432.143 325.214 OFFCURVE",
"354.036 325.214 CURVE SMOOTH",
"275.929 325.214 OFFCURVE",
"221.821 326.214 OFFCURVE",
"199.071 327.75 CURVE",
"187.464 277.107 LINE"
);
},
{
closed = 1;
nodes = (
"196.036 0 LINE",
"204.179 32.429 LINE",
"147.107 45.036 LINE",
"147.179 60.714 OFFCURVE",
"148.857 81.036 OFFCURVE",
"170.714 185.857 CURVE SMOOTH",
"214.893 392.893 LINE SMOOTH",
"234.821 484.607 OFFCURVE",
"246.893 523.571 OFFCURVE",
"251.429 541.5 CURVE",
"314.036 554.571 LINE",
"319.107 587 LINE",
"133.571 587 LINE",
"125.429 554.571 LINE",
"182.036 541.5 LINE",
"181.5 524.893 OFFCURVE",
"175.429 486.607 OFFCURVE",
"155.5 392.893 CURVE SMOOTH",
"111.321 185.857 LINE SMOOTH",
"91.393 94.143 OFFCURVE",
"85.179 64.5 OFFCURVE",
"79.179 45.036 CURVE",
"17.036 32.429 LINE",
"11.964 0 LINE"
);
},
{
closed = 1;
nodes = (
"562.821 0 LINE",
"570.964 32.429 LINE",
"513.893 45.036 LINE",
"513.964 60.714 OFFCURVE",
"515.643 81.036 OFFCURVE",
"537.5 185.857 CURVE SMOOTH",
"581.679 392.893 LINE SMOOTH",
"601.607 485.071 OFFCURVE",
"613.679 525.429 OFFCURVE",
"618.214 541.5 CURVE",
"680.821 554.571 LINE",
"685.893 587 LINE",
"500.357 587 LINE",
"492.214 554.571 LINE",
"548.821 541.5 LINE",
"548.286 524.893 OFFCURVE",
"542.214 486.607 OFFCURVE",
"522.286 392.893 CURVE SMOOTH",
"478.107 185.857 LINE SMOOTH",
"458.179 94.143 OFFCURVE",
"451.964 64.5 OFFCURVE",
"445.964 45.036 CURVE",
"383.821 32.429 LINE",
"378.75 0 LINE"
);
}
);
};
color = -1;
layerId = "D9A1C40A-2361-406B-8D3E-8FA7FBCB82BD";
paths = (
{
closed = 1;
nodes = (
"218 281 OFFCURVE",
"264 281 OFFCURVE",
"345 281 CURVE SMOOTH",
"426 281 OFFCURVE",
"468 281 OFFCURVE",
"519 277 CURVE",
"530 328 LINE",
"488 326 OFFCURVE",
"432 325 OFFCURVE",
"354 325 CURVE SMOOTH",
"276 325 OFFCURVE",
"222 326 OFFCURVE",
"179 328 CURVE",
"167 277 LINE"
);
},
{
closed = 1;
nodes = (
"195 0 LINE",
"204 32 LINE",
"146 45 LINE",
"147 61 OFFCURVE",
"149 81 OFFCURVE",
"171 186 CURVE SMOOTH",
"215 393 LINE SMOOTH",
"235 485 OFFCURVE",
"247 524 OFFCURVE",
"251 542 CURVE",
"315 555 LINE",
"320 587 LINE",
"134 587 LINE",
"125 555 LINE",
"183 542 LINE",
"182 525 OFFCURVE",
"175 487 OFFCURVE",
"155 393 CURVE SMOOTH",
"111 186 LINE SMOOTH",
"91 94 OFFCURVE",
"85 65 OFFCURVE",
"79 45 CURVE",
"15 32 LINE",
"10 0 LINE"
);
},
{
closed = 1;
nodes = (
"559 0 LINE",
"568 32 LINE",
"510 45 LINE",
"512 61 OFFCURVE",
"514 81 OFFCURVE",
"536 186 CURVE SMOOTH",
"580 393 LINE SMOOTH",
"600 485 OFFCURVE",
"612 525 OFFCURVE",
"616 542 CURVE",
"679 555 LINE",
"684 587 LINE",
"498 587 LINE",
"489 555 LINE",
"547 542 LINE",
"546 525 OFFCURVE",
"540 487 OFFCURVE",
"520 393 CURVE SMOOTH",
"476 186 LINE SMOOTH",
"456 94 OFFCURVE",
"450 65 OFFCURVE",
"444 45 CURVE",
"380 32 LINE",
"375 0 LINE"
);
}
);
width = 659;
},
{
anchors = (
{
name = bottom;
position = "{316, 0}";
},
{
name = center;
position = "{409, 434}";
},
{
name = top;
position = "{442, 587}";
},
{
name = topleft;
position = "{116, 587}";
}
);
background = {
anchors = (
{
name = bottom;
position = "{317, 0}";
},
{
name = center;
position = "{410, 434}";
},
{
name = top;
position = "{443, 587}";
},
{
name = topleft;
position = "{117, 587}";
}
);
paths = (
{
closed = 1;
nodes = (
"274 255 OFFCURVE",
"312 259 OFFCURVE",
"372 259 CURVE SMOOTH",
"433 259 OFFCURVE",
"469 255 OFFCURVE",
"496 255 CURVE",
"513 342 LINE",
"476 338 OFFCURVE",
"445 337 OFFCURVE",
"390 337 CURVE SMOOTH",
"334 337 OFFCURVE",
"302 338 OFFCURVE",
"265 342 CURVE",
"247 255 LINE"
);
},
{
closed = 1;
nodes = (
"288 0 LINE",
"303 57 LINE",
"245 76 LINE",
"249 101 OFFCURVE",
"260 169 OFFCURVE",
"274 235 CURVE SMOOTH",
"300 358 LINE SMOOTH",
"316 434 OFFCURVE",
"332 499 OFFCURVE",
"339 513 CURVE",
"405 530 LINE",
"414 587 LINE",
"117 587 LINE",
"101 530 LINE",
"162 513 LINE",
"159 490 OFFCURVE",
"149 436 OFFCURVE",
"133 358 CURVE SMOOTH",
"107 235 LINE SMOOTH",
"91 159 OFFCURVE",
"73 93 OFFCURVE",
"67 76 CURVE",
"-2 57 LINE",
"-11 0 LINE"
);
},
{
closed = 1;
nodes = (
"644 0 LINE",
"659 57 LINE",
"598 76 LINE",
"602 101 OFFCURVE",
"614 169 OFFCURVE",
"628 235 CURVE SMOOTH",
"654 358 LINE SMOOTH",
"670 432 OFFCURVE",
"686 493 OFFCURVE",
"692 513 CURVE",
"761 530 LINE",
"770 587 LINE",
"472 587 LINE",
"457 530 LINE",
"515 513 LINE",
"513 490 OFFCURVE",
"502 436 OFFCURVE",
"487 358 CURVE SMOOTH",
"461 235 LINE SMOOTH",
"445 159 OFFCURVE",
"426 93 OFFCURVE",
"420 76 CURVE",
"354 57 LINE",
"345 0 LINE"
);
}
);
};
color = -1;
layerId = "24976ABE-9171-461B-B338-52EF76BD92C7";
paths = (
{
closed = 1;
nodes = (
"273 255 OFFCURVE",
"311 259 OFFCURVE",
"371 259 CURVE SMOOTH",
"432 259 OFFCURVE",
"468 255 OFFCURVE",
"495 255 CURVE",
"512 342 LINE",
"475 338 OFFCURVE",
"444 337 OFFCURVE",
"389 337 CURVE SMOOTH",
"333 337 OFFCURVE",
"301 338 OFFCURVE",
"264 342 CURVE",
"246 255 LINE"
);
},
{
closed = 1;
nodes = (
"287 0 LINE",
"302 57 LINE",
"244 76 LINE",
"248 101 OFFCURVE",
"259 169 OFFCURVE",
"273 235 CURVE SMOOTH",
"299 358 LINE SMOOTH",
"315 434 OFFCURVE",
"331 499 OFFCURVE",
"338 513 CURVE",
"404 530 LINE",
"413 587 LINE",
"116 587 LINE",
"100 530 LINE",
"161 513 LINE",
"158 490 OFFCURVE",
"148 436 OFFCURVE",
"132 358 CURVE SMOOTH",
"106 235 LINE SMOOTH",
"90 159 OFFCURVE",
"72 93 OFFCURVE",
"66 76 CURVE",
"-3 57 LINE",
"-12 0 LINE"
);
},
{
closed = 1;
nodes = (
"643 0 LINE",
"658 57 LINE",
"597 76 LINE",
"601 101 OFFCURVE",
"613 169 OFFCURVE",
"627 235 CURVE SMOOTH",
"653 358 LINE SMOOTH",
"669 432 OFFCURVE",
"685 493 OFFCURVE",
"691 513 CURVE",
"760 530 LINE",
"769 587 LINE",
"471 587 LINE",
"456 530 LINE",
"514 513 LINE",
"512 490 OFFCURVE",
"501 436 OFFCURVE",
"486 358 CURVE SMOOTH",
"460 235 LINE SMOOTH",
"444 159 OFFCURVE",
"425 93 OFFCURVE",
"419 76 CURVE",
"353 57 LINE",
"344 0 LINE"
);
}
);
width = 728;
},
{
anchors = (
{
name = bottom;
position = "{290.908, 0}";
},
{
name = center;
position = "{381.908, 434}";
},
{
name = top;
position = "{414.908, 587}";
},
{
name = topleft;
position = "{105.422, 587}";
}
);
color = -1;
layerId = "8B4ACB86-485E-4983-BA11-7AC678D884D1";
paths = (
{
closed = 1;
nodes = (
"228.972 275.514 OFFCURVE",
"273.284 276.358 OFFCURVE",
"349.642 276.358 CURVE SMOOTH",
"426.422 276.358 OFFCURVE",
"467.156 275.514 OFFCURVE",
"508.872 272.358 CURVE",
"521.138 330.954 LINE",
"484.624 328.532 OFFCURVE",
"433.688 327.532 OFFCURVE",
"360.33 327.532 CURVE SMOOTH",
"286.972 327.532 OFFCURVE",
"237.614 328.532 OFFCURVE",
"200.522 330.954 CURVE",
"187.256 272.358 LINE"
);
},
{
closed = 1;
nodes = (
"213.568 0 LINE",
"224.256 37.486 LINE",
"165.834 51.33 LINE",
"167.256 69.44 OFFCURVE",
"171.366 99.568 OFFCURVE",
"191.678 196.128 CURVE SMOOTH",
"231.88 385.826 LINE SMOOTH",
"250.614 474.028 OFFCURVE",
"263.88 518.514 OFFCURVE",
"268.302 535.67 CURVE",
"332.724 549.514 LINE",
"338.568 587 LINE",
"128.936 587 LINE",
"118.67 549.514 LINE",
"177.092 535.67 LINE",
"175.67 517.826 OFFCURVE",
"168.248 476.028 OFFCURVE",
"149.092 385.826 CURVE SMOOTH",
"108.89 196.128 LINE SMOOTH",
"89.734 107.926 OFFCURVE",
"81.202 70.908 OFFCURVE",
"75.202 51.33 CURVE",
"10.78 37.486 LINE",
"4.936 0 LINE"
);
},
{
closed = 1;
nodes = (
"575.88 0 LINE",
"586.568 37.486 LINE",
"528.146 51.33 LINE",
"530.146 69.44 OFFCURVE",
"533.834 99.568 OFFCURVE",
"554.146 196.128 CURVE SMOOTH",
"594.348 385.826 LINE SMOOTH",
"613.504 474.028 OFFCURVE",
"626.348 518.248 OFFCURVE",
"631.192 535.67 CURVE",
"695.036 549.514 LINE",
"700.88 587 LINE",
"491.248 587 LINE",
"480.56 549.514 LINE",
"538.982 535.67 LINE",
"537.982 517.826 OFFCURVE",
"531.138 476.028 OFFCURVE",
"511.982 385.826 CURVE SMOOTH",
"471.78 196.128 LINE SMOOTH",
"452.624 107.926 OFFCURVE",
"444.092 70.908 OFFCURVE",
"438.092 51.33 CURVE",
"373.67 37.486 LINE",
"367.826 0 LINE"
);
}
);
width = 671.66;
}
);
leftKerningGroup = H;
note = H;
rightKerningGroup = H;
unicode = 0048;
},
{
glyphname = I;
lastChange = "2018-11-30 12:57:44 +0000";
layers = (
{
anchors = (
{
name = bottom;
position = "{101, 0}";
},
{
name = ogonek;
position = "{194, 0}";
},
{
name = top;
position = "{227, 587}";
},
{
name = topleft;
position = "{104, 587}";
}
);
background = {
anchors = (
{
name = bottom;
position = "{101, 0}";
},
{
name = ogonek;
position = "{196, 0}";
},
{
name = top;
position = "{227, 587}";
},
{
name = topleft;
position = "{104, 587}";
}
);
paths = (
{
closed = 1;
nodes = (
"196 0 LINE",
"204 32 LINE",
"147 45 LINE",
"147 61 OFFCURVE",
"149 81 OFFCURVE",
"171 186 CURVE SMOOTH",
"215 393 LINE SMOOTH",
"235 485 OFFCURVE",
"247 525 OFFCURVE",
"251 542 CURVE",
"314 555 LINE",
"319 587 LINE",
"134 587 LINE",
"125 555 LINE",
"182 542 LINE",
"182 525 OFFCURVE",
"175 487 OFFCURVE",
"156 393 CURVE SMOOTH",
"111 186 LINE SMOOTH",
"91 94 OFFCURVE",
"85 65 OFFCURVE",
"79 45 CURVE",
"17 32 LINE",
"12 0 LINE"
);
}
);
};
color = -1;
layerId = "D9A1C40A-2361-406B-8D3E-8FA7FBCB82BD";
paths = (
{
closed = 1;
nodes = (
"193 0 LINE",
"202 32 LINE",
"145 45 LINE",
"147 61 OFFCURVE",
"149 81 OFFCURVE",
"171 186 CURVE SMOOTH",
"215 393 LINE SMOOTH",
"235 485 OFFCURVE",
"247 525 OFFCURVE",
"251 542 CURVE",
"314 555 LINE",
"319 587 LINE",
"133 587 LINE",
"124 555 LINE",
"181 542 LINE",
"181 525 OFFCURVE",
"176 487 OFFCURVE",
"156 393 CURVE SMOOTH",
"112 186 LINE SMOOTH",
"92 94 OFFCURVE",
"84 65 OFFCURVE",
"78 45 CURVE",
"15 32 LINE",
"10 0 LINE"
);
}
);
width = 295;
},
{
anchors = (
{
name = bottom;
position = "{139, 0}";
},
{
name = ogonek;
position = "{290, 0}";
},
{
name = top;
position = "{266, 587}";
},
{
name = topleft;
position = "{115, 587}";
}
);
background = {
anchors = (
{
name = bottom;
position = "{140, 0}";
},
{
name = ogonek;
position = "{291, 0}";
},
{
name = top;
position = "{267, 587}";
},
{
name = topleft;
position = "{116, 587}";
}
);
paths = (
{
closed = 1;
nodes = (
"291 0 LINE",
"306 57 LINE",
"245 76 LINE",
"249 101 OFFCURVE",
"261 169 OFFCURVE",
"274 235 CURVE SMOOTH",
"300 358 LINE SMOOTH",
"316 432 OFFCURVE",
"332 493 OFFCURVE",
"339 513 CURVE",
"408 530 LINE",
"417 587 LINE",
"116 587 LINE",
"101 530 LINE",
"162 513 LINE",
"159 490 OFFCURVE",
"149 436 OFFCURVE",
"133 358 CURVE SMOOTH",
"107 235 LINE SMOOTH",
"91 159 OFFCURVE",
"73 93 OFFCURVE",
"67 76 CURVE",
"-2 57 LINE",
"-11 0 LINE"
);
}
);
};
color = -1;
layerId = "24976ABE-9171-461B-B338-52EF76BD92C7";
paths = (
{
closed = 1;
nodes = (
"290 0 LINE",
"305 57 LINE",
"244 76 LINE",
"248 101 OFFCURVE",
"260 169 OFFCURVE",
"273 235 CURVE SMOOTH",
"299 358 LINE SMOOTH",
"315 432 OFFCURVE",
"331 493 OFFCURVE",
"338 513 CURVE",
"407 530 LINE",
"416 587 LINE",
"115 587 LINE",
"100 530 LINE",
"161 513 LINE",
"158 490 OFFCURVE",
"148 436 OFFCURVE",
"132 358 CURVE SMOOTH",
"106 235 LINE SMOOTH",
"90 159 OFFCURVE",
"72 93 OFFCURVE",
"66 76 CURVE",
"-3 57 LINE",
"-12 0 LINE"
);
}
);
width = 374;
},
{
anchors = (
{
name = bottom;
position = "{108.174, 0}";
},
{
name = ogonek;
position = "{212.99, 0}";
},
{
name = top;
position = "{233.33, 587}";
},
{
name = topleft;
position = "{105.266, 587}";
}
);
color = -1;
layerId = "8B4ACB86-485E-4983-BA11-7AC678D884D1";
paths = (
{
closed = 1;
nodes = (
"212.412 0 LINE",
"223.1 37.486 LINE",
"165.256 51.33 LINE",
"167.256 69.44 OFFCURVE",
"171.366 99.568 OFFCURVE",
"191.678 196.128 CURVE SMOOTH",
"231.88 385.826 LINE SMOOTH",
"250.614 474.028 OFFCURVE",
"263.88 518.248 OFFCURVE",
"268.302 535.67 CURVE",
"332.568 549.514 LINE",
"338.412 587 LINE",
"128.78 587 LINE",
"118.092 549.514 LINE",
"175.936 535.67 LINE",
"175.092 517.826 OFFCURVE",
"168.826 476.028 OFFCURVE",
"149.67 385.826 CURVE SMOOTH",
"109.468 196.128 LINE SMOOTH",
"90.312 107.926 OFFCURVE",
"80.624 70.908 OFFCURVE",
"74.624 51.33 CURVE",
"10.78 37.486 LINE",
"4.936 0 LINE"
);
}
);
width = 309.77;
}
);
leftKerningGroup = H;
note = I;
rightKerningGroup = H;
unicode = 0049;
},
{
glyphname = Iogonek;
lastChange = "2018-11-30 12:57:44 +0000";
layers = (
{
anchors = (
{
name = top;
position = "{217, 587}";
}
);
background = {
anchors = (
{
name = top;
position = "{617, 587}";
}
);
paths = (
{
closed = 1;
nodes = (
"515 555 LINE",
"572 542 LINE",
"572 525 OFFCURVE",
"566 487 OFFCURVE",
"546 393 CURVE SMOOTH",
"501 186 LINE SMOOTH",
"481 94 OFFCURVE",
"475 65 OFFCURVE",
"469 45 CURVE",
"407 32 LINE",
"402 0 LINE",
"565 0 LINE",
"566 16 LINE",
"439 -24 OFFCURVE",
"364 -82 OFFCURVE",
"364 -152 CURVE SMOOTH",
"364 -190 OFFCURVE",
"390 -223 OFFCURVE",
"453 -223 CURVE SMOOTH",
"486 -223 OFFCURVE",
"527 -205 OFFCURVE",
"559 -173 CURVE",
"545 -152 LINE",
"518 -175 OFFCURVE",
"494 -187 OFFCURVE",
"472 -187 CURVE SMOOTH",
"441 -187 OFFCURVE",
"424 -170 OFFCURVE",
"424 -141 CURVE SMOOTH",
"424 -85 OFFCURVE",
"485 -33 OFFCURVE",
"586 0 CURVE",
"594 32 LINE",
"537 45 LINE",
"537 61 OFFCURVE",
"539 81 OFFCURVE",
"561 186 CURVE SMOOTH",
"605 393 LINE SMOOTH",
"625 485 OFFCURVE",
"637 525 OFFCURVE",
"641 542 CURVE",
"704 555 LINE",
"709 587 LINE",
"524 587 LINE"
);
},
{
closed = 1;
nodes = (
"193 0 LINE",
"202 32 LINE",
"145 45 LINE",
"147 61 OFFCURVE",
"149 81 OFFCURVE",
"171 186 CURVE SMOOTH",
"215 393 LINE SMOOTH",
"235 485 OFFCURVE",
"247 525 OFFCURVE",
"251 542 CURVE",
"314 555 LINE",
"319 587 LINE",
"133 587 LINE",
"124 555 LINE",
"181 542 LINE",
"181 525 OFFCURVE",
"176 487 OFFCURVE",
"156 393 CURVE SMOOTH",
"112 186 LINE SMOOTH",
"92 94 OFFCURVE",
"84 65 OFFCURVE",
"78 45 CURVE",
"15 32 LINE",
"10 0 LINE"
);
}
);
};
color = -1;
layerId = "D9A1C40A-2361-406B-8D3E-8FA7FBCB82BD";
paths = (
{
closed = 1;
nodes = (
"124 555 LINE",
"181 542 LINE",
"181 525 OFFCURVE",
"176 487 OFFCURVE",
"156 393 CURVE SMOOTH",
"112 186 LINE SMOOTH",
"92 94 OFFCURVE",
"84 65 OFFCURVE",
"78 45 CURVE",
"15 32 LINE",
"10 0 LINE",
"175 0 LINE",
"176 16 LINE",
"49 -24 OFFCURVE",
"-26 -82 OFFCURVE",
"-26 -152 CURVE SMOOTH",
"-26 -190 OFFCURVE",
"1 -223 OFFCURVE",
"63 -223 CURVE SMOOTH",
"96 -223 OFFCURVE",
"137 -205 OFFCURVE",
"169 -173 CURVE",
"155 -152 LINE",
"128 -175 OFFCURVE",
"104 -187 OFFCURVE",
"82 -187 CURVE SMOOTH",
"51 -187 OFFCURVE",
"34 -170 OFFCURVE",
"34 -141 CURVE SMOOTH",
"34 -85 OFFCURVE",
"95 -33 OFFCURVE",
"193 0 CURVE",
"202 32 LINE",
"145 45 LINE",
"147 61 OFFCURVE",
"149 81 OFFCURVE",
"171 186 CURVE SMOOTH",
"215 393 LINE SMOOTH",
"235 485 OFFCURVE",
"247 525 OFFCURVE",
"251 542 CURVE",
"314 555 LINE",
"319 587 LINE",
"133 587 LINE"
);
}
);
width = 295;
},
{
anchors = (
{
name = top;
position = "{266, 587}";
}
);
background = {
anchors = (
{
name = top;
position = "{664, 587}";
}
);
paths = (
{
closed = 1;
nodes = (
"499 530 LINE",
"562 513 LINE",
"559 490 OFFCURVE",
"549 436 OFFCURVE",
"533 358 CURVE SMOOTH",
"507 235 LINE SMOOTH",
"491 159 OFFCURVE",
"473 93 OFFCURVE",
"467 76 CURVE",
"397 57 LINE",
"387 0 LINE",
"609 0 LINE",
"608 12 LINE",
"447 -6 OFFCURVE",
"374 -74 OFFCURVE",
"374 -131 CURVE SMOOTH",
"374 -188 OFFCURVE",
"435 -223 OFFCURVE",
"501 -223 CURVE SMOOTH",
"553 -223 OFFCURVE",
"594 -205 OFFCURVE",
"626 -173 CURVE",
"606 -127 LINE",
"581 -150 OFFCURVE",
"555 -161 OFFCURVE",
"533 -161 CURVE SMOOTH",
"510 -161 OFFCURVE",
"489 -148 OFFCURVE",
"489 -119 CURVE SMOOTH",
"489 -85 OFFCURVE",
"519 -31 OFFCURVE",
"690 0 CURVE",
"706 57 LINE",
"645 76 LINE",
"649 101 OFFCURVE",
"660 169 OFFCURVE",
"674 235 CURVE SMOOTH",
"700 358 LINE SMOOTH",
"716 432 OFFCURVE",
"732 493 OFFCURVE",
"739 513 CURVE",
"808 530 LINE",
"817 587 LINE",
"515 587 LINE"
);
},
{
closed = 1;
nodes = (
"291 0 LINE",
"306 57 LINE",
"245 76 LINE",
"249 101 OFFCURVE",
"261 169 OFFCURVE",
"274 235 CURVE SMOOTH",
"300 358 LINE SMOOTH",
"316 432 OFFCURVE",
"332 493 OFFCURVE",
"339 513 CURVE",
"408 530 LINE",
"417 587 LINE",
"116 587 LINE",
"101 530 LINE",
"162 513 LINE",
"159 490 OFFCURVE",
"149 436 OFFCURVE",
"133 358 CURVE SMOOTH",
"107 235 LINE SMOOTH",
"91 159 OFFCURVE",
"73 93 OFFCURVE",
"67 76 CURVE",
"-2 57 LINE",
"-11 0 LINE"
);
}
);
};
color = -1;
layerId = "24976ABE-9171-461B-B338-52EF76BD92C7";
paths = (
{
closed = 1;
nodes = (
"100 530 LINE",
"161 513 LINE",
"158 490 OFFCURVE",
"148 436 OFFCURVE",
"132 358 CURVE SMOOTH",
"106 235 LINE SMOOTH",
"90 159 OFFCURVE",
"72 93 OFFCURVE",
"66 76 CURVE",
"-3 57 LINE",
"-12 0 LINE",
"208 0 LINE",
"207 12 LINE",
"46 -6 OFFCURVE",
"-27 -74 OFFCURVE",
"-27 -131 CURVE SMOOTH",
"-27 -188 OFFCURVE",
"34 -223 OFFCURVE",
"100 -223 CURVE SMOOTH",
"152 -223 OFFCURVE",
"193 -205 OFFCURVE",
"225 -173 CURVE",
"205 -127 LINE",
"180 -150 OFFCURVE",
"154 -161 OFFCURVE",
"132 -161 CURVE SMOOTH",
"109 -161 OFFCURVE",
"88 -148 OFFCURVE",
"88 -119 CURVE SMOOTH",
"88 -85 OFFCURVE",
"118 -31 OFFCURVE",
"290 0 CURVE",
"305 57 LINE",
"244 76 LINE",
"248 101 OFFCURVE",
"260 169 OFFCURVE",
"273 235 CURVE SMOOTH",
"299 358 LINE SMOOTH",
"315 432 OFFCURVE",
"331 493 OFFCURVE",
"338 513 CURVE",
"407 530 LINE",
"416 587 LINE",
"115 587 LINE"
);
}
);
width = 374;
},
{
anchors = (
{
name = top;
position = "{227.55, 587}";
}
);
color = -1;
layerId = "8B4ACB86-485E-4983-BA11-7AC678D884D1";
paths = (
{
closed = 1;
nodes = (
"118.092 549.514 LINE",
"175.936 535.67 LINE",
"175.092 517.826 OFFCURVE",
"168.826 476.028 OFFCURVE",
"149.67 385.826 CURVE SMOOTH",
"109.468 196.128 LINE SMOOTH",
"90.312 107.926 OFFCURVE",
"80.624 70.908 OFFCURVE",
"74.624 51.33 CURVE",
"10.78 37.486 LINE",
"4.936 0 LINE",
"180.908 0 LINE",
"181.486 15.156 LINE",
"47.312 -20.202 OFFCURVE",
"-27.266 -80.312 OFFCURVE",
"-27.266 -147.358 CURVE SMOOTH",
"-27.266 -189.578 OFFCURVE",
"6.908 -223 OFFCURVE",
"69.752 -223 CURVE SMOOTH",
"106.972 -223 OFFCURVE",
"147.972 -205 OFFCURVE",
"179.972 -173 CURVE",
"164.284 -146.514 LINE",
"138.128 -169.514 OFFCURVE",
"113.284 -181.514 OFFCURVE",
"91.284 -181.514 CURVE SMOOTH",
"61.972 -181.514 OFFCURVE",
"44.128 -165.358 OFFCURVE",
"44.128 -136.358 CURVE SMOOTH",
"44.128 -85 OFFCURVE",
"98.798 -32.578 OFFCURVE",
"212.412 0 CURVE",
"223.1 37.486 LINE",
"165.256 51.33 LINE",
"167.256 69.44 OFFCURVE",
"171.366 99.568 OFFCURVE",
"191.678 196.128 CURVE SMOOTH",
"231.88 385.826 LINE SMOOTH",
"250.614 474.028 OFFCURVE",
"263.88 518.248 OFFCURVE",
"268.302 535.67 CURVE",
"332.146 549.514 LINE",
"337.99 587 LINE",
"128.78 587 LINE"
);
}
);
width = 309.77;
}
);
leftKerningGroup = H;
widthMetricsKey = I;
note = Iogonek;
rightKerningGroup = H;
unicode = 012E;
},
{
glyphname = J;
lastChange = "2018-11-30 12:57:44 +0000";
layers = (
{
anchors = (
{
name = top;
position = "{229, 587}";
}
);
background = {
anchors = (
{
name = top;
position = "{229.036, 587}";
}
);
paths = (
{
closed = 1;
nodes = (
"216.357 392.893 LINE SMOOTH",
"234.357 484.143 OFFCURVE",
"247.429 520.321 OFFCURVE",
"251.964 541.5 CURVE",
"314.571 554.571 LINE",
"319.643 587 LINE",
"127.5 587 LINE",
"119.357 554.571 LINE",
"182.964 541.036 LINE",
"180.571 521.25 OFFCURVE",
"175.893 489.857 OFFCURVE",
"155.036 391.964 CURVE SMOOTH",
"71.107 1.036 LINE SMOOTH",
"47.393 -107.75 OFFCURVE",
"20.536 -142.929 OFFCURVE",
"-44.893 -142.929 CURVE SMOOTH",
"-76.036 -142.929 OFFCURVE",
"-107.893 -133.786 OFFCURVE",
"-126.036 -119.107 CURVE",
"-138.464 -134.714 OFFCURVE",
"-141.893 -146.607 OFFCURVE",
"-141.893 -159.5 CURVE SMOOTH",
"-141.893 -186.786 OFFCURVE",
"-111.75 -201.536 OFFCURVE",
"-75.393 -201.536 CURVE SMOOTH",
"14.857 -201.536 OFFCURVE",
"107.857 -117.179 OFFCURVE",
"143.786 49.214 CURVE SMOOTH"
);
}
);
};
color = -1;
layerId = "D9A1C40A-2361-406B-8D3E-8FA7FBCB82BD";
paths = (
{
closed = 1;
nodes = (
"216 393 LINE SMOOTH",
"234 484 OFFCURVE",
"246 520 OFFCURVE",
"251 542 CURVE",
"314 555 LINE",
"319 587 LINE",
"128 587 LINE",
"119 555 LINE",
"183 541 LINE",
"181 521 OFFCURVE",
"176 490 OFFCURVE",
"155 392 CURVE SMOOTH",
"71 1 LINE SMOOTH",
"47 -108 OFFCURVE",
"21 -143 OFFCURVE",
"-45 -143 CURVE SMOOTH",
"-76 -143 OFFCURVE",
"-108 -134 OFFCURVE",
"-126 -119 CURVE",
"-138 -135 OFFCURVE",
"-142 -147 OFFCURVE",
"-142 -160 CURVE SMOOTH",
"-142 -187 OFFCURVE",
"-112 -202 OFFCURVE",
"-74 -202 CURVE SMOOTH",
"15 -202 OFFCURVE",
"107 -127 OFFCURVE",
"144 49 CURVE SMOOTH"
);
}
);
width = 295;
},
{
anchors = (
{
name = top;
position = "{264, 587}";
}
);
background = {
anchors = (
{
name = top;
position = "{265, 587}";
}
);
paths = (
{
closed = 1;
nodes = (
"299 358 LINE SMOOTH",
"317 435 OFFCURVE",
"334 510 OFFCURVE",
"340 513 CURVE",
"409 530 LINE",
"418 587 LINE",
"104 587 LINE",
"88 530 LINE",
"157 515 LINE",
"161 507 OFFCURVE",
"146 425 OFFCURVE",
"134 361 CURVE SMOOTH",
"54 -25 LINE SMOOTH",
"46 -65 OFFCURVE",
"28 -82 OFFCURVE",
"-5 -82 CURVE SMOOTH",
"-45 -82 OFFCURVE",
"-68 -65 OFFCURVE",
"-95 -40 CURVE",
"-131 -61 OFFCURVE",
"-159 -96 OFFCURVE",
"-159 -131 CURVE SMOOTH",
"-159 -175 OFFCURVE",
"-121 -204 OFFCURVE",
"-64 -204 CURVE SMOOTH",
"69 -204 OFFCURVE",
"219 -42 OFFCURVE",
"251 118 CURVE SMOOTH"
);
}
);
};
color = -1;
layerId = "24976ABE-9171-461B-B338-52EF76BD92C7";
paths = (
{
closed = 1;
nodes = (
"299 358 LINE SMOOTH",
"315 436 OFFCURVE",
"331 490 OFFCURVE",
"337 513 CURVE",
"406 530 LINE",
"415 587 LINE",
"106 587 LINE",
"89 530 LINE",
"158 515 LINE",
"154 487 OFFCURVE",
"145 425 OFFCURVE",
"133 361 CURVE SMOOTH",
"53 -25 LINE SMOOTH",
"45 -65 OFFCURVE",
"27 -82 OFFCURVE",
"-6 -82 CURVE SMOOTH",
"-46 -82 OFFCURVE",
"-69 -65 OFFCURVE",
"-96 -40 CURVE",
"-132 -61 OFFCURVE",
"-160 -96 OFFCURVE",
"-160 -131 CURVE SMOOTH",
"-160 -175 OFFCURVE",
"-122 -204 OFFCURVE",
"-65 -204 CURVE SMOOTH",
"68 -204 OFFCURVE",
"215 -52 OFFCURVE",
"250 118 CURVE SMOOTH"
);
}
);
width = 374;
},
{
anchors = (
{
name = top;
position = "{235.33, 587}";
}
);
color = -1;
layerId = "8B4ACB86-485E-4983-BA11-7AC678D884D1";
paths = (
{
closed = 1;
nodes = (
"232.458 385.826 LINE SMOOTH",
"250.458 473.872 OFFCURVE",
"263.724 517.89 OFFCURVE",
"269.146 535.67 CURVE",
"332.99 549.514 LINE",
"338.834 587 LINE",
"122.514 587 LINE",
"111.826 549.514 LINE",
"176.67 535.514 LINE",
"175.514 518.046 OFFCURVE",
"168.826 476.074 OFFCURVE",
"149.514 385.67 CURVE SMOOTH",
"65.936 -4.486 LINE SMOOTH",
"45.312 -98.716 OFFCURVE",
"21 -129.918 OFFCURVE",
"-38.248 -129.918 CURVE SMOOTH",
"-70.936 -129.918 OFFCURVE",
"-101.248 -119.23 OFFCURVE",
"-120.936 -102.12 CURVE",
"-138 -119.386 OFFCURVE",
"-147.064 -136.028 OFFCURVE",
"-147.064 -153.67 CURVE SMOOTH",
"-147.064 -184.468 OFFCURVE",
"-115.376 -202.422 OFFCURVE",
"-73.578 -202.422 CURVE SMOOTH",
"24.706 -202.422 OFFCURVE",
"128.944 -108.854 OFFCURVE",
"165.1 63.77 CURVE SMOOTH"
);
}
);
width = 309.77;
}
);
leftKerningGroup = J;
note = J;
rightKerningGroup = J;
unicode = 004A;
},
{
glyphname = K;
lastChange = "2018-11-30 12:57:44 +0000";
layers = (
{
anchors = (
{
name = bottom;
position = "{263, 0}";
},
{
name = top;
position = "{387, 587}";
}
);
background = {
anchors = (
{
name = bottom;
position = "{263, 0}";
},
{
name = top;
position = "{387, 587}";
}
);
paths = (
{
closed = 1;
nodes = (
"509 0 LINE",
"516 33 LINE",
"469 47 LINE",
"455 62 OFFCURVE",
"436 91 OFFCURVE",
"417 119 CURVE SMOOTH",
"271 323 LINE",
"270 300 LINE",
"575 543 LINE",
"630 553 LINE",
"635 587 LINE",
"449 587 LINE",
"441 555 LINE",
"499 541 LINE",
"248 327 LINE",
"191 311 LINE",
"184 279 LINE",
"231 279 LINE",
"358 93 LINE SMOOTH",
"371 76 OFFCURVE",
"383 56 OFFCURVE",
"391 42 CURVE",
"324 32 LINE",
"319 0 LINE"
);
},
{
closed = 1;
nodes = (
"201 0 LINE",
"209 32 LINE",
"147 45 LINE",
"147 61 OFFCURVE",
"149 81 OFFCURVE",
"171 186 CURVE SMOOTH",
"215 393 LINE SMOOTH",
"235 485 OFFCURVE",
"247 525 OFFCURVE",
"251 542 CURVE",
"314 555 LINE",
"319 587 LINE",
"134 587 LINE",
"125 555 LINE",
"182 542 LINE",
"182 525 OFFCURVE",
"175 487 OFFCURVE",
"156 393 CURVE SMOOTH",
"111 186 LINE SMOOTH",
"91 94 OFFCURVE",
"85 65 OFFCURVE",
"79 45 CURVE",
"17 32 LINE",
"12 0 LINE"
);
}
);
};
color = -1;
layerId = "D9A1C40A-2361-406B-8D3E-8FA7FBCB82BD";
paths = (
{
closed = 1;
nodes = (
"507 0 LINE",
"514 33 LINE",
"468 47 LINE",
"454 62 OFFCURVE",
"436 91 OFFCURVE",
"416 119 CURVE SMOOTH",
"274 323 LINE",
"270 300 LINE",
"575 543 LINE",
"630 553 LINE",
"635 587 LINE",
"451 587 LINE",
"442 555 LINE",
"499 541 LINE",
"248 327 LINE",
"191 311 LINE",
"184 279 LINE",
"230 279 LINE",
"358 93 LINE SMOOTH",
"370 75 OFFCURVE",
"383 56 OFFCURVE",
"391 42 CURVE",
"323 32 LINE",
"318 0 LINE"
);
},
{
closed = 1;
nodes = (
"198 0 LINE",
"207 32 LINE",
"145 45 LINE",
"147 61 OFFCURVE",
"149 81 OFFCURVE",
"171 186 CURVE SMOOTH",
"215 393 LINE SMOOTH",
"235 485 OFFCURVE",
"247 525 OFFCURVE",
"251 542 CURVE",
"314 555 LINE",
"319 587 LINE",
"134 587 LINE",
"125 555 LINE",
"182 542 LINE",
"182 525 OFFCURVE",
"176 487 OFFCURVE",
"156 393 CURVE SMOOTH",
"112 186 LINE SMOOTH",
"92 94 OFFCURVE",
"86 65 OFFCURVE",
"80 45 CURVE",
"18 32 LINE",
"13 0 LINE"
);
}
);
width = 559;
},
{
anchors = (
{
name = bottom;
position = "{300, 0}";
},
{
name = top;
position = "{424, 587}";
}
);
background = {
anchors = (
{
name = bottom;
position = "{301, 0}";
},
{
name = top;
position = "{425, 587}";
}
);
paths = (
{
closed = 1;
nodes = (
"665 0 LINE",
"677 58 LINE",
"626 64 LINE",
"621 72 OFFCURVE",
"612 83 OFFCURVE",
"570 151 CURVE SMOOTH",
"427 392 LINE",
"436 340 LINE",
"675 517 LINE",
"751 528 LINE",
"760 587 LINE",
"505 587 LINE",
"488 530 LINE",
"551 519 LINE",
"302 309 LINE",
"269 303 LINE",
"258 250 LINE",
"301 250 LINE",
"377 115 LINE SMOOTH",
"392 88 OFFCURVE",
"394 82 OFFCURVE",
"396 67 CURVE",
"348 57 LINE",
"338 0 LINE"
);
},
{
closed = 1;
nodes = (
"275 0 LINE",
"290 57 LINE",
"247 76 LINE",
"250 101 OFFCURVE",
"262 169 OFFCURVE",
"275 235 CURVE SMOOTH",
"301 358 LINE SMOOTH",
"317 432 OFFCURVE",
"333 493 OFFCURVE",
"340 513 CURVE",
"409 530 LINE",
"418 587 LINE",
"116 587 LINE",
"100 530 LINE",
"163 513 LINE",
"160 490 OFFCURVE",
"150 436 OFFCURVE",
"134 358 CURVE SMOOTH",
"108 235 LINE SMOOTH",
"92 159 OFFCURVE",
"74 93 OFFCURVE",
"69 76 CURVE",
"-2 57 LINE",
"-12 0 LINE"
);
}
);
};
color = -1;
layerId = "24976ABE-9171-461B-B338-52EF76BD92C7";
paths = (
{
closed = 1;
nodes = (
"664 0 LINE",
"676 58 LINE",
"625 64 LINE",
"620 72 OFFCURVE",
"611 83 OFFCURVE",
"569 151 CURVE SMOOTH",
"426 392 LINE",
"438 340 LINE",
"674 517 LINE",
"749 528 LINE",
"759 587 LINE",
"502 587 LINE",
"487 530 LINE",
"550 519 LINE",
"304 309 LINE",
"268 303 LINE",
"257 250 LINE",
"300 250 LINE",
"376 115 LINE SMOOTH",
"391 88 OFFCURVE",
"393 82 OFFCURVE",
"395 67 CURVE",
"346 57 LINE",
"337 0 LINE"
);
},
{
closed = 1;
nodes = (
"273 0 LINE",
"288 57 LINE",
"246 76 LINE",
"249 101 OFFCURVE",
"261 169 OFFCURVE",
"274 235 CURVE SMOOTH",
"300 358 LINE SMOOTH",
"316 432 OFFCURVE",
"332 493 OFFCURVE",
"339 513 CURVE",
"408 530 LINE",
"417 587 LINE",
"116 587 LINE",
"101 530 LINE",
"162 513 LINE",
"159 490 OFFCURVE",
"149 436 OFFCURVE",
"133 358 CURVE SMOOTH",
"107 235 LINE SMOOTH",
"91 159 OFFCURVE",
"73 93 OFFCURVE",
"68 76 CURVE",
"-1 57 LINE",
"-10 0 LINE"
);
}
);
width = 704;
},
{
anchors = (
{
name = bottom;
position = "{269.752, 0}";
},
{
name = top;
position = "{393.752, 587}";
}
);
color = -1;
layerId = "8B4ACB86-485E-4983-BA11-7AC678D884D1";
paths = (
{
closed = 1;
nodes = (
"539.494 0 LINE",
"547.76 38.486 LINE",
"500.494 50.376 LINE",
"488.182 64.11 OFFCURVE",
"472.292 89.312 OFFCURVE",
"447.65 125.752 CURVE SMOOTH",
"304.384 337.77 LINE",
"303.76 308.44 LINE",
"594.834 537.514 LINE",
"653.632 547.514 LINE",
"659.476 587 LINE",
"461.55 587 LINE",
"450.862 549.514 LINE",
"508.706 536.358 LINE",
"258.55 323.202 LINE",
"206.192 309.312 LINE",
"198.348 272.67 LINE",
"243.926 272.67 LINE",
"360.954 97.642 LINE SMOOTH",
"373.798 77.954 OFFCURVE",
"384.266 61.486 OFFCURVE",
"391 47.486 CURVE",
"326.798 37.486 LINE",
"320.954 0 LINE"
);
},
{
closed = 1;
nodes = (
"213.614 0 LINE",
"223.88 37.486 LINE",
"165.678 51.33 LINE",
"167.678 69.44 OFFCURVE",
"171.788 99.568 OFFCURVE",
"192.1 196.128 CURVE SMOOTH",
"232.302 385.826 LINE SMOOTH",
"251.036 474.028 OFFCURVE",
"264.302 518.248 OFFCURVE",
"268.724 535.67 CURVE",
"332.568 549.514 LINE",
"338.412 587 LINE",
"129.78 587 LINE",
"119.092 549.514 LINE",
"176.936 535.67 LINE",
"176.092 517.826 OFFCURVE",
"169.248 476.028 OFFCURVE",
"150.092 385.826 CURVE SMOOTH",
"109.89 196.128 LINE SMOOTH",
"90.734 107.926 OFFCURVE",
"82.202 70.908 OFFCURVE",
"76.624 51.33 CURVE",
"12.936 37.486 LINE",
"7.092 0 LINE"
);
}
);
width = 588.118;
}
);
leftKerningGroup = H;
note = K;
rightKerningGroup = K;
unicode = 004B;
},
{
glyphname = L;
lastChange = "2018-11-30 12:57:44 +0000";
layers = (
{
anchors = (
{
name = bottom;
position = "{228, 0}";
},
{
name = center;
position = "{210, 303}";
},
{
name = dotacc;
position = "{352, 320}";
},
{
name = top;
position = "{231, 587}";
},
{
name = topright;
position = "{440, 587}";
}
);
background = {
anchors = (
{
name = bottom;
position = "{229.036, 0}";
},
{
name = center;
position = "{211.214, 303}";
},
{
name = dotacc;
position = "{353.357, 320}";
},
{
name = top;
position = "{231.964, 587}";
},
{
name = topright;
position = "{440.964, 587}";
}
);
paths = (
{
closed = 1;
nodes = (
"479.429 135.929 LINE",
"433.143 145.071 LINE",
"372.179 50.714 LINE",
"346.464 47.714 OFFCURVE",
"328.214 47.643 OFFCURVE",
"298.714 47.643 CURVE SMOOTH",
"202.893 47.643 LINE SMOOTH",
"183.393 47.643 OFFCURVE",
"165.786 48.643 OFFCURVE",
"151.107 50.179 CURVE",
"150.643 60.714 OFFCURVE",
"152.321 81.036 OFFCURVE",
"174.179 185.857 CURVE SMOOTH",
"218.357 392.893 LINE SMOOTH",
"238.286 484.607 OFFCURVE",
"250.357 523.571 OFFCURVE",
"254.893 541.5 CURVE",
"340.893 552.571 LINE",
"347.429 587 LINE",
"136.036 587 LINE",
"127.893 554.571 LINE",
"184.5 541.5 LINE",
"183.964 524.893 OFFCURVE",
"177.893 486.607 OFFCURVE",
"157.964 392.893 CURVE SMOOTH",
"113.786 185.857 LINE SMOOTH",
"93.857 94.143 OFFCURVE",
"87.643 64.5 OFFCURVE",
"81.643 45.036 CURVE",
"19.5 32.429 LINE",
"14.429 0 LINE",
"345.714 0 LINE",
"369.929 0 OFFCURVE",
"380.107 -1.536 OFFCURVE",
"412.929 -4.071 CURVE"
);
}
);
};
color = -1;
layerId = "D9A1C40A-2361-406B-8D3E-8FA7FBCB82BD";
paths = (
{
closed = 1;
nodes = (
"477 136 LINE",
"431 145 LINE",
"370 51 LINE",
"344 48 OFFCURVE",
"326 48 OFFCURVE",
"297 48 CURVE SMOOTH",
"201 48 LINE SMOOTH",
"181 48 OFFCURVE",
"164 49 OFFCURVE",
"148 50 CURVE",
"150 63 OFFCURVE",
"151 81 OFFCURVE",
"173 186 CURVE SMOOTH",
"217 393 LINE SMOOTH",
"237 485 OFFCURVE",
"249 524 OFFCURVE",
"254 542 CURVE",
"339 553 LINE",
"344 587 LINE",
"135 587 LINE",
"126 555 LINE",
"183 542 LINE",
"182 525 OFFCURVE",
"176 487 OFFCURVE",
"156 393 CURVE SMOOTH",
"112 186 LINE SMOOTH",
"92 94 OFFCURVE",
"85 65 OFFCURVE",
"79 45 CURVE",
"16 32 LINE",
"11 0 LINE",
"344 0 LINE",
"368 0 OFFCURVE",
"378 -2 OFFCURVE",
"411 -4 CURVE"
);
}
);
width = 493;
},
{
anchors = (
{
name = bottom;
position = "{264, 0}";
},
{
name = center;
position = "{227, 303}";
},
{
name = dotacc;
position = "{435, 320}";
},
{
name = top;
position = "{262, 587}";
},
{
name = topright;
position = "{471, 587}";
}
);
background = {
anchors = (
{
name = bottom;
position = "{265, 0}";
},
{
name = center;
position = "{228, 303}";
},
{
name = dotacc;
position = "{436, 320}";
},
{
name = top;
position = "{263, 587}";
},
{
name = topright;
position = "{472, 587}";
}
);
paths = (
{
closed = 1;
nodes = (
"566 189 LINE",
"503 206 LINE",
"416 91 LINE",
"406 88 OFFCURVE",
"402 84 OFFCURVE",
"344 84 CURVE SMOOTH",
"344 84 LINE SMOOTH",
"296 84 OFFCURVE",
"273 85 OFFCURVE",
"248 89 CURVE",
"249 101 OFFCURVE",
"261 169 OFFCURVE",
"275 235 CURVE SMOOTH",
"301 358 LINE SMOOTH",
"317 434 OFFCURVE",
"333 499 OFFCURVE",
"339 513 CURVE",
"425 528 LINE",
"434 587 LINE",
"115 587 LINE",
"98 530 LINE",
"161 513 LINE",
"158 490 OFFCURVE",
"148 436 OFFCURVE",
"132 358 CURVE SMOOTH",
"107 235 LINE SMOOTH",
"91 159 OFFCURVE",
"72 93 OFFCURVE",
"66 76 CURVE",
"-4 57 LINE",
"-13 0 LINE",
"277 0 LINE",
"314 0 OFFCURVE",
"420 -4 OFFCURVE",
"471 -8 CURVE"
);
}
);
};
color = -1;
layerId = "24976ABE-9171-461B-B338-52EF76BD92C7";
paths = (
{
closed = 1;
nodes = (
"565 189 LINE",
"502 206 LINE",
"413 89 LINE",
"403 86 OFFCURVE",
"381 84 OFFCURVE",
"353 84 CURVE SMOOTH",
"333 84 LINE SMOOTH",
"295 84 OFFCURVE",
"272 85 OFFCURVE",
"247 89 CURVE",
"248 101 OFFCURVE",
"260 169 OFFCURVE",
"274 235 CURVE SMOOTH",
"300 358 LINE SMOOTH",
"316 434 OFFCURVE",
"332 499 OFFCURVE",
"338 513 CURVE",
"424 528 LINE",
"434 587 LINE",
"114 587 LINE",
"99 530 LINE",
"160 513 LINE",
"157 490 OFFCURVE",
"147 436 OFFCURVE",
"131 358 CURVE SMOOTH",
"106 235 LINE SMOOTH",
"90 159 OFFCURVE",
"71 93 OFFCURVE",
"65 76 CURVE",
"-4 57 LINE",
"-13 0 LINE",
"276 0 LINE",
"313 0 OFFCURVE",
"399 -2 OFFCURVE",
"470 -8 CURVE"
);
}
);
width = 581;
},
{
anchors = (
{
name = bottom;
position = "{234.33, 0}";
},
{
name = center;
position = "{212.532, 303}";
},
{
name = dotacc;
position = "{368.458, 320}";
},
{
name = top;
position = "{236.486, 587}";
},
{
name = topright;
position = "{445.486, 587}";
}
);
color = -1;
layerId = "8B4ACB86-485E-4983-BA11-7AC678D884D1";
paths = (
{
closed = 1;
nodes = (
"494.724 146.972 LINE",
"445.348 158.082 LINE",
"378.862 59.44 LINE",
"356.238 56.44 OFFCURVE",
"341.192 55.596 OFFCURVE",
"305.862 55.596 CURVE SMOOTH",
"230.118 55.596 LINE SMOOTH",
"204.21 55.596 OFFCURVE",
"185.944 56.596 OFFCURVE",
"168.256 58.44 CURVE",
"169.412 70.596 OFFCURVE",
"172.944 99.568 OFFCURVE",
"193.256 196.128 CURVE SMOOTH",
"233.458 385.826 LINE SMOOTH",
"252.614 474.028 OFFCURVE",
"265.458 518.514 OFFCURVE",
"270.88 535.67 CURVE",
"356.302 547.514 LINE",
"362.146 587 LINE",
"129.936 587 LINE",
"119.248 549.514 LINE",
"177.092 535.67 LINE",
"176.092 517.826 OFFCURVE",
"169.248 476.028 OFFCURVE",
"150.092 385.826 CURVE SMOOTH",
"109.89 196.128 LINE SMOOTH",
"90.734 107.926 OFFCURVE",
"81.202 70.908 OFFCURVE",
"75.202 51.33 CURVE",
"10.936 37.486 LINE",
"5.092 0 LINE",
"328.808 0 LINE",
"355.34 0 OFFCURVE",
"385.596 -2.422 OFFCURVE",
"422.394 -4.844 CURVE"
);
}
);
width = 510.724;
}
);
leftKerningGroup = H;
note = L;
rightKerningGroup = L;
unicode = 004C;
},
{
glyphname = M;
lastChange = "2018-11-30 12:57:44 +0000";
layers = (
{
anchors = (
{
name = bottom;
position = "{367, 0}";
},
{
name = top;
position = "{492, 587}";
}
);
background = {
anchors = (
{
name = bottom;
position = "{1267, 0}";
},
{
name = top;
position = "{1392, 587}";
}
);
paths = (
{
closed = 1;
nodes = (
"1033 555 LINE",
"1091 542 LINE",
"1084 504 OFFCURVE",
"1071 445 OFFCURVE",
"1062 407 CURVE SMOOTH",
"1016 203 LINE SMOOTH",
"994 104 OFFCURVE",
"982 59 OFFCURVE",
"981 45 CURVE",
"911 32 LINE",
"906 0 LINE",
"1091 0 LINE",
"1100 32 LINE",
"1035 45 LINE",
"1035 52 OFFCURVE",
"1041 91 OFFCURVE",
"1068 218 CURVE SMOOTH",
"1141 558 LINE",
"1135 558 LINE",
"1251 -3 LINE",
"1273 -3 LINE",
"1637 558 LINE",
"1620 558 LINE",
"1543 185 LINE SMOOTH",
"1517 59 OFFCURVE",
"1521 59 OFFCURVE",
"1517 44 CURVE",
"1455 32 LINE",
"1450 0 LINE",
"1631 0 LINE",
"1640 32 LINE",
"1582 44 LINE",
"1584 62 OFFCURVE",
"1596 109 OFFCURVE",
"1616 217 CURVE SMOOTH",
"1651 408 LINE SMOOTH",
"1660 459 OFFCURVE",
"1676 532 OFFCURVE",
"1681 543 CURVE",
"1744 555 LINE",
"1748 587 LINE",
"1605 587 LINE",
"1287 92 LINE",
"1298 92 LINE",
"1196 587 LINE",
"1042 587 LINE"
);
},
{
closed = 1;
nodes = (
"134 555 LINE",
"190 542 LINE",
"185 514 OFFCURVE",
"173 452 OFFCURVE",
"162 404 CURVE SMOOTH",
"116 203 LINE SMOOTH",
"93 103 OFFCURVE",
"83 60 OFFCURVE",
"78 45 CURVE",
"8 32 LINE",
"4 0 LINE",
"190 0 LINE",
"198 32 LINE",
"134 45 LINE",
"136 59 OFFCURVE",
"145 106 OFFCURVE",
"170 222 CURVE SMOOTH",
"241 558 LINE",
"232 558 LINE",
"352 -3 LINE",
"373 -3 LINE",
"736 558 LINE",
"720 558 LINE",
"645 195 LINE SMOOTH",
"624 92 OFFCURVE",
"621 77 OFFCURVE",
"613 44 CURVE",
"551 32 LINE",
"547 0 LINE",
"730 0 LINE",
"738 32 LINE",
"681 44 LINE",
"685 69 OFFCURVE",
"693 109 OFFCURVE",
"714 217 CURVE",
"751 403 LINE SMOOTH",
"761 454 OFFCURVE",
"774 519 OFFCURVE",
"781 543 CURVE",
"843 555 LINE",
"847 587 LINE",
"709 587 LINE",
"389 92 LINE",
"401 92 LINE",
"296 587 LINE",
"142 587 LINE"
);
}
);
};
color = -1;
layerId = "D9A1C40A-2361-406B-8D3E-8FA7FBCB82BD";
paths = (
{
closed = 1;
nodes = (
"134 555 LINE",
"191 542 LINE",
"184 504 OFFCURVE",
"170 445 OFFCURVE",
"162 407 CURVE SMOOTH",
"116 203 LINE SMOOTH",
"93 104 OFFCURVE",
"82 59 OFFCURVE",
"79 45 CURVE",
"9 32 LINE",
"4 0 LINE",
"190 0 LINE",
"199 32 LINE",
"135 45 LINE",
"135 52 OFFCURVE",
"142 91 OFFCURVE",
"169 218 CURVE SMOOTH",
"241 558 LINE",
"234 558 LINE",
"351 -3 LINE",
"373 -3 LINE",
"737 558 LINE",
"720 558 LINE",
"643 185 LINE SMOOTH",
"631 128 OFFCURVE",
"617 59 OFFCURVE",
"613 44 CURVE",
"551 32 LINE",
"546 0 LINE",
"730 0 LINE",
"739 32 LINE",
"681 44 LINE",
"684 62 OFFCURVE",
"691 109 OFFCURVE",
"709 197 CURVE SMOOTH",
"752 408 LINE SMOOTH",
"762 459 OFFCURVE",
"777 532 OFFCURVE",
"782 543 CURVE",
"845 555 LINE",
"850 587 LINE",
"706 587 LINE",
"388 92 LINE",
"398 92 LINE",
"296 587 LINE",
"143 587 LINE"
);
}
);
width = 832;
},
{
anchors = (
{
name = bottom;
position = "{375, 0}";
},
{
name = top;
position = "{500, 587}";
}
);
background = {
anchors = (
{
name = bottom;
position = "{376, 0}";
},
{
name = top;
position = "{501, 587}";
}
);
paths = (
{
closed = 1;
nodes = (
"106 530 LINE",
"167 511 LINE",
"168 516 OFFCURVE",
"167 502 OFFCURVE",
"142 389 CURVE SMOOTH",
"100 203 LINE SMOOTH",
"90 155 OFFCURVE",
"75 95 OFFCURVE",
"65 76 CURVE",
"-10 57 LINE",
"-20 0 LINE",
"217 0 LINE",
"233 57 LINE",
"168 76 LINE",
"172 105 OFFCURVE",
"182 165 OFFCURVE",
"194 222 CURVE SMOOTH",
"264 558 LINE",
"177 558 LINE",
"338 -3 LINE",
"418 -3 LINE",
"774 558 LINE",
"715 558 LINE",
"656 263 LINE SMOOTH",
"644 201 OFFCURVE",
"616 95 OFFCURVE",
"614 76 CURVE",
"543 57 LINE",
"534 0 LINE",
"844 0 LINE",
"861 57 LINE",
"799 76 LINE",
"803 101 OFFCURVE",
"807 149 OFFCURVE",
"818 223 CURVE SMOOTH",
"845 377 LINE SMOOTH",
"861 473 OFFCURVE",
"866 489 OFFCURVE",
"869 512 CURVE",
"938 530 LINE",
"949 587 LINE",
"700 587 LINE",
"432 166 LINE",
"470 166 LINE",
"348 587 LINE",
"122 587 LINE"
);
}
);
};
color = -1;
layerId = "24976ABE-9171-461B-B338-52EF76BD92C7";
paths = (
{
closed = 1;
nodes = (
"105 530 LINE",
"166 511 LINE",
"164 496 OFFCURVE",
"156 455 OFFCURVE",
"141 389 CURVE SMOOTH",
"99 203 LINE SMOOTH",
"88 155 OFFCURVE",
"74 95 OFFCURVE",
"68 76 CURVE",
"-7 57 LINE",
"-16 0 LINE",
"219 0 LINE",
"234 57 LINE",
"167 76 LINE",
"171 105 OFFCURVE",
"181 165 OFFCURVE",
"193 222 CURVE SMOOTH",
"263 558 LINE",
"176 558 LINE",
"337 -3 LINE",
"417 -3 LINE",
"773 558 LINE",
"714 558 LINE",
"651 243 LINE SMOOTH",
"639 181 OFFCURVE",
"621 105 OFFCURVE",
"615 76 CURVE",
"546 57 LINE",
"537 0 LINE",
"842 0 LINE",
"857 57 LINE",
"796 76 LINE",
"800 101 OFFCURVE",
"804 149 OFFCURVE",
"817 223 CURVE SMOOTH",
"844 377 LINE SMOOTH",
"861 473 OFFCURVE",
"865 489 OFFCURVE",
"868 512 CURVE",
"937 530 LINE",
"946 587 LINE",
"699 587 LINE",
"431 166 LINE",
"469 166 LINE",
"347 587 LINE",
"120 587 LINE"
);
}
);
width = 922;
},
{
anchors = (
{
name = bottom;
position = "{368.266, 0}";
},
{
name = top;
position = "{493.266, 587}";
}
);
color = -1;
layerId = "8B4ACB86-485E-4983-BA11-7AC678D884D1";
paths = (
{
closed = 1;
nodes = (
"127.248 549.514 LINE",
"185.092 535.67 LINE",
"179.78 506.532 OFFCURVE",
"168.734 457.238 OFFCURVE",
"156.936 403.202 CURVE SMOOTH",
"111.78 203 LINE SMOOTH",
"91.734 114.972 OFFCURVE",
"79.89 66.596 OFFCURVE",
"75.624 51.33 CURVE",
"4.78 37.486 LINE",
"-1.064 0 LINE",
"195.064 0 LINE",
"205.752 37.486 LINE",
"141.33 51.33 LINE",
"142.174 62.972 OFFCURVE",
"150.44 106.614 OFFCURVE",
"174.064 218.844 CURVE SMOOTH",
"245.22 558 LINE",
"221.762 558 LINE",
"347.624 -3 LINE",
"381.862 -3 LINE",
"744.174 558 LINE",
"718.312 558 LINE",
"645.11 201.458 LINE SMOOTH",
"630.156 128.844 OFFCURVE",
"617 66.596 OFFCURVE",
"613.422 50.752 CURVE",
"549.734 37.486 LINE",
"543.89 0 LINE",
"753.21 0 LINE",
"763.898 37.486 LINE",
"705.476 50.752 LINE",
"708.476 70.44 OFFCURVE",
"715.898 117.44 OFFCURVE",
"733.054 206.706 CURVE SMOOTH",
"770.568 401.67 LINE SMOOTH",
"781.834 461.954 OFFCURVE",
"794.724 522.716 OFFCURVE",
"799.724 536.67 CURVE",
"863.568 549.514 LINE",
"869.412 587 LINE",
"703.89 587 LINE",
"396.44 107.614 LINE",
"412.348 107.614 LINE",
"306.55 587 LINE",
"137.936 587 LINE"
);
}
);
width = 850.146;
}
);
leftKerningGroup = H;
note = M;
rightKerningGroup = H;
unicode = 004D;
},
{
glyphname = N;
lastChange = "2018-11-30 12:57:44 +0000";
layers = (
{
anchors = (
{
name = bottom;
position = "{288, 0}";
},
{
name = top;
position = "{413, 587}";
}
);
background = {
paths = (
{
closed = 1;
nodes = (
"485 127 LINE",
"258 587 LINE",
"135 587 LINE",
"126 555 LINE",
"183 542 LINE",
"182 535 OFFCURVE",
"176 490 OFFCURVE",
"156 394 CURVE SMOOTH",
"119 219 LINE SMOOTH",
"98 120 OFFCURVE",
"84 60 OFFCURVE",
"79 45 CURVE",
"16 32 LINE",
"11 0 LINE",
"188 0 LINE",
"197 32 LINE",
"133 45 LINE",
"137 74 OFFCURVE",
"155 170 OFFCURVE",
"165 215 CURVE SMOOTH",
"226 501 LINE",
"219 501 LINE",
"467 -4 LINE",
"503 -4 LINE",
"512 43 OFFCURVE",
"521 89 OFFCURVE",
"528 122 CURVE SMOOTH",
"583 381 LINE SMOOTH",
"608 497 OFFCURVE",
"615 523 OFFCURVE",
"620 542 CURVE",
"683 555 LINE",
"688 587 LINE",
"512 587 LINE",
"503 555 LINE",
"567 542 LINE",
"565 526 OFFCURVE",
"560 493 OFFCURVE",
"536 381 CURVE SMOOTH",
"482 127 LINE"
);
}
);
};
color = 3;
layerId = "D9A1C40A-2361-406B-8D3E-8FA7FBCB82BD";
paths = (
{
closed = 1;
nodes = (
"485 117 LINE",
"258 587 LINE",
"135 587 LINE",
"126 555 LINE",
"183 542 LINE",
"182 535 OFFCURVE",
"176 490 OFFCURVE",
"156 394 CURVE SMOOTH",
"119 219 LINE SMOOTH",
"98 120 OFFCURVE",
"84 60 OFFCURVE",
"79 45 CURVE",
"16 32 LINE",
"11 0 LINE",
"188 0 LINE",
"197 32 LINE",
"133 45 LINE",
"137 74 OFFCURVE",
"155 170 OFFCURVE",
"165 215 CURVE SMOOTH",
"228 511 LINE",
"219 511 LINE",
"467 -4 LINE",
"503 -4 LINE",
"512 43 OFFCURVE",
"521 89 OFFCURVE",
"528 122 CURVE SMOOTH",
"583 381 LINE SMOOTH",
"608 497 OFFCURVE",
"615 523 OFFCURVE",
"620 542 CURVE",
"683 555 LINE",
"688 587 LINE",
"512 587 LINE",
"503 555 LINE",
"567 542 LINE",
"565 526 OFFCURVE",
"560 493 OFFCURVE",
"536 381 CURVE SMOOTH",
"479 113 LINE"
);
}
);
width = 665;
},
{
anchors = (
{
name = bottom;
position = "{310, 0}";
},
{
name = top;
position = "{435, 587}";
}
);
background = {
anchors = (
{
name = bottom;
position = "{311, 0}";
},
{
name = top;
position = "{436, 587}";
}
);
paths = (
{
closed = 1;
nodes = (
"572 210 LINE",
"281 587 LINE",
"115 587 LINE",
"99 530 LINE",
"160 511 LINE",
"157 482 OFFCURVE",
"149 429 OFFCURVE",
"141 394 CURVE SMOOTH",
"117 280 LINE SMOOTH",
"96 179 OFFCURVE",
"76 103 OFFCURVE",
"68 76 CURVE",
"-2 57 LINE",
"-11 0 LINE",
"220 0 LINE",
"236 57 LINE",
"170 76 LINE",
"171 96 OFFCURVE",
"178 149 OFFCURVE",
"206 282 CURVE SMOOTH",
"240 442 LINE",
"172 442 LINE",
"502 -6 LINE",
"566 -6 LINE",
"576 41 OFFCURVE",
"585 85 OFFCURVE",
"602 159 CURVE SMOOTH",
"636 320 LINE SMOOTH",
"651 395 OFFCURVE",
"670 478 OFFCURVE",
"683 511 CURVE",
"753 530 LINE",
"762 587 LINE",
"535 587 LINE",
"518 530 LINE",
"585 511 LINE",
"583 477 OFFCURVE",
"571 410 OFFCURVE",
"552 320 CURVE SMOOTH",
"529 210 LINE"
);
}
);
};
color = -1;
layerId = "24976ABE-9171-461B-B338-52EF76BD92C7";
paths = (
{
closed = 1;
nodes = (
"566 210 LINE",
"280 587 LINE",
"113 587 LINE",
"98 530 LINE",
"159 511 LINE",
"156 482 OFFCURVE",
"148 429 OFFCURVE",
"140 394 CURVE SMOOTH",
"116 280 LINE SMOOTH",
"95 179 OFFCURVE",
"76 103 OFFCURVE",
"69 76 CURVE",
"-1 57 LINE",
"-10 0 LINE",
"219 0 LINE",
"234 57 LINE",
"167 76 LINE",
"169 96 OFFCURVE",
"176 149 OFFCURVE",
"204 282 CURVE SMOOTH",
"238 442 LINE",
"176 442 LINE",
"501 -6 LINE",
"565 -6 LINE",
"575 41 OFFCURVE",
"584 85 OFFCURVE",
"601 159 CURVE SMOOTH",
"635 320 LINE SMOOTH",
"650 395 OFFCURVE",
"669 478 OFFCURVE",
"682 511 CURVE",
"751 530 LINE",
"760 587 LINE",
"532 587 LINE",
"517 530 LINE",
"584 511 LINE",
"582 477 OFFCURVE",
"570 410 OFFCURVE",
"551 320 CURVE SMOOTH",
"528 210 LINE"
);
}
);
width = 719;
},
{
anchors = (
{
name = bottom;
position = "{291.798, 0}";
},
{
name = top;
position = "{416.798, 587}";
}
);
color = -1;
layerId = "8B4ACB86-485E-4983-BA11-7AC678D884D1";
paths = (
{
closed = 1;
nodes = (
"500.614 138.944 LINE",
"261.798 587 LINE",
"129.936 587 LINE",
"119.248 549.514 LINE",
"177.092 535.67 LINE",
"176.092 524.028 OFFCURVE",
"169.248 476.918 OFFCURVE",
"151.78 394 CURVE SMOOTH",
"117.312 232.082 LINE SMOOTH",
"95.89 132.238 OFFCURVE",
"81.468 69.284 OFFCURVE",
"76.046 51.33 CURVE",
"11.78 37.486 LINE",
"5.936 0 LINE",
"193.908 0 LINE",
"204.174 37.486 LINE",
"139.33 51.33 LINE",
"143.33 78.642 OFFCURVE",
"158.798 165.358 OFFCURVE",
"172.596 228.926 CURVE SMOOTH",
"229.266 494.542 LINE",
"210.138 494.542 LINE",
"472.908 -4.422 LINE",
"514.816 -4.422 LINE",
"524.238 42.578 OFFCURVE",
"533.238 87.734 OFFCURVE",
"541.926 129.596 CURVE SMOOTH",
"592.706 367.918 LINE SMOOTH",
"616.018 475.478 OFFCURVE",
"625.55 513.716 OFFCURVE",
"631.816 535.67 CURVE",
"695.66 549.514 LINE",
"701.504 587 LINE",
"515.376 587 LINE",
"504.688 549.514 LINE",
"569.532 535.67 LINE",
"567.532 515.872 OFFCURVE",
"561.266 475.276 OFFCURVE",
"538.11 367.918 CURVE SMOOTH",
"489.128 136.632 LINE"
);
}
);
width = 674.284;
}
);
leftKerningGroup = H;
note = N;
rightKerningGroup = N;
unicode = 004E;
},
{
glyphname = Eng;
lastChange = "2018-11-30 12:57:44 +0000";
layers = (
{
background = {
paths = (
{
closed = 1;
nodes = (
"485 121 LINE",
"258 587 LINE",
"135 587 LINE",
"126 555 LINE",
"183 542 LINE",
"182 535 OFFCURVE",
"176 490 OFFCURVE",
"156 394 CURVE SMOOTH",
"119 219 LINE SMOOTH",
"98 120 OFFCURVE",
"84 60 OFFCURVE",
"79 45 CURVE",
"16 32 LINE",
"11 0 LINE",
"188 0 LINE",
"197 32 LINE",
"133 45 LINE",
"137 74 OFFCURVE",
"155 170 OFFCURVE",
"165 215 CURVE SMOOTH",
"228 511 LINE",
"219 507 LINE",
"467 -4 LINE",
"503 -4 LINE",
"512 43 OFFCURVE",
"521 89 OFFCURVE",
"528 122 CURVE SMOOTH",
"583 381 LINE SMOOTH",
"608 497 OFFCURVE",
"615 523 OFFCURVE",
"620 542 CURVE",
"683 555 LINE",
"688 587 LINE",
"512 587 LINE",
"503 555 LINE",
"567 542 LINE",
"565 526 OFFCURVE",
"560 493 OFFCURVE",
"536 381 CURVE SMOOTH",
"479 113 LINE"
);
}
);
};
color = 3;
layerId = "D9A1C40A-2361-406B-8D3E-8FA7FBCB82BD";
paths = (
{
closed = 1;
nodes = (
"456 14 LINE SMOOTH",
"431 -108 OFFCURVE",
"388 -143 OFFCURVE",
"321 -143 CURVE SMOOTH",
"291 -143 OFFCURVE",
"260 -134 OFFCURVE",
"242 -119 CURVE",
"229 -135 OFFCURVE",
"226 -147 OFFCURVE",
"226 -160 CURVE SMOOTH",
"226 -187 OFFCURVE",
"256 -202 OFFCURVE",
"292 -202 CURVE SMOOTH",
"396 -202 OFFCURVE",
"477 -116 OFFCURVE",
"512 46 CURVE SMOOTH",
"583 381 LINE SMOOTH",
"608 497 OFFCURVE",
"615 523 OFFCURVE",
"620 542 CURVE",
"683 555 LINE",
"688 587 LINE",
"512 587 LINE",
"503 555 LINE",
"567 542 LINE",
"565 526 OFFCURVE",
"560 492 OFFCURVE",
"536 381 CURVE SMOOTH",
"479 113 LINE",
"485 117 LINE",
"258 587 LINE",
"135 587 LINE",
"126 555 LINE",
"183 542 LINE",
"182 535 OFFCURVE",
"176 490 OFFCURVE",
"156 394 CURVE SMOOTH",
"119 219 LINE SMOOTH",
"98 120 OFFCURVE",
"84 60 OFFCURVE",
"79 45 CURVE",
"16 32 LINE",
"11 0 LINE",
"188 0 LINE",
"197 32 LINE",
"133 45 LINE",
"137 74 OFFCURVE",
"155 170 OFFCURVE",
"165 215 CURVE SMOOTH",
"228 511 LINE",
"219 511 LINE",
"467 -4 LINE",
"466 62 LINE"
);
}
);
width = 665;
},
{
background = {
paths = (
{
closed = 1;
nodes = (
"1387 18 LINE SMOOTH",
"1367 -67 OFFCURVE",
"1329 -82 OFFCURVE",
"1301 -82 CURVE SMOOTH",
"1257 -82 OFFCURVE",
"1232 -65 OFFCURVE",
"1206 -40 CURVE",
"1169 -61 OFFCURVE",
"1141 -96 OFFCURVE",
"1141 -131 CURVE SMOOTH",
"1141 -175 OFFCURVE",
"1179 -204 OFFCURVE",
"1236 -204 CURVE SMOOTH",
"1366 -204 OFFCURVE",
"1460 -41 OFFCURVE",
"1488 91 CURVE SMOOTH",
"1537 320 LINE SMOOTH",
"1553 395 OFFCURVE",
"1571 478 OFFCURVE",
"1584 511 CURVE",
"1654 530 LINE",
"1663 587 LINE",
"1436 587 LINE",
"1419 530 LINE",
"1486 511 LINE",
"1484 477 OFFCURVE",
"1472 410 OFFCURVE",
"1453 320 CURVE SMOOTH",
"1430 210 LINE",
"1473 210 LINE",
"1182 587 LINE",
"1016 587 LINE",
"1000 530 LINE",
"1058 511 LINE",
"1063 514 OFFCURVE",
"1050 430 OFFCURVE",
"1042 394 CURVE SMOOTH",
"1018 280 LINE SMOOTH",
"997 179 OFFCURVE",
"977 103 OFFCURVE",
"969 76 CURVE",
"899 57 LINE",
"892 0 LINE",
"1121 0 LINE",
"1137 57 LINE",
"1071 76 LINE",
"1072 96 OFFCURVE",
"1079 149 OFFCURVE",
"1107 282 CURVE SMOOTH",
"1141 442 LINE",
"1073 442 LINE",
"1403 -6 LINE",
"1398 64 LINE"
);
},
{
closed = 1;
nodes = (
"567 210 LINE",
"281 587 LINE",
"114 587 LINE",
"99 530 LINE",
"160 511 LINE",
"157 482 OFFCURVE",
"149 429 OFFCURVE",
"141 394 CURVE SMOOTH",
"117 280 LINE SMOOTH",
"96 179 OFFCURVE",
"77 103 OFFCURVE",
"70 76 CURVE",
"0 57 LINE",
"-9 0 LINE",
"221 0 LINE",
"236 57 LINE",
"169 76 LINE",
"171 96 OFFCURVE",
"178 149 OFFCURVE",
"206 282 CURVE SMOOTH",
"240 442 LINE",
"177 442 LINE",
"502 -6 LINE",
"566 -6 LINE",
"576 41 OFFCURVE",
"585 85 OFFCURVE",
"602 159 CURVE SMOOTH",
"636 320 LINE SMOOTH",
"651 395 OFFCURVE",
"670 478 OFFCURVE",
"683 511 CURVE",
"752 530 LINE",
"761 587 LINE",
"533 587 LINE",
"518 530 LINE",
"585 511 LINE",
"583 477 OFFCURVE",
"571 410 OFFCURVE",
"552 320 CURVE SMOOTH",
"529 210 LINE"
);
}
);
};
color = -1;
layerId = "24976ABE-9171-461B-B338-52EF76BD92C7";
paths = (
{
closed = 1;
nodes = (
"485 18 LINE SMOOTH",
"465 -67 OFFCURVE",
"428 -82 OFFCURVE",
"400 -82 CURVE SMOOTH",
"356 -82 OFFCURVE",
"331 -65 OFFCURVE",
"305 -40 CURVE",
"268 -61 OFFCURVE",
"240 -96 OFFCURVE",
"240 -131 CURVE SMOOTH",
"240 -175 OFFCURVE",
"278 -204 OFFCURVE",
"335 -204 CURVE SMOOTH",
"465 -204 OFFCURVE",
"558 -41 OFFCURVE",
"586 91 CURVE SMOOTH",
"635 320 LINE SMOOTH",
"651 395 OFFCURVE",
"669 478 OFFCURVE",
"682 511 CURVE",
"752 530 LINE",
"761 587 LINE",
"534 587 LINE",
"517 530 LINE",
"584 511 LINE",
"582 477 OFFCURVE",
"570 410 OFFCURVE",
"551 320 CURVE SMOOTH",
"528 210 LINE",
"566 210 LINE",
"280 587 LINE",
"113 587 LINE",
"98 530 LINE",
"159 511 LINE",
"156 482 OFFCURVE",
"147 429 OFFCURVE",
"140 394 CURVE SMOOTH",
"116 280 LINE SMOOTH",
"95 179 OFFCURVE",
"76 103 OFFCURVE",
"69 76 CURVE",
"-1 57 LINE",
"-10 0 LINE",
"219 0 LINE",
"234 57 LINE",
"167 76 LINE",
"169 96 OFFCURVE",
"176 149 OFFCURVE",
"204 282 CURVE SMOOTH",
"238 442 LINE",
"176 442 LINE",
"501 -6 LINE",
"496 64 LINE"
);
}
);
width = 719;
},
{
color = -1;
layerId = "8B4ACB86-485E-4983-BA11-7AC678D884D1";
paths = (
{
closed = 1;
nodes = (
"461.064 14.844 LINE SMOOTH",
"437.33 -99.138 OFFCURVE",
"395.174 -129.918 OFFCURVE",
"336.192 -129.918 CURVE SMOOTH",
"303.66 -129.918 OFFCURVE",
"273.504 -119.23 OFFCURVE",
"253.816 -102.12 CURVE",
"235.752 -119.386 OFFCURVE",
"227.688 -136.028 OFFCURVE",
"227.688 -153.67 CURVE SMOOTH",
"227.688 -184.468 OFFCURVE",
"259.376 -202.422 OFFCURVE",
"300.018 -202.422 CURVE SMOOTH",
"407.816 -202.422 OFFCURVE",
"493.036 -100.386 OFFCURVE",
"526.348 55.284 CURVE SMOOTH",
"592.706 367.918 LINE SMOOTH",
"616.018 475.478 OFFCURVE",
"625.55 513.716 OFFCURVE",
"631.816 535.67 CURVE",
"695.66 549.514 LINE",
"701.504 587 LINE",
"515.376 587 LINE",
"504.688 549.514 LINE",
"569.532 535.67 LINE",
"567.532 515.872 OFFCURVE",
"561.266 474.698 OFFCURVE",
"538.11 367.918 CURVE SMOOTH",
"489.128 136.632 LINE",
"500.614 138.944 LINE",
"261.798 587 LINE",
"129.936 587 LINE",
"119.248 549.514 LINE",
"176.67 535.67 LINE",
"176.514 528.67 OFFCURVE",
"169.248 477.34 OFFCURVE",
"151.78 394 CURVE SMOOTH",
"117.312 232.082 LINE SMOOTH",
"95.89 132.238 OFFCURVE",
"81.468 69.284 OFFCURVE",
"76.046 51.33 CURVE",
"11.78 37.486 LINE",
"5.936 0 LINE",
"193.908 0 LINE",
"204.174 37.486 LINE",
"139.33 51.33 LINE",
"143.33 78.642 OFFCURVE",
"158.798 165.358 OFFCURVE",
"172.596 228.926 CURVE SMOOTH",
"229.266 494.542 LINE",
"210.138 494.542 LINE",
"472.908 -4.422 LINE",
"471.064 60.312 LINE"
);
}
);
width = 674.284;
}
);
leftKerningGroup = H;
leftMetricsKey = N;
widthMetricsKey = N;
note = Eng;
rightKerningGroup = J;
unicode = 014A;
},
{
glyphname = O;
lastChange = "2018-11-30 12:57:44 +0000";
layers = (
{
anchors = (
{
name = bottom;
position = "{293, 0}";
},
{
name = center;
position = "{355, 294}";
},
{
name = ogonek;
position = "{366, 0}";
},
{
name = top;
position = "{417, 587}";
},
{
name = topleft;
position = "{98, 587}";
},
{
name = topright;
position = "{737, 587}";
}
);
background = {
anchors = (
{
name = bottom;
position = "{293, 0}";
},
{
name = center;
position = "{355, 294}";
},
{
name = ogonek;
position = "{366, 0}";
},
{
name = top;
position = "{417, 587}";
},
{
name = topleft;
position = "{98, 587}";
},
{
name = topright;
position = "{737, 587}";
}
);
paths = (
{
closed = 1;
nodes = (
"485 -9 OFFCURVE",
"645 166 OFFCURVE",
"645 361 CURVE SMOOTH",
"645 505 OFFCURVE",
"558 596 OFFCURVE",
"414 596 CURVE SMOOTH",
"226 596 OFFCURVE",
"66 424 OFFCURVE",
"66 228 CURVE SMOOTH",
"66 84 OFFCURVE",
"157 -9 OFFCURVE",
"305 -9 CURVE SMOOTH"
);
},
{
closed = 1;
nodes = (
"213 35 OFFCURVE",
"143 115 OFFCURVE",
"143 237 CURVE SMOOTH",
"143 415 OFFCURVE",
"255 554 OFFCURVE",
"399 554 CURVE SMOOTH",
"508 554 OFFCURVE",
"572 475 OFFCURVE",
"572 353 CURVE SMOOTH",
"572 174 OFFCURVE",
"463 35 OFFCURVE",
"322 35 CURVE SMOOTH"
);
}
);
};
color = -1;
layerId = "D9A1C40A-2361-406B-8D3E-8FA7FBCB82BD";
paths = (
{
closed = 1;
nodes = (
"485 -9 OFFCURVE",
"645 166 OFFCURVE",
"645 361 CURVE SMOOTH",
"645 505 OFFCURVE",
"558 596 OFFCURVE",
"414 596 CURVE SMOOTH",
"224 596 OFFCURVE",
"66 424 OFFCURVE",
"66 228 CURVE SMOOTH",
"66 84 OFFCURVE",
"157 -9 OFFCURVE",
"305 -9 CURVE SMOOTH"
);
},
{
closed = 1;
nodes = (
"213 35 OFFCURVE",
"143 115 OFFCURVE",
"143 237 CURVE SMOOTH",
"143 415 OFFCURVE",
"255 554 OFFCURVE",
"399 554 CURVE SMOOTH",
"508 554 OFFCURVE",
"572 475 OFFCURVE",
"572 353 CURVE SMOOTH",
"572 174 OFFCURVE",
"463 35 OFFCURVE",
"322 35 CURVE SMOOTH"
);
}
);
width = 678;
},
{
anchors = (
{
name = bottom;
position = "{316, 0}";
},
{
name = center;
position = "{379, 294}";
},
{
name = ogonek;
position = "{392, 0}";
},
{
name = top;
position = "{440, 587}";
},
{
name = topleft;
position = "{95, 587}";
},
{
name = topright;
position = "{785, 587}";
}
);
background = {
anchors = (
{
name = bottom;
position = "{317, 0}";
},
{
name = center;
position = "{379, 294}";
},
{
name = ogonek;
position = "{393, 0}";
},
{
name = top;
position = "{441, 587}";
},
{
name = topleft;
position = "{96, 587}";
},
{
name = topright;
position = "{786, 587}";
}
);
paths = (
{
closed = 1;
nodes = (
"530 -9 OFFCURVE",
"708 166 OFFCURVE",
"708 365 CURVE SMOOTH",
"708 505 OFFCURVE",
"604 596 OFFCURVE",
"437 596 CURVE SMOOTH",
"226 596 OFFCURVE",
"51 434 OFFCURVE",
"51 234 CURVE SMOOTH",
"51 88 OFFCURVE",
"163 -9 OFFCURVE",
"333 -9 CURVE SMOOTH"
);
},
{
closed = 1;
nodes = (
"286 80 OFFCURVE",
"245 137 OFFCURVE",
"245 233 CURVE SMOOTH",
"245 393 OFFCURVE",
"324 519 OFFCURVE",
"417 519 CURVE SMOOTH",
"479 519 OFFCURVE",
"517 469 OFFCURVE",
"517 367 CURVE SMOOTH",
"517 205 OFFCURVE",
"444 80 OFFCURVE",
"350 80 CURVE SMOOTH"
);
}
);
};
color = -1;
layerId = "24976ABE-9171-461B-B338-52EF76BD92C7";
paths = (
{
closed = 1;
nodes = (
"529 -9 OFFCURVE",
"707 166 OFFCURVE",
"707 365 CURVE SMOOTH",
"707 505 OFFCURVE",
"603 596 OFFCURVE",
"436 596 CURVE SMOOTH",
"225 596 OFFCURVE",
"50 434 OFFCURVE",
"50 234 CURVE SMOOTH",
"50 88 OFFCURVE",
"162 -9 OFFCURVE",
"332 -9 CURVE SMOOTH"
);
},
{
closed = 1;
nodes = (
"285 80 OFFCURVE",
"244 137 OFFCURVE",
"244 233 CURVE SMOOTH",
"244 393 OFFCURVE",
"323 519 OFFCURVE",
"416 519 CURVE SMOOTH",
"478 519 OFFCURVE",
"516 469 OFFCURVE",
"516 367 CURVE SMOOTH",
"516 205 OFFCURVE",
"443 80 OFFCURVE",
"349 80 CURVE SMOOTH"
);
}
);
width = 726;
},
{
anchors = (
{
name = bottom;
position = "{297.22, 0}";
},
{
name = center;
position = "{359.22, 294}";
},
{
name = ogonek;
position = "{371.064, 0}";
},
{
name = top;
position = "{421.22, 587}";
},
{
name = topleft;
position = "{96.734, 587}";
},
{
name = topright;
position = "{746.706, 587}";
}
);
color = -1;
layerId = "8B4ACB86-485E-4983-BA11-7AC678D884D1";
paths = (
{
closed = 1;
nodes = (
"493.862 -9 OFFCURVE",
"658.082 166 OFFCURVE",
"658.082 361.844 CURVE SMOOTH",
"658.082 505 OFFCURVE",
"566.862 596 OFFCURVE",
"417.798 596 CURVE SMOOTH",
"224 596 OFFCURVE",
"61.78 426.11 OFFCURVE",
"61.78 229.266 CURVE SMOOTH",
"61.78 84.844 OFFCURVE",
"157.422 -9 OFFCURVE",
"310.064 -9 CURVE SMOOTH"
);
},
{
closed = 1;
nodes = (
"227.348 44.284 OFFCURVE",
"163.678 119.642 OFFCURVE",
"163.678 236.156 CURVE SMOOTH",
"163.678 410.358 OFFCURVE",
"268.504 546.826 OFFCURVE",
"401.954 546.826 CURVE SMOOTH",
"501.248 546.826 OFFCURVE",
"559.34 473.734 OFFCURVE",
"559.34 355.954 CURVE SMOOTH",
"559.34 180.33 OFFCURVE",
"457.936 44.284 OFFCURVE",
"327.064 44.284 CURVE SMOOTH"
);
}
);
width = 686.44;
}
);
leftKerningGroup = O;
note = O;
rightKerningGroup = O;
unicode = 004F;
},
{
glyphname = Ohorn;
lastChange = "2018-11-30 12:57:44 +0000";
layers = (
{
anchors = (
{
name = bottom;
position = "{292, 0}";
},
{
name = center;
position = "{355, 294}";
},
{
name = top;
position = "{417, 587}";
},
{
name = topleft;
position = "{98, 587}";
}
);
background = {
anchors = (
{
name = bottom;
position = "{1092, 0}";
},
{
name = center;
position = "{1155, 294}";
},
{
name = top;
position = "{1217, 587}";
},
{
name = topleft;
position = "{898, 587}";
}
);
paths = (
{
closed = 1;
nodes = (
"1464 659 LINE SMOOTH",
"1447 594 OFFCURVE",
"1418 579 OFFCURVE",
"1374 579 CURVE SMOOTH",
"1328 579 OFFCURVE",
"1271 596 OFFCURVE",
"1214 596 CURVE SMOOTH",
"1026 596 OFFCURVE",
"866 424 OFFCURVE",
"866 228 CURVE SMOOTH",
"866 84 OFFCURVE",
"957 -9 OFFCURVE",
"1105 -9 CURVE SMOOTH",
"1285 -9 OFFCURVE",
"1445 166 OFFCURVE",
"1445 361 CURVE SMOOTH",
"1445 445 OFFCURVE",
"1415 512 OFFCURVE",
"1360 551 CURVE",
"1365 535 LINE",
"1484 535 OFFCURVE",
"1545 617 OFFCURVE",
"1545 666 CURVE SMOOTH",
"1545 700 OFFCURVE",
"1517 715 OFFCURVE",
"1476 706 CURVE"
);
},
{
closed = 1;
nodes = (
"1013 35 OFFCURVE",
"943 115 OFFCURVE",
"943 237 CURVE SMOOTH",
"943 415 OFFCURVE",
"1055 554 OFFCURVE",
"1199 554 CURVE SMOOTH",
"1308 554 OFFCURVE",
"1372 475 OFFCURVE",
"1372 353 CURVE SMOOTH",
"1372 174 OFFCURVE",
"1263 35 OFFCURVE",
"1122 35 CURVE SMOOTH"
);
},
{
closed = 1;
nodes = (
"485 -9 OFFCURVE",
"645 166 OFFCURVE",
"645 361 CURVE SMOOTH",
"645 505 OFFCURVE",
"558 596 OFFCURVE",
"414 596 CURVE SMOOTH",
"224 596 OFFCURVE",
"66 424 OFFCURVE",
"66 228 CURVE SMOOTH",
"66 84 OFFCURVE",
"157 -9 OFFCURVE",
"305 -9 CURVE SMOOTH"
);
},
{
closed = 1;
nodes = (
"213 35 OFFCURVE",
"143 115 OFFCURVE",
"143 237 CURVE SMOOTH",
"143 415 OFFCURVE",
"255 554 OFFCURVE",
"399 554 CURVE SMOOTH",
"508 554 OFFCURVE",
"572 475 OFFCURVE",
"572 353 CURVE SMOOTH",
"572 174 OFFCURVE",
"463 35 OFFCURVE",
"322 35 CURVE SMOOTH"
);
}
);
};
color = -1;
layerId = "D9A1C40A-2361-406B-8D3E-8FA7FBCB82BD";
paths = (
{
closed = 1;
nodes = (
"664 659 LINE SMOOTH",
"647 594 OFFCURVE",
"618 579 OFFCURVE",
"574 579 CURVE SMOOTH",
"528 579 OFFCURVE",
"471 596 OFFCURVE",
"414 596 CURVE SMOOTH",
"224 596 OFFCURVE",
"66 424 OFFCURVE",
"66 228 CURVE SMOOTH",
"66 84 OFFCURVE",
"157 -9 OFFCURVE",
"305 -9 CURVE SMOOTH",
"485 -9 OFFCURVE",
"645 166 OFFCURVE",
"645 361 CURVE SMOOTH",
"645 445 OFFCURVE",
"615 512 OFFCURVE",
"560 551 CURVE",
"565 535 LINE",
"684 535 OFFCURVE",
"745 617 OFFCURVE",
"745 666 CURVE SMOOTH",
"745 700 OFFCURVE",
"717 715 OFFCURVE",
"676 706 CURVE"
);
},
{
closed = 1;
nodes = (
"213 35 OFFCURVE",
"143 115 OFFCURVE",
"143 237 CURVE SMOOTH",
"143 415 OFFCURVE",
"255 554 OFFCURVE",
"399 554 CURVE SMOOTH",
"508 554 OFFCURVE",
"572 475 OFFCURVE",
"572 353 CURVE SMOOTH",
"572 174 OFFCURVE",
"463 35 OFFCURVE",
"322 35 CURVE SMOOTH"
);
}
);
width = 678;
},
{
anchors = (
{
name = bottom;
position = "{315, 0}";
},
{
name = center;
position = "{378, 294}";
},
{
name = top;
position = "{440, 587}";
},
{
name = topleft;
position = "{95, 587}";
}
);
background = {
anchors = (
{
name = bottom;
position = "{1216, 0}";
},
{
name = center;
position = "{1279, 294}";
},
{
name = top;
position = "{1341, 587}";
},
{
name = topleft;
position = "{996, 587}";
}
);
paths = (
{
closed = 1;
nodes = (
"1584 657 LINE SMOOTH",
"1575 619 OFFCURVE",
"1538 581 OFFCURVE",
"1492 581 CURVE SMOOTH",
"1438 581 OFFCURVE",
"1398 596 OFFCURVE",
"1337 596 CURVE SMOOTH",
"1126 596 OFFCURVE",
"951 434 OFFCURVE",
"951 234 CURVE SMOOTH",
"951 88 OFFCURVE",
"1063 -9 OFFCURVE",
"1233 -9 CURVE SMOOTH",
"1430 -9 OFFCURVE",
"1608 166 OFFCURVE",
"1608 365 CURVE SMOOTH",
"1608 439 OFFCURVE",
"1578 500 OFFCURVE",
"1527 541 CURVE",
"1511 518 LINE",
"1625 518 OFFCURVE",
"1716 600 OFFCURVE",
"1716 676 CURVE SMOOTH",
"1716 726 OFFCURVE",
"1663 729 OFFCURVE",
"1600 723 CURVE"
);
},
{
closed = 1;
nodes = (
"1186 80 OFFCURVE",
"1145 137 OFFCURVE",
"1145 233 CURVE SMOOTH",
"1145 393 OFFCURVE",
"1224 519 OFFCURVE",
"1317 519 CURVE SMOOTH",
"1379 519 OFFCURVE",
"1417 469 OFFCURVE",
"1417 367 CURVE SMOOTH",
"1417 205 OFFCURVE",
"1344 80 OFFCURVE",
"1250 80 CURVE SMOOTH"
);
},
{
closed = 1;
nodes = (
"530 -9 OFFCURVE",
"708 166 OFFCURVE",
"708 365 CURVE SMOOTH",
"708 505 OFFCURVE",
"604 596 OFFCURVE",
"437 596 CURVE SMOOTH",
"226 596 OFFCURVE",
"51 434 OFFCURVE",
"51 234 CURVE SMOOTH",
"51 88 OFFCURVE",
"163 -9 OFFCURVE",
"333 -9 CURVE SMOOTH"
);
},
{
closed = 1;
nodes = (
"286 80 OFFCURVE",
"245 137 OFFCURVE",
"245 233 CURVE SMOOTH",
"245 393 OFFCURVE",
"324 519 OFFCURVE",
"417 519 CURVE SMOOTH",
"479 519 OFFCURVE",
"517 469 OFFCURVE",
"517 367 CURVE SMOOTH",
"517 205 OFFCURVE",
"444 80 OFFCURVE",
"350 80 CURVE SMOOTH"
);
}
);
};
color = -1;
layerId = "24976ABE-9171-461B-B338-52EF76BD92C7";
paths = (
{
closed = 1;
nodes = (
"683 657 LINE SMOOTH",
"672 619 OFFCURVE",
"637 581 OFFCURVE",
"591 581 CURVE SMOOTH",
"537 581 OFFCURVE",
"497 596 OFFCURVE",
"436 596 CURVE SMOOTH",
"225 596 OFFCURVE",
"50 434 OFFCURVE",
"50 234 CURVE SMOOTH",
"50 88 OFFCURVE",
"162 -9 OFFCURVE",
"332 -9 CURVE SMOOTH",
"529 -9 OFFCURVE",
"707 166 OFFCURVE",
"707 365 CURVE SMOOTH",
"707 439 OFFCURVE",
"677 500 OFFCURVE",
"626 541 CURVE",
"610 518 LINE",
"724 518 OFFCURVE",
"815 600 OFFCURVE",
"815 676 CURVE SMOOTH",
"815 726 OFFCURVE",
"762 729 OFFCURVE",
"699 723 CURVE"
);
},
{
closed = 1;
nodes = (
"285 80 OFFCURVE",
"244 137 OFFCURVE",
"244 233 CURVE SMOOTH",
"244 393 OFFCURVE",
"323 519 OFFCURVE",
"416 519 CURVE SMOOTH",
"478 519 OFFCURVE",
"516 469 OFFCURVE",
"516 367 CURVE SMOOTH",
"516 205 OFFCURVE",
"443 80 OFFCURVE",
"349 80 CURVE SMOOTH"
);
}
);
width = 726;
},
{
anchors = (
{
name = bottom;
position = "{296.22, 0}";
},
{
name = center;
position = "{359.22, 294}";
},
{
name = top;
position = "{421.22, 587}";
},
{
name = topleft;
position = "{96.734, 587}";
}
);
color = -1;
layerId = "8B4ACB86-485E-4983-BA11-7AC678D884D1";
paths = (
{
closed = 1;
nodes = (
"667.376 658.578 LINE SMOOTH",
"652.064 599.486 OFFCURVE",
"621.376 579.422 OFFCURVE",
"576.954 579.422 CURVE SMOOTH",
"529.266 579.422 OFFCURVE",
"476.064 596 OFFCURVE",
"417.798 596 CURVE SMOOTH",
"224 596 OFFCURVE",
"61.78 426.11 OFFCURVE",
"61.78 229.266 CURVE SMOOTH",
"61.78 84.844 OFFCURVE",
"157.422 -9 OFFCURVE",
"310.064 -9 CURVE SMOOTH",
"493.862 -9 OFFCURVE",
"658.082 166 OFFCURVE",
"658.082 361.844 CURVE SMOOTH",
"658.082 443.734 OFFCURVE",
"627.66 509.468 OFFCURVE",
"573.504 548.89 CURVE",
"573.862 531.624 LINE",
"691.596 531.624 OFFCURVE",
"759.348 613.624 OFFCURVE",
"759.348 668.11 CURVE SMOOTH",
"759.348 705.486 OFFCURVE",
"725.862 717.954 OFFCURVE",
"680.22 709.376 CURVE"
);
},
{
closed = 1;
nodes = (
"227.348 44.284 OFFCURVE",
"163.678 119.642 OFFCURVE",
"163.678 236.156 CURVE SMOOTH",
"163.678 410.358 OFFCURVE",
"268.504 546.826 OFFCURVE",
"401.954 546.826 CURVE SMOOTH",
"501.248 546.826 OFFCURVE",
"559.34 473.734 OFFCURVE",
"559.34 355.954 CURVE SMOOTH",
"559.34 180.33 OFFCURVE",
"457.936 44.284 OFFCURVE",
"327.064 44.284 CURVE SMOOTH"
);
}
);
width = 686.44;
}
);
leftKerningGroup = O;
leftMetricsKey = O;
widthMetricsKey = O;
note = Ohorn;
rightKerningGroup = O;
unicode = 01A0;
},
{
glyphname = Oogonek;
lastChange = "2018-11-30 12:57:44 +0000";
layers = (
{
anchors = (
{
name = center;
position = "{355, 294}";
},
{
name = top;
position = "{417, 587}";
},
{
name = topleft;
position = "{98, 587}";
},
{
name = topright;
position = "{737, 587}";
}
);
background = {
anchors = (
{
name = center;
position = "{1155, 294}";
},
{
name = top;
position = "{1217, 587}";
},
{
name = topleft;
position = "{898, 587}";
},
{
name = topright;
position = "{1537, 587}";
}
);
paths = (
{
closed = 1;
nodes = (
"1116 -223 OFFCURVE",
"1157 -205 OFFCURVE",
"1189 -173 CURVE",
"1175 -152 LINE",
"1148 -175 OFFCURVE",
"1124 -187 OFFCURVE",
"1099 -187 CURVE SMOOTH",
"1065 -187 OFFCURVE",
"1048 -170 OFFCURVE",
"1048 -141 CURVE SMOOTH",
"1048 -84 OFFCURVE",
"1116 -21 OFFCURVE",
"1200 7 CURVE SMOOTH",
"1339 53 OFFCURVE",
"1445 203 OFFCURVE",
"1445 361 CURVE SMOOTH",
"1445 505 OFFCURVE",
"1358 596 OFFCURVE",
"1214 596 CURVE SMOOTH",
"1026 596 OFFCURVE",
"866 424 OFFCURVE",
"866 228 CURVE SMOOTH",
"866 84 OFFCURVE",
"957 -9 OFFCURVE",
"1108 -9 CURVE SMOOTH",
"1145 -9 LINE",
"1141 7 LINE",
"1055 -32 OFFCURVE",
"988 -87 OFFCURVE",
"988 -152 CURVE SMOOTH",
"988 -190 OFFCURVE",
"1014 -223 OFFCURVE",
"1079 -223 CURVE SMOOTH"
);
},
{
closed = 1;
nodes = (
"1013 35 OFFCURVE",
"943 115 OFFCURVE",
"943 237 CURVE SMOOTH",
"943 415 OFFCURVE",
"1055 554 OFFCURVE",
"1199 554 CURVE SMOOTH",
"1308 554 OFFCURVE",
"1372 475 OFFCURVE",
"1372 353 CURVE SMOOTH",
"1372 174 OFFCURVE",
"1263 35 OFFCURVE",
"1122 35 CURVE SMOOTH"
);
},
{
closed = 1;
nodes = (
"485 -9 OFFCURVE",
"645 166 OFFCURVE",
"645 361 CURVE SMOOTH",
"645 505 OFFCURVE",
"558 596 OFFCURVE",
"414 596 CURVE SMOOTH",
"224 596 OFFCURVE",
"66 424 OFFCURVE",
"66 228 CURVE SMOOTH",
"66 84 OFFCURVE",
"157 -9 OFFCURVE",
"305 -9 CURVE SMOOTH"
);
},
{
closed = 1;
nodes = (
"213 35 OFFCURVE",
"143 115 OFFCURVE",
"143 237 CURVE SMOOTH",
"143 415 OFFCURVE",
"255 554 OFFCURVE",
"399 554 CURVE SMOOTH",
"508 554 OFFCURVE",
"572 475 OFFCURVE",
"572 353 CURVE SMOOTH",
"572 174 OFFCURVE",
"463 35 OFFCURVE",
"322 35 CURVE SMOOTH"
);
}
);
};
color = -1;
layerId = "D9A1C40A-2361-406B-8D3E-8FA7FBCB82BD";
paths = (
{
closed = 1;
nodes = (
"316 -223 OFFCURVE",
"357 -205 OFFCURVE",
"389 -173 CURVE",
"375 -152 LINE",
"348 -175 OFFCURVE",
"324 -187 OFFCURVE",
"299 -187 CURVE SMOOTH",
"265 -187 OFFCURVE",
"248 -170 OFFCURVE",
"248 -141 CURVE SMOOTH",
"248 -84 OFFCURVE",
"316 -22 OFFCURVE",
"400 7 CURVE SMOOTH",
"538 54 OFFCURVE",
"645 203 OFFCURVE",
"645 361 CURVE SMOOTH",
"645 505 OFFCURVE",
"558 596 OFFCURVE",
"414 596 CURVE SMOOTH",
"224 596 OFFCURVE",
"66 424 OFFCURVE",
"66 228 CURVE SMOOTH",
"66 84 OFFCURVE",
"157 -9 OFFCURVE",
"308 -9 CURVE SMOOTH",
"345 -9 LINE",
"341 7 LINE",
"255 -32 OFFCURVE",
"188 -87 OFFCURVE",
"188 -152 CURVE SMOOTH",
"188 -190 OFFCURVE",
"214 -223 OFFCURVE",
"279 -223 CURVE SMOOTH"
);
},
{
closed = 1;
nodes = (
"213 35 OFFCURVE",
"143 115 OFFCURVE",
"143 237 CURVE SMOOTH",
"143 415 OFFCURVE",
"255 554 OFFCURVE",
"399 554 CURVE SMOOTH",
"508 554 OFFCURVE",
"572 475 OFFCURVE",
"572 353 CURVE SMOOTH",
"572 174 OFFCURVE",
"463 35 OFFCURVE",
"322 35 CURVE SMOOTH"
);
}
);
width = 678;
},
{
anchors = (
{
name = center;
position = "{378, 294}";
},
{
name = top;
position = "{440, 587}";
},
{
name = topleft;
position = "{95, 587}";
},
{
name = topright;
position = "{785, 587}";
}
);
background = {
paths = (
{
closed = 1;
nodes = (
"530 -9 OFFCURVE",
"708 166 OFFCURVE",
"708 365 CURVE SMOOTH",
"708 505 OFFCURVE",
"604 596 OFFCURVE",
"437 596 CURVE SMOOTH",
"226 596 OFFCURVE",
"51 434 OFFCURVE",
"51 234 CURVE SMOOTH",
"51 88 OFFCURVE",
"163 -9 OFFCURVE",
"333 -9 CURVE SMOOTH"
);
},
{
closed = 1;
nodes = (
"286 80 OFFCURVE",
"245 137 OFFCURVE",
"245 233 CURVE SMOOTH",
"245 393 OFFCURVE",
"324 519 OFFCURVE",
"417 519 CURVE SMOOTH",
"479 519 OFFCURVE",
"517 469 OFFCURVE",
"517 367 CURVE SMOOTH",
"517 205 OFFCURVE",
"444 80 OFFCURVE",
"350 80 CURVE SMOOTH"
);
}
);
};
color = -1;
layerId = "24976ABE-9171-461B-B338-52EF76BD92C7";
paths = (
{
closed = 1;
nodes = (
"356 -223 OFFCURVE",
"397 -205 OFFCURVE",
"429 -173 CURVE",
"408 -127 LINE",
"384 -150 OFFCURVE",
"357 -161 OFFCURVE",
"336 -161 CURVE SMOOTH",
"315 -161 OFFCURVE",
"293 -148 OFFCURVE",
"293 -119 CURVE SMOOTH",
"293 -86 OFFCURVE",
"314 -50 OFFCURVE",
"470 19 CURVE SMOOTH",
"599 76 OFFCURVE",
"707 209 OFFCURVE",
"707 365 CURVE SMOOTH",
"707 505 OFFCURVE",
"603 596 OFFCURVE",
"436 596 CURVE SMOOTH",
"225 596 OFFCURVE",
"50 434 OFFCURVE",
"50 234 CURVE SMOOTH",
"50 88 OFFCURVE",
"162 -9 OFFCURVE",
"331 -9 CURVE SMOOTH",
"346 -9 LINE",
"348 5 LINE",
"231 -28 OFFCURVE",
"179 -81 OFFCURVE",
"179 -131 CURVE SMOOTH",
"179 -188 OFFCURVE",
"240 -223 OFFCURVE",
"305 -223 CURVE SMOOTH"
);
},
{
closed = 1;
nodes = (
"285 80 OFFCURVE",
"244 137 OFFCURVE",
"244 233 CURVE SMOOTH",
"244 393 OFFCURVE",
"323 519 OFFCURVE",
"416 519 CURVE SMOOTH",
"478 519 OFFCURVE",
"516 469 OFFCURVE",
"516 367 CURVE SMOOTH",
"516 205 OFFCURVE",
"443 80 OFFCURVE",
"349 80 CURVE SMOOTH"
);
}
);
width = 726;
},
{
anchors = (
{
name = center;
position = "{359.22, 294}";
},
{
name = top;
position = "{421.22, 587}";
},
{
name = topleft;
position = "{96.734, 587}";
},
{
name = topright;
position = "{746.706, 587}";
}
);
color = -1;
layerId = "8B4ACB86-485E-4983-BA11-7AC678D884D1";
paths = (
{
closed = 1;
nodes = (
"323.596 -223 OFFCURVE",
"364.596 -205 OFFCURVE",
"396.596 -173 CURVE",
"381.33 -146.514 LINE",
"354.752 -169.514 OFFCURVE",
"330.33 -181.514 OFFCURVE",
"306.174 -181.514 CURVE SMOOTH",
"274.706 -181.514 OFFCURVE",
"256.862 -165.358 OFFCURVE",
"256.862 -136.358 CURVE SMOOTH",
"256.862 -84.422 OFFCURVE",
"314.734 -27.064 OFFCURVE",
"414.348 9.532 CURVE SMOOTH",
"550.238 58.642 OFFCURVE",
"658.082 204.266 OFFCURVE",
"658.082 361.844 CURVE SMOOTH",
"658.082 505 OFFCURVE",
"566.862 596 OFFCURVE",
"417.798 596 CURVE SMOOTH",
"224 596 OFFCURVE",
"61.78 426.11 OFFCURVE",
"61.78 229.266 CURVE SMOOTH",
"61.78 84.844 OFFCURVE",
"157.422 -9 OFFCURVE",
"312.22 -9 CURVE SMOOTH",
"344.578 -9 LINE",
"341.844 6.578 LINE",
"249.092 -31.156 OFFCURVE",
"185.468 -85.734 OFFCURVE",
"185.468 -147.358 CURVE SMOOTH",
"185.468 -189.578 OFFCURVE",
"219.064 -223 OFFCURVE",
"284.064 -223 CURVE SMOOTH"
);
},
{
closed = 1;
nodes = (
"227.348 44.284 OFFCURVE",
"163.678 119.642 OFFCURVE",
"163.678 236.156 CURVE SMOOTH",
"163.678 410.358 OFFCURVE",
"268.504 546.826 OFFCURVE",
"401.954 546.826 CURVE SMOOTH",
"501.248 546.826 OFFCURVE",
"559.34 473.734 OFFCURVE",
"559.34 355.954 CURVE SMOOTH",
"559.34 180.33 OFFCURVE",
"457.936 44.284 OFFCURVE",
"327.064 44.284 CURVE SMOOTH"
);
}
);
width = 686.44;
}
);
leftKerningGroup = O;
leftMetricsKey = O;
widthMetricsKey = O;
rightKerningGroup = O;
unicode = 01EA;
},
{
glyphname = OE;
lastChange = "2018-11-30 12:57:44 +0000";
layers = (
{
anchors = (
{
name = bottom;
position = "{475, 0}";
},
{
name = top;
position = "{600, 587}";
}
);
background = {
anchors = (
{
name = bottom;
position = "{475, 0}";
},
{
name = top;
position = "{600, 587}";
}
);
paths = (
{
closed = 1;
nodes = (
"399 -9 OFFCURVE",
"454 0 OFFCURVE",
"484 0 CURVE SMOOTH",
"727 0 LINE SMOOTH",
"745 0 OFFCURVE",
"758 0 OFFCURVE",
"799 -5 CURVE",
"861 134 LINE",
"818 142 LINE",
"753 49 LINE",
"745 46 OFFCURVE",
"722 45 OFFCURVE",
"683 45 CURVE SMOOTH",
"569 45 LINE SMOOTH",
"554 45 OFFCURVE",
"538 46 OFFCURVE",
"517 49 CURVE",
"518 58 OFFCURVE",
"527 107 OFFCURVE",
"532 134 CURVE SMOOTH",
"597 433 LINE SMOOTH",
"605 470 OFFCURVE",
"621 535 OFFCURVE",
"623 542 CURVE",
"643 543 OFFCURVE",
"647 544 OFFCURVE",
"670 544 CURVE SMOOTH",
"807 544 LINE SMOOTH",
"822 544 OFFCURVE",
"835 543 OFFCURVE",
"842 542 CURVE",
"854 459 LINE",
"895 464 LINE",
"907 591 LINE",
"865 587 OFFCURVE",
"853 587 OFFCURVE",
"831 587 CURVE SMOOTH",
"589 587 LINE SMOOTH",
"533 587 OFFCURVE",
"500 594 OFFCURVE",
"453 594 CURVE SMOOTH",
"245 594 OFFCURVE",
"65 441 OFFCURVE",
"65 225 CURVE SMOOTH",
"65 72 OFFCURVE",
"172 -9 OFFCURVE",
"344 -9 CURVE SMOOTH"
);
},
{
closed = 1;
nodes = (
"217 36 OFFCURVE",
"140 110 OFFCURVE",
"140 237 CURVE SMOOTH",
"140 393 OFFCURVE",
"238 549 OFFCURVE",
"437 549 CURVE SMOOTH",
"486 549 OFFCURVE",
"518 545 OFFCURVE",
"556 536 CURVE",
"551 506 OFFCURVE",
"550 496 OFFCURVE",
"528 391 CURVE SMOOTH",
"484 184 LINE SMOOTH",
"461 80 OFFCURVE",
"458 69 OFFCURVE",
"452 49 CURVE",
"425 41 OFFCURVE",
"391 36 OFFCURVE",
"360 36 CURVE SMOOTH"
);
},
{
closed = 1;
nodes = (
"770 208 LINE",
"810 398 LINE",
"774 398 LINE",
"746 327 LINE",
"737 324 OFFCURVE",
"723 324 OFFCURVE",
"703 324 CURVE SMOOTH",
"624 324 LINE SMOOTH",
"609 324 OFFCURVE",
"589 324 OFFCURVE",
"564 325 CURVE",
"553 279 LINE",
"580 280 OFFCURVE",
"601 281 OFFCURVE",
"616 281 CURVE SMOOTH",
"697 281 LINE SMOOTH",
"717 281 OFFCURVE",
"729 280 OFFCURVE",
"736 277 CURVE",
"734 208 LINE"
);
}
);
};
color = -1;
layerId = "D9A1C40A-2361-406B-8D3E-8FA7FBCB82BD";
paths = (
{
closed = 1;
nodes = (
"399 -9 OFFCURVE",
"454 0 OFFCURVE",
"484 0 CURVE SMOOTH",
"727 0 LINE SMOOTH",
"745 0 OFFCURVE",
"768 -1 OFFCURVE",
"799 -5 CURVE",
"861 134 LINE",
"818 142 LINE",
"753 49 LINE",
"745 46 OFFCURVE",
"722 45 OFFCURVE",
"683 45 CURVE SMOOTH",
"570 45 LINE SMOOTH",
"555 45 OFFCURVE",
"538 46 OFFCURVE",
"517 49 CURVE",
"518 58 OFFCURVE",
"527 107 OFFCURVE",
"533 134 CURVE SMOOTH",
"597 433 LINE SMOOTH",
"605 470 OFFCURVE",
"621 535 OFFCURVE",
"623 542 CURVE",
"643 543 OFFCURVE",
"647 544 OFFCURVE",
"670 544 CURVE SMOOTH",
"807 544 LINE SMOOTH",
"822 544 OFFCURVE",
"835 543 OFFCURVE",
"842 542 CURVE",
"854 459 LINE",
"895 464 LINE",
"907 591 LINE",
"875 587 OFFCURVE",
"853 587 OFFCURVE",
"831 587 CURVE SMOOTH",
"589 587 LINE SMOOTH",
"533 587 OFFCURVE",
"500 594 OFFCURVE",
"453 594 CURVE SMOOTH",
"229 594 OFFCURVE",
"67 428 OFFCURVE",
"67 225 CURVE SMOOTH",
"67 72 OFFCURVE",
"175 -9 OFFCURVE",
"344 -9 CURVE SMOOTH"
);
},
{
closed = 1;
nodes = (
"220 36 OFFCURVE",
"142 110 OFFCURVE",
"142 237 CURVE SMOOTH",
"142 393 OFFCURVE",
"240 549 OFFCURVE",
"437 549 CURVE SMOOTH",
"486 549 OFFCURVE",
"518 545 OFFCURVE",
"556 536 CURVE",
"551 506 OFFCURVE",
"550 496 OFFCURVE",
"528 391 CURVE SMOOTH",
"484 184 LINE SMOOTH",
"461 80 OFFCURVE",
"458 69 OFFCURVE",
"452 49 CURVE",
"425 41 OFFCURVE",
"391 36 OFFCURVE",
"360 36 CURVE SMOOTH"
);
},
{
closed = 1;
nodes = (
"770 207 LINE",
"810 398 LINE",
"774 398 LINE",
"745 327 LINE",
"736 325 OFFCURVE",
"723 324 OFFCURVE",
"703 324 CURVE SMOOTH",
"618 324 LINE SMOOTH",
"603 324 OFFCURVE",
"583 324 OFFCURVE",
"558 325 CURVE",
"547 278 LINE",
"574 279 OFFCURVE",
"595 280 OFFCURVE",
"610 280 CURVE SMOOTH",
"696 280 LINE SMOOTH",
"716 280 OFFCURVE",
"729 278 OFFCURVE",
"736 276 CURVE",
"734 207 LINE"
);
}
);
width = 914;
},
{
anchors = (
{
name = bottom;
position = "{486, 0}";
},
{
name = top;
position = "{611, 587}";
}
);
background = {
paths = (
{
closed = 1;
nodes = (
"918 166 LINE",
"851 178 LINE",
"778 75 LINE",
"757 72 OFFCURVE",
"742 71 OFFCURVE",
"708 71 CURVE SMOOTH",
"677 71 LINE SMOOTH",
"649 71 OFFCURVE",
"616 72 OFFCURVE",
"589 76 CURVE",
"591 96 OFFCURVE",
"601 152 OFFCURVE",
"612 202 CURVE SMOOTH",
"652 390 LINE SMOOTH",
"662 437 OFFCURVE",
"676 499 OFFCURVE",
"682 519 CURVE",
"697 521 OFFCURVE",
"723 522 OFFCURVE",
"751 522 CURVE SMOOTH",
"792 522 LINE SMOOTH",
"809 522 OFFCURVE",
"820 521 OFFCURVE",
"842 517 CURVE",
"856 428 LINE",
"925 435 LINE",
"933 593 LINE",
"890 590 OFFCURVE",
"792 587 OFFCURVE",
"746 587 CURVE SMOOTH",
"428 587 LINE",
"413 529 LINE",
"506 511 LINE",
"506 553 LINE",
"73 76 LINE",
"13 58 LINE",
"4 0 LINE",
"221 0 LINE",
"236 58 LINE",
"177 76 LINE",
"548 498 LINE",
"508 492 LINE",
"448 208 LINE SMOOTH",
"438 160 OFFCURVE",
"428 110 OFFCURVE",
"418 76 CURVE",
"351 57 LINE",
"342 0 LINE",
"674 0 LINE SMOOTH",
"725 0 OFFCURVE",
"797 -3 OFFCURVE",
"838 -7 CURVE"
);
},
{
closed = 1;
nodes = (
"240 152 OFFCURVE",
"279 154 OFFCURVE",
"336 154 CURVE SMOOTH",
"380 154 OFFCURVE",
"419 153 OFFCURVE",
"461 152 CURVE",
"480 228 LINE",
"435 224 OFFCURVE",
"398 223 OFFCURVE",
"351 223 CURVE SMOOTH",
"287 223 OFFCURVE",
"293 226 OFFCURVE",
"262 228 CURVE",
"218 150 LINE"
);
},
{
closed = 1;
nodes = (
"803 196 LINE",
"847 404 LINE",
"782 404 LINE",
"760 340 LINE",
"751 339 OFFCURVE",
"726 338 OFFCURVE",
"697 338 CURVE SMOOTH",
"670 338 LINE SMOOTH",
"643 338 OFFCURVE",
"619 341 OFFCURVE",
"615 342 CURVE",
"598 261 LINE",
"602 262 OFFCURVE",
"626 264 OFFCURVE",
"654 264 CURVE SMOOTH",
"681 264 LINE SMOOTH",
"709 264 OFFCURVE",
"733 264 OFFCURVE",
"743 263 CURVE",
"738 196 LINE"
);
}
);
};
color = -1;
layerId = "24976ABE-9171-461B-B338-52EF76BD92C7";
paths = (
{
closed = 1;
nodes = (
"369 -9 OFFCURVE",
"408 0 OFFCURVE",
"471 0 CURVE SMOOTH",
"665 0 LINE SMOOTH",
"716 0 OFFCURVE",
"788 -3 OFFCURVE",
"829 -7 CURVE",
"909 166 LINE",
"842 178 LINE",
"769 75 LINE",
"748 72 OFFCURVE",
"733 71 OFFCURVE",
"699 71 CURVE SMOOTH",
"668 71 LINE SMOOTH",
"630 71 OFFCURVE",
"606 73 OFFCURVE",
"588 76 CURVE",
"590 96 OFFCURVE",
"600 152 OFFCURVE",
"611 202 CURVE SMOOTH",
"651 390 LINE SMOOTH",
"661 437 OFFCURVE",
"675 499 OFFCURVE",
"681 519 CURVE",
"696 521 OFFCURVE",
"721 522 OFFCURVE",
"754 522 CURVE SMOOTH",
"784 522 LINE SMOOTH",
"800 522 OFFCURVE",
"812 521 OFFCURVE",
"833 517 CURVE",
"847 428 LINE",
"916 435 LINE",
"924 593 LINE",
"881 590 OFFCURVE",
"783 587 OFFCURVE",
"739 587 CURVE SMOOTH",
"606 587 LINE SMOOTH",
"560 587 OFFCURVE",
"517 592 OFFCURVE",
"468 592 CURVE SMOOTH",
"219 592 OFFCURVE",
"49 427 OFFCURVE",
"49 221 CURVE SMOOTH",
"49 93 OFFCURVE",
"155 -9 OFFCURVE",
"331 -9 CURVE SMOOTH"
);
},
{
closed = 1;
nodes = (
"301 76 OFFCURVE",
"249 132 OFFCURVE",
"249 233 CURVE SMOOTH",
"249 376 OFFCURVE",
"328 517 OFFCURVE",
"459 517 CURVE SMOOTH",
"477 517 OFFCURVE",
"498 515 OFFCURVE",
"504 513 CURVE",
"505 499 OFFCURVE",
"488 404 OFFCURVE",
"480 366 CURVE SMOOTH",
"454 241 LINE SMOOTH",
"448 206 OFFCURVE",
"424 107 OFFCURVE",
"417 82 CURVE",
"399 77 OFFCURVE",
"385 76 OFFCURVE",
"367 76 CURVE SMOOTH"
);
},
{
closed = 1;
nodes = (
"794 196 LINE",
"838 404 LINE",
"773 404 LINE",
"751 340 LINE",
"742 339 OFFCURVE",
"716 338 OFFCURVE",
"688 338 CURVE SMOOTH",
"666 338 LINE SMOOTH",
"638 338 OFFCURVE",
"617 341 OFFCURVE",
"612 342 CURVE",
"595 261 LINE",
"600 262 OFFCURVE",
"622 264 OFFCURVE",
"650 264 CURVE SMOOTH",
"671 264 LINE SMOOTH",
"699 264 OFFCURVE",
"724 264 OFFCURVE",
"734 263 CURVE",
"729 196 LINE"
);
}
);
width = 934;
},
{
anchors = (
{
name = bottom;
position = "{476.688, 0}";
},
{
name = top;
position = "{601.688, 587}";
}
);
color = -1;
layerId = "8B4ACB86-485E-4983-BA11-7AC678D884D1";
paths = (
{
closed = 1;
nodes = (
"392.248 -9 OFFCURVE",
"443.45 0 OFFCURVE",
"480.624 0 CURVE SMOOTH",
"713.496 0 LINE SMOOTH",
"738.67 0 OFFCURVE",
"771.798 -1.844 OFFCURVE",
"804.908 -5.422 CURVE",
"870.706 140.752 LINE",
"823.064 149.596 LINE",
"755.954 54.486 LINE",
"745.422 51.486 OFFCURVE",
"727.908 50.486 OFFCURVE",
"685.532 50.486 CURVE SMOOTH",
"594.476 50.486 LINE SMOOTH",
"572.724 50.486 OFFCURVE",
"554.036 51.486 OFFCURVE",
"531.348 54.908 CURVE",
"532.348 66.44 OFFCURVE",
"540.926 112.908 OFFCURVE",
"549.458 151.724 CURVE SMOOTH",
"607.55 423.716 LINE SMOOTH",
"617.238 469.578 OFFCURVE",
"631.55 527.404 OFFCURVE",
"634.394 536.514 CURVE",
"652.706 538.358 OFFCURVE",
"662.192 539.358 OFFCURVE",
"687.302 539.358 CURVE SMOOTH",
"801.936 539.358 LINE SMOOTH",
"816.936 539.358 OFFCURVE",
"829.936 538.358 OFFCURVE",
"839.89 536.514 CURVE",
"852.312 452.67 LINE",
"899.22 457.67 LINE",
"910.376 591.422 LINE",
"875.844 588.266 OFFCURVE",
"838.652 587 OFFCURVE",
"810.744 587 CURVE SMOOTH",
"591.954 587 LINE SMOOTH",
"538.064 587 OFFCURVE",
"502.954 593.578 OFFCURVE",
"455.532 593.578 CURVE SMOOTH",
"229.844 593.578 OFFCURVE",
"61.936 430.532 OFFCURVE",
"61.936 224.156 CURVE SMOOTH",
"61.936 76.642 OFFCURVE",
"169.514 -9 OFFCURVE",
"340.624 -9 CURVE SMOOTH"
);
},
{
closed = 1;
nodes = (
"236.036 44.44 OFFCURVE",
"163.522 114.642 OFFCURVE",
"163.522 236.156 CURVE SMOOTH",
"163.522 389.624 OFFCURVE",
"257.302 542.248 OFFCURVE",
"440.798 542.248 CURVE SMOOTH",
"483.468 542.248 OFFCURVE",
"512.936 538.67 OFFCURVE",
"544.606 530.514 CURVE",
"540.45 504.312 OFFCURVE",
"536.496 476.588 OFFCURVE",
"517.45 385.514 CURVE SMOOTH",
"477.248 196.238 LINE SMOOTH",
"457.624 106.586 OFFCURVE",
"449.982 77.44 OFFCURVE",
"443.982 56.174 CURVE",
"419.092 49.44 OFFCURVE",
"386.78 44.44 OFFCURVE",
"360.844 44.44 CURVE SMOOTH"
);
},
{
closed = 1;
nodes = (
"775.064 204.89 LINE",
"815.908 399.266 LINE",
"773.578 399.266 LINE",
"746.266 329.532 LINE",
"737.266 327.954 OFFCURVE",
"721.312 326.954 OFFCURVE",
"699.624 326.954 CURVE SMOOTH",
"629.394 326.954 LINE SMOOTH",
"611.44 326.954 OFFCURVE",
"591.44 327.376 OFFCURVE",
"570.238 328.376 CURVE",
"558.394 274.624 LINE",
"580.33 275.624 OFFCURVE",
"601.752 277.046 OFFCURVE",
"619.284 277.046 CURVE SMOOTH",
"690.514 277.046 LINE SMOOTH",
"712.202 277.046 OFFCURVE",
"727.734 275.046 OFFCURVE",
"735.156 273.468 CURVE",
"732.734 204.89 LINE"
);
}
);
width = 917.798;
}
);
leftKerningGroup = O;
note = OE;
rightKerningGroup = E;
unicode = 0152;
},
{
glyphname = P;
lastChange = "2018-11-30 12:57:44 +0000";
layers = (
{
anchors = (
{
name = bottom;
position = "{105, 0}";
},
{
name = top;
position = "{319, 587}";
}
);
background = {
anchors = (
{
name = bottom;
position = "{104.571, 0}";
},
{
name = top;
position = "{318.679, 587}";
}
);
paths = (
{
closed = 1;
nodes = (
"217.964 0 LINE",
"226.107 34.429 LINE",
"148.107 45.036 LINE",
"148.179 64.107 OFFCURVE",
"154.25 97.536 OFFCURVE",
"172.714 185.857 CURVE",
"216.893 392.893 LINE",
"229.571 451.214 OFFCURVE",
"250.821 536.964 OFFCURVE",
"251.893 548.571 CURVE",
"303.179 548.571 LINE SMOOTH",
"382.429 548.571 OFFCURVE",
"424.75 510.714 OFFCURVE",
"424.75 440.393 CURVE SMOOTH",
"424.75 341 OFFCURVE",
"363.107 283.536 OFFCURVE",
"256.286 283.536 CURVE SMOOTH",
"232.286 283.536 OFFCURVE",
"214.607 285.607 OFFCURVE",
"180.571 295.071 CURVE",
"169.964 254.357 LINE",
"203.071 244.964 OFFCURVE",
"225.286 241.964 OFFCURVE",
"250.357 241.964 CURVE SMOOTH",
"385.786 241.964 OFFCURVE",
"488.75 331.643 OFFCURVE",
"488.75 451.179 CURVE SMOOTH",
"488.75 535.071 OFFCURVE",
"421.679 587 OFFCURVE",
"310.893 587 CURVE SMOOTH",
"134.107 587 LINE",
"125.964 554.571 LINE",
"184.036 541.5 LINE",
"183.5 522.5 OFFCURVE",
"175.036 473.643 OFFCURVE",
"157.5 392.893 CURVE",
"112.321 185.857 LINE",
"96.929 109.893 OFFCURVE",
"87.25 70.643 OFFCURVE",
"80.179 45.036 CURVE",
"22.036 32.429 LINE",
"16.964 0 LINE"
);
}
);
};
color = -1;
layerId = "D9A1C40A-2361-406B-8D3E-8FA7FBCB82BD";
paths = (
{
closed = 1;
nodes = (
"215 0 LINE",
"224 34 LINE",
"146 45 LINE",
"148 64 OFFCURVE",
"154 98 OFFCURVE",
"173 186 CURVE",
"216 393 LINE",
"229 451 OFFCURVE",
"250 537 OFFCURVE",
"252 549 CURVE",
"303 549 LINE SMOOTH",
"382 549 OFFCURVE",
"425 511 OFFCURVE",
"425 440 CURVE SMOOTH",
"425 341 OFFCURVE",
"364 284 OFFCURVE",
"256 284 CURVE SMOOTH",
"232 284 OFFCURVE",
"215 286 OFFCURVE",
"181 295 CURVE",
"170 254 LINE",
"203 245 OFFCURVE",
"225 242 OFFCURVE",
"253 242 CURVE SMOOTH",
"386 242 OFFCURVE",
"489 332 OFFCURVE",
"489 451 CURVE SMOOTH",
"489 535 OFFCURVE",
"422 587 OFFCURVE",
"311 587 CURVE SMOOTH",
"136 587 LINE",
"127 555 LINE",
"184 542 LINE",
"184 523 OFFCURVE",
"174 474 OFFCURVE",
"157 393 CURVE",
"112 186 LINE",
"97 110 OFFCURVE",
"87 71 OFFCURVE",
"80 45 CURVE",
"22 32 LINE",
"17 0 LINE"
);
}
);
width = 490;
},
{
anchors = (
{
name = bottom;
position = "{141, 0}";
},
{
name = top;
position = "{390, 587}";
}
);
background = {
anchors = (
{
name = bottom;
position = "{142, 0}";
},
{
name = top;
position = "{391, 587}";
}
);
paths = (
{
closed = 1;
nodes = (
"306 0 LINE",
"323 59 LINE",
"245 76 LINE",
"249 99 OFFCURVE",
"259 157 OFFCURVE",
"275 235 CURVE",
"301 358 LINE",
"324 463 OFFCURVE",
"331 506 OFFCURVE",
"336 524 CURVE",
"347 524 LINE SMOOTH",
"412 524 OFFCURVE",
"444 494 OFFCURVE",
"444 434 CURVE SMOOTH",
"444 341 OFFCURVE",
"403 286 OFFCURVE",
"335 286 CURVE SMOOTH",
"311 286 OFFCURVE",
"283 292 OFFCURVE",
"275 299 CURVE",
"258 218 LINE",
"269 214 OFFCURVE",
"304 211 OFFCURVE",
"333 211 CURVE SMOOTH",
"493 211 OFFCURVE",
"622 311 OFFCURVE",
"622 433 CURVE SMOOTH",
"622 539 OFFCURVE",
"551 587 OFFCURVE",
"395 587 CURVE SMOOTH",
"117 587 LINE",
"100 530 LINE",
"163 513 LINE",
"160 494 OFFCURVE",
"154 453 OFFCURVE",
"134 358 CURVE",
"107 235 LINE",
"98 189 OFFCURVE",
"78 107 OFFCURVE",
"67 76 CURVE",
"1 57 LINE",
"-9 0 LINE"
);
}
);
};
color = -1;
layerId = "24976ABE-9171-461B-B338-52EF76BD92C7";
paths = (
{
closed = 1;
nodes = (
"306 0 LINE",
"321 59 LINE",
"244 76 LINE",
"247 99 OFFCURVE",
"258 157 OFFCURVE",
"274 235 CURVE",
"300 358 LINE",
"323 463 OFFCURVE",
"330 506 OFFCURVE",
"335 524 CURVE",
"346 524 LINE SMOOTH",
"409 524 OFFCURVE",
"443 494 OFFCURVE",
"443 432 CURVE SMOOTH",
"443 350 OFFCURVE",
"402 286 OFFCURVE",
"334 286 CURVE SMOOTH",
"306 286 OFFCURVE",
"282 292 OFFCURVE",
"274 296 CURVE",
"257 221 LINE",
"268 217 OFFCURVE",
"303 211 OFFCURVE",
"332 211 CURVE SMOOTH",
"480 211 OFFCURVE",
"621 300 OFFCURVE",
"621 435 CURVE SMOOTH",
"621 539 OFFCURVE",
"540 587 OFFCURVE",
"394 587 CURVE SMOOTH",
"116 587 LINE",
"101 530 LINE",
"162 513 LINE",
"159 494 OFFCURVE",
"153 453 OFFCURVE",
"133 358 CURVE",
"106 235 LINE",
"97 189 OFFCURVE",
"77 107 OFFCURVE",
"66 76 CURVE",
"1 57 LINE",
"-8 0 LINE"
);
}
);
width = 613;
},
{
anchors = (
{
name = bottom;
position = "{111.752, 0}";
},
{
name = top;
position = "{332.926, 587}";
}
);
color = -1;
layerId = "8B4ACB86-485E-4983-BA11-7AC678D884D1";
paths = (
{
closed = 1;
nodes = (
"233.568 0 LINE",
"244.256 39.486 LINE",
"166.256 51.33 LINE",
"168.256 71.174 OFFCURVE",
"175.1 110.238 OFFCURVE",
"193.678 196.128 CURVE",
"233.302 385.826 LINE",
"247.99 453.532 OFFCURVE",
"266.036 530.67 OFFCURVE",
"268.88 543.514 CURVE",
"311.44 543.514 LINE SMOOTH",
"387.486 543.514 OFFCURVE",
"427.954 507.624 OFFCURVE",
"427.954 438.734 CURVE SMOOTH",
"427.954 341 OFFCURVE",
"370.752 284.422 OFFCURVE",
"271.614 284.422 CURVE SMOOTH",
"247.614 284.422 OFFCURVE",
"228.082 287.266 OFFCURVE",
"199.568 295.844 CURVE",
"187.724 246.404 LINE",
"217.348 238.67 OFFCURVE",
"240.614 235.67 OFFCURVE",
"268.192 235.67 CURVE SMOOTH",
"407.522 235.67 OFFCURVE",
"516.008 327.358 OFFCURVE",
"516.008 447.202 CURVE SMOOTH",
"516.008 535.844 OFFCURVE",
"448.164 587 OFFCURVE",
"327.88 587 CURVE SMOOTH",
"131.358 587 LINE",
"120.67 549.514 LINE",
"178.514 535.67 LINE",
"177.67 516.67 OFFCURVE",
"168.936 469.358 OFFCURVE",
"151.092 385.826 CURVE",
"109.89 196.128 LINE",
"96.156 126.88 OFFCURVE",
"84.046 78.596 OFFCURVE",
"76.202 51.33 CURVE",
"16.514 37.486 LINE",
"10.67 0 LINE"
);
}
);
width = 513.632;
}
);
leftKerningGroup = H;
note = P;
rightKerningGroup = P;
unicode = 0050;
},
{
glyphname = Thorn;
lastChange = "2018-11-30 12:57:44 +0000";
layers = (
{
background = {
paths = (
{
closed = 1;
nodes = (
"212.036 0 LINE",
"220.179 34.429 LINE",
"142.179 45.036 LINE",
"146.107 70.607 OFFCURVE",
"151.107 97.75 OFFCURVE",
"156.643 121.429 CURVE SMOOTH",
"224.036 438.393 LINE",
"278.714 438.393 LINE SMOOTH",
"360.893 438.393 OFFCURVE",
"400.286 400.536 OFFCURVE",
"400.286 330.214 CURVE SMOOTH",
"400.286 230.821 OFFCURVE",
"338.643 171.357 OFFCURVE",
"231.821 171.357 CURVE SMOOTH",
"207.821 171.357 OFFCURVE",
"190.143 173.429 OFFCURVE",
"156.107 182.893 CURVE",
"145.5 144.179 LINE",
"178.607 134.786 OFFCURVE",
"200.821 131.786 OFFCURVE",
"225.893 131.786 CURVE SMOOTH",
"361.321 131.786 OFFCURVE",
"464.286 221.464 OFFCURVE",
"464.286 341 CURVE SMOOTH",
"464.286 424.893 OFFCURVE",
"397.214 476.821 OFFCURVE",
"286.429 476.821 CURVE SMOOTH",
"225.464 476.821 LINE",
"228.036 449.607 LINE",
"237.5 495.25 LINE SMOOTH",
"242.964 519.036 OFFCURVE",
"246.964 534.036 OFFCURVE",
"248.964 541.5 CURVE",
"311.107 554.571 LINE",
"316.179 587 LINE",
"133.571 587 LINE",
"125.429 554.571 LINE",
"182.036 541.5 LINE",
"181.5 524.893 OFFCURVE",
"175.429 486.607 OFFCURVE",
"155.5 392.893 CURVE SMOOTH",
"111.321 185.857 LINE SMOOTH",
"91.393 94.143 OFFCURVE",
"85.179 64.5 OFFCURVE",
"79.179 45.036 CURVE",
"21.036 32.429 LINE",
"15.964 0 LINE"
);
}
);
};
color = -1;
layerId = "D9A1C40A-2361-406B-8D3E-8FA7FBCB82BD";
paths = (
{
closed = 1;
nodes = (
"211 0 LINE",
"220 34 LINE",
"142 45 LINE",
"146 71 OFFCURVE",
"152 98 OFFCURVE",
"157 121 CURVE SMOOTH",
"224 438 LINE",
"279 438 LINE SMOOTH",
"361 438 OFFCURVE",
"400 401 OFFCURVE",
"400 330 CURVE SMOOTH",
"400 231 OFFCURVE",
"339 171 OFFCURVE",
"232 171 CURVE SMOOTH",
"208 171 OFFCURVE",
"190 173 OFFCURVE",
"156 183 CURVE",
"146 144 LINE",
"179 135 OFFCURVE",
"201 132 OFFCURVE",
"228 132 CURVE SMOOTH",
"361 132 OFFCURVE",
"464 221 OFFCURVE",
"464 341 CURVE SMOOTH",
"464 425 OFFCURVE",
"397 477 OFFCURVE",
"286 477 CURVE SMOOTH",
"225 477 LINE",
"226 450 LINE",
"236 495 LINE SMOOTH",
"241 519 OFFCURVE",
"245 534 OFFCURVE",
"247 542 CURVE",
"310 555 LINE",
"315 587 LINE",
"134 587 LINE",
"125 555 LINE",
"182 542 LINE",
"182 525 OFFCURVE",
"175 487 OFFCURVE",
"155 393 CURVE SMOOTH",
"111 186 LINE SMOOTH",
"91 94 OFFCURVE",
"85 65 OFFCURVE",
"79 45 CURVE",
"21 32 LINE",
"16 0 LINE"
);
}
);
width = 489;
},
{
background = {
paths = (
{
closed = 1;
nodes = (
"305 0 LINE",
"321 59 LINE",
"243 76 LINE",
"243 77 OFFCURVE",
"248 112 OFFCURVE",
"255 146 CURVE SMOOTH",
"317 432 LINE",
"324 432 LINE SMOOTH",
"388 432 OFFCURVE",
"422 403 OFFCURVE",
"422 342 CURVE SMOOTH",
"422 249 OFFCURVE",
"380 192 OFFCURVE",
"312 192 CURVE SMOOTH",
"288 192 OFFCURVE",
"260 198 OFFCURVE",
"253 205 CURVE",
"236 126 LINE",
"247 123 OFFCURVE",
"281 120 OFFCURVE",
"310 120 CURVE SMOOTH",
"470 120 OFFCURVE",
"600 219 OFFCURVE",
"600 341 CURVE SMOOTH",
"600 447 OFFCURVE",
"528 495 OFFCURVE",
"373 495 CURVE SMOOTH",
"285 495 LINE",
"321 456 LINE",
"328 481 LINE SMOOTH",
"331 493 OFFCURVE",
"335 508 OFFCURVE",
"337 513 CURVE",
"408 530 LINE",
"417 587 LINE",
"114 587 LINE",
"98 530 LINE",
"161 513 LINE",
"158 490 OFFCURVE",
"148 436 OFFCURVE",
"132 358 CURVE SMOOTH",
"106 235 LINE SMOOTH",
"90 159 OFFCURVE",
"72 93 OFFCURVE",
"66 76 CURVE",
"0 57 LINE",
"-10 0 LINE"
);
}
);
};
color = -1;
layerId = "24976ABE-9171-461B-B338-52EF76BD92C7";
paths = (
{
closed = 1;
nodes = (
"304 0 LINE",
"319 59 LINE",
"242 76 LINE",
"243 82 OFFCURVE",
"246 112 OFFCURVE",
"253 146 CURVE SMOOTH",
"316 432 LINE",
"323 432 LINE SMOOTH",
"387 432 OFFCURVE",
"421 403 OFFCURVE",
"421 338 CURVE SMOOTH",
"421 249 OFFCURVE",
"377 192 OFFCURVE",
"308 192 CURVE SMOOTH",
"285 192 OFFCURVE",
"259 198 OFFCURVE",
"252 202 CURVE",
"235 126 LINE",
"246 123 OFFCURVE",
"280 120 OFFCURVE",
"309 120 CURVE SMOOTH",
"491 120 OFFCURVE",
"599 230 OFFCURVE",
"599 340 CURVE SMOOTH",
"599 447 OFFCURVE",
"519 495 OFFCURVE",
"372 495 CURVE SMOOTH",
"284 495 LINE",
"320 456 LINE",
"325 481 LINE SMOOTH",
"327 493 OFFCURVE",
"332 508 OFFCURVE",
"334 513 CURVE",
"403 530 LINE",
"412 587 LINE",
"114 587 LINE",
"99 530 LINE",
"160 513 LINE",
"157 490 OFFCURVE",
"147 436 OFFCURVE",
"131 358 CURVE SMOOTH",
"105 235 LINE SMOOTH",
"89 159 OFFCURVE",
"71 93 OFFCURVE",
"65 76 CURVE",
"0 57 LINE",
"-9 0 LINE"
);
}
);
width = 612;
},
{
color = -1;
layerId = "8B4ACB86-485E-4983-BA11-7AC678D884D1";
paths = (
{
closed = 1;
nodes = (
"229.568 0 LINE",
"240.256 39.486 LINE",
"162.256 51.33 LINE",
"165.412 72.266 OFFCURVE",
"170.99 100.954 OFFCURVE",
"176.412 126.486 CURVE SMOOTH",
"242.568 436.734 LINE",
"287.44 436.734 LINE SMOOTH",
"365.642 436.734 OFFCURVE",
"403.376 401.422 OFFCURVE",
"403.376 332.532 CURVE SMOOTH",
"403.376 234.798 OFFCURVE",
"346.596 175.642 OFFCURVE",
"247.614 175.642 CURVE SMOOTH",
"223.614 175.642 OFFCURVE",
"203.926 178.486 OFFCURVE",
"175.412 187.642 CURVE",
"163.724 140.202 LINE",
"192.082 132.468 OFFCURVE",
"217.458 129.468 OFFCURVE",
"244.036 129.468 CURVE SMOOTH",
"382.944 129.468 OFFCURVE",
"491.43 220.578 OFFCURVE",
"491.43 341 CURVE SMOOTH",
"491.43 429.642 OFFCURVE",
"423.586 480.798 OFFCURVE",
"303.302 480.798 CURVE SMOOTH",
"236.816 480.798 LINE",
"245.412 451.266 LINE",
"254.568 492.046 LINE SMOOTH",
"259.568 513.514 OFFCURVE",
"263.568 528.514 OFFCURVE",
"265.568 535.67 CURVE",
"329.412 549.514 LINE",
"335.256 587 LINE",
"129.358 587 LINE",
"118.67 549.514 LINE",
"176.514 535.67 LINE",
"175.67 517.826 OFFCURVE",
"168.248 476.028 OFFCURVE",
"149.092 385.826 CURVE SMOOTH",
"108.89 196.128 LINE SMOOTH",
"89.734 107.926 OFFCURVE",
"81.202 70.908 OFFCURVE",
"75.202 51.33 CURVE",
"15.514 37.486 LINE",
"9.67 0 LINE"
);
}
);
width = 512.632;
}
);
leftKerningGroup = H;
note = Thorn;
rightKerningGroup = Thorn;
unicode = 00DE;
},
{
glyphname = Q;
lastChange = "2018-11-30 12:57:44 +0000";
layers = (
{
anchors = (
{
name = top;
position = "{417, 587}";
}
);
background = {
anchors = (
{
name = top;
position = "{1417, 587}";
}
);
paths = (
{
closed = 1;
nodes = (
"1575 -129 OFFCURVE",
"1619 -119 OFFCURVE",
"1652 -101 CURVE",
"1646 -67 LINE",
"1627 -73 OFFCURVE",
"1606 -76 OFFCURVE",
"1585 -76 CURVE SMOOTH",
"1542 -76 OFFCURVE",
"1498 -64 OFFCURVE",
"1450 -38 CURVE SMOOTH",
"1408 -15 OFFCURVE",
"1378 -3 OFFCURVE",
"1302 1 CURVE",
"1307 -7 LINE",
"1486 -6 OFFCURVE",
"1645 166 OFFCURVE",
"1645 361 CURVE SMOOTH",
"1645 505 OFFCURVE",
"1558 596 OFFCURVE",
"1414 596 CURVE SMOOTH",
"1226 596 OFFCURVE",
"1066 424 OFFCURVE",
"1066 228 CURVE SMOOTH",
"1066 110 OFFCURVE",
"1127 29 OFFCURVE",
"1221 1 CURVE SMOOTH",
"1275 -15 OFFCURVE",
"1353 -73 OFFCURVE",
"1395 -91 CURVE SMOOTH",
"1475 -125 OFFCURVE",
"1503 -129 OFFCURVE",
"1532 -129 CURVE SMOOTH"
);
},
{
closed = 1;
nodes = (
"1213 35 OFFCURVE",
"1143 115 OFFCURVE",
"1143 237 CURVE SMOOTH",
"1143 415 OFFCURVE",
"1255 554 OFFCURVE",
"1399 554 CURVE SMOOTH",
"1508 554 OFFCURVE",
"1572 475 OFFCURVE",
"1572 353 CURVE SMOOTH",
"1572 174 OFFCURVE",
"1463 35 OFFCURVE",
"1322 35 CURVE SMOOTH"
);
},
{
closed = 1;
nodes = (
"485 -9 OFFCURVE",
"645 166 OFFCURVE",
"645 361 CURVE SMOOTH",
"645 505 OFFCURVE",
"558 596 OFFCURVE",
"414 596 CURVE SMOOTH",
"224 596 OFFCURVE",
"66 424 OFFCURVE",
"66 228 CURVE SMOOTH",
"66 84 OFFCURVE",
"157 -9 OFFCURVE",
"305 -9 CURVE SMOOTH"
);
},
{
closed = 1;
nodes = (
"213 35 OFFCURVE",
"143 115 OFFCURVE",
"143 237 CURVE SMOOTH",
"143 415 OFFCURVE",
"255 554 OFFCURVE",
"399 554 CURVE SMOOTH",
"508 554 OFFCURVE",
"572 475 OFFCURVE",
"572 353 CURVE SMOOTH",
"572 174 OFFCURVE",
"463 35 OFFCURVE",
"322 35 CURVE SMOOTH"
);
}
);
};
color = -1;
layerId = "D9A1C40A-2361-406B-8D3E-8FA7FBCB82BD";
paths = (
{
closed = 1;
nodes = (
"575 -129 OFFCURVE",
"619 -119 OFFCURVE",
"652 -101 CURVE",
"646 -67 LINE",
"627 -73 OFFCURVE",
"606 -76 OFFCURVE",
"585 -76 CURVE SMOOTH",
"542 -76 OFFCURVE",
"498 -64 OFFCURVE",
"450 -38 CURVE SMOOTH",
"415 -19 OFFCURVE",
"368 -4 OFFCURVE",
"302 -1 CURVE",
"307 -7 LINE",
"486 -6 OFFCURVE",
"645 166 OFFCURVE",
"645 361 CURVE SMOOTH",
"645 505 OFFCURVE",
"558 596 OFFCURVE",
"414 596 CURVE SMOOTH",
"224 596 OFFCURVE",
"66 424 OFFCURVE",
"66 228 CURVE SMOOTH",
"66 110 OFFCURVE",
"127 30 OFFCURVE",
"221 2 CURVE SMOOTH",
"275 -14 OFFCURVE",
"353 -73 OFFCURVE",
"395 -91 CURVE SMOOTH",
"475 -125 OFFCURVE",
"503 -129 OFFCURVE",
"532 -129 CURVE SMOOTH"
);
},
{
closed = 1;
nodes = (
"213 35 OFFCURVE",
"143 115 OFFCURVE",
"143 237 CURVE SMOOTH",
"143 415 OFFCURVE",
"255 554 OFFCURVE",
"399 554 CURVE SMOOTH",
"508 554 OFFCURVE",
"572 475 OFFCURVE",
"572 353 CURVE SMOOTH",
"572 174 OFFCURVE",
"463 35 OFFCURVE",
"322 35 CURVE SMOOTH"
);
}
);
width = 678;
},
{
anchors = (
{
name = top;
position = "{440, 587}";
}
);
background = {
anchors = (
{
name = top;
position = "{441, 587}";
}
);
paths = (
{
closed = 1;
nodes = (
"616 -155 OFFCURVE",
"670 -136 OFFCURVE",
"705 -111 CURVE",
"688 -49 LINE",
"661 -56 OFFCURVE",
"637 -58 OFFCURVE",
"622 -58 CURVE SMOOTH",
"583 -58 OFFCURVE",
"565 -50 OFFCURVE",
"515 -17 CURVE SMOOTH",
"488 2 OFFCURVE",
"447 9 OFFCURVE",
"365 11 CURVE",
"352 -3 LINE",
"531 -2 OFFCURVE",
"708 168 OFFCURVE",
"708 365 CURVE SMOOTH",
"708 505 OFFCURVE",
"604 596 OFFCURVE",
"437 596 CURVE SMOOTH",
"226 596 OFFCURVE",
"51 434 OFFCURVE",
"51 234 CURVE SMOOTH",
"51 149 OFFCURVE",
"88 72 OFFCURVE",
"180 26 CURVE SMOOTH",
"228 2 OFFCURVE",
"233 -8 OFFCURVE",
"281 -56 CURVE SMOOTH",
"326 -104 OFFCURVE",
"407 -155 OFFCURVE",
"552 -155 CURVE SMOOTH"
);
},
{
closed = 1;
nodes = (
"286 80 OFFCURVE",
"245 137 OFFCURVE",
"245 233 CURVE SMOOTH",
"245 393 OFFCURVE",
"324 519 OFFCURVE",
"417 519 CURVE SMOOTH",
"479 519 OFFCURVE",
"517 469 OFFCURVE",
"517 367 CURVE SMOOTH",
"517 205 OFFCURVE",
"444 80 OFFCURVE",
"350 80 CURVE SMOOTH"
);
}
);
};
color = -1;
layerId = "24976ABE-9171-461B-B338-52EF76BD92C7";
paths = (
{
closed = 1;
nodes = (
"615 -155 OFFCURVE",
"669 -136 OFFCURVE",
"704 -111 CURVE",
"687 -49 LINE",
"660 -56 OFFCURVE",
"636 -58 OFFCURVE",
"621 -58 CURVE SMOOTH",
"582 -58 OFFCURVE",
"564 -50 OFFCURVE",
"528 -26 CURVE SMOOTH",
"491 -1 OFFCURVE",
"442 6 OFFCURVE",
"360 6 CURVE",
"351 -3 LINE",
"530 -2 OFFCURVE",
"707 168 OFFCURVE",
"707 365 CURVE SMOOTH",
"707 505 OFFCURVE",
"603 596 OFFCURVE",
"436 596 CURVE SMOOTH",
"225 596 OFFCURVE",
"50 434 OFFCURVE",
"50 234 CURVE SMOOTH",
"50 149 OFFCURVE",
"87 72 OFFCURVE",
"179 26 CURVE SMOOTH",
"219 6 OFFCURVE",
"233 -6 OFFCURVE",
"280 -56 CURVE SMOOTH",
"326 -104 OFFCURVE",
"406 -155 OFFCURVE",
"551 -155 CURVE SMOOTH"
);
},
{
closed = 1;
nodes = (
"285 80 OFFCURVE",
"244 137 OFFCURVE",
"244 233 CURVE SMOOTH",
"244 393 OFFCURVE",
"323 519 OFFCURVE",
"416 519 CURVE SMOOTH",
"478 519 OFFCURVE",
"516 469 OFFCURVE",
"516 367 CURVE SMOOTH",
"516 205 OFFCURVE",
"443 80 OFFCURVE",
"349 80 CURVE SMOOTH"
);
}
);
width = 726;
},
{
anchors = (
{
name = top;
position = "{421.22, 587}";
}
);
color = -1;
layerId = "8B4ACB86-485E-4983-BA11-7AC678D884D1";
paths = (
{
closed = 1;
nodes = (
"582.596 -134.486 OFFCURVE",
"628.706 -122.376 OFFCURVE",
"662.55 -103.11 CURVE",
"654.018 -63.202 LINE",
"633.33 -69.624 OFFCURVE",
"611.908 -72.202 OFFCURVE",
"591.752 -72.202 CURVE SMOOTH",
"549.596 -72.202 OFFCURVE",
"512.348 -61.046 OFFCURVE",
"465.614 -35.468 CURVE SMOOTH",
"427.66 -14.78 OFFCURVE",
"384.88 -1.89 OFFCURVE",
"314.66 -0.156 CURVE",
"315.862 -6.156 LINE",
"494.862 -5.156 OFFCURVE",
"658.082 166.422 OFFCURVE",
"658.082 361.844 CURVE SMOOTH",
"658.082 505 OFFCURVE",
"566.862 596 OFFCURVE",
"417.798 596 CURVE SMOOTH",
"224 596 OFFCURVE",
"61.78 426.11 OFFCURVE",
"61.78 229.266 CURVE SMOOTH",
"61.78 118.44 OFFCURVE",
"118.138 38.862 OFFCURVE",
"211.294 7.064 CURVE SMOOTH",
"264.45 -11.046 OFFCURVE",
"326.836 -59.074 OFFCURVE",
"370.102 -83.826 CURVE SMOOTH",
"441.24 -122.468 OFFCURVE",
"481.9 -134.486 OFFCURVE",
"535.376 -134.486 CURVE SMOOTH"
);
},
{
closed = 1;
nodes = (
"227.348 44.284 OFFCURVE",
"163.678 119.642 OFFCURVE",
"163.678 236.156 CURVE SMOOTH",
"163.678 410.358 OFFCURVE",
"268.504 546.826 OFFCURVE",
"401.954 546.826 CURVE SMOOTH",
"501.248 546.826 OFFCURVE",
"559.34 473.734 OFFCURVE",
"559.34 355.954 CURVE SMOOTH",
"559.34 180.33 OFFCURVE",
"457.936 44.284 OFFCURVE",
"327.064 44.284 CURVE SMOOTH"
);
}
);
width = 686.44;
}
);
leftKerningGroup = O;
leftMetricsKey = O;
widthMetricsKey = O;
note = Q;
rightKerningGroup = O;
unicode = 0051;
},
{
glyphname = R;
lastChange = "2018-11-30 12:57:44 +0000";
layers = (
{
anchors = (
{
name = bottom;
position = "{257, 0}";
},
{
name = top;
position = "{333, 587}";
}
);
background = {
anchors = (
{
name = bottom;
position = "{256.786, 0}";
},
{
name = top;
position = "{332.679, 587}";
}
);
paths = (
{
closed = 1;
nodes = (
"199.75 0 LINE",
"207.893 32.429 LINE",
"147.107 45.036 LINE",
"147.179 60.714 OFFCURVE",
"148 81.607 OFFCURVE",
"170.714 185.857 CURVE SMOOTH",
"214.893 392.893 LINE SMOOTH",
"245.536 534.786 OFFCURVE",
"248.429 542.5 OFFCURVE",
"249.964 548.571 CURVE",
"309.179 548.571 LINE SMOOTH",
"382.429 548.571 OFFCURVE",
"421.679 522.571 OFFCURVE",
"421.679 455.607 CURVE SMOOTH",
"421.679 376.071 OFFCURVE",
"355.036 315.679 OFFCURVE",
"264.321 315.679 CURVE SMOOTH",
"186.179 315.679 LINE",
"179.036 276.714 LINE",
"256.821 276.714 LINE SMOOTH",
"372.286 276.714 OFFCURVE",
"489.536 366.714 OFFCURVE",
"489.536 466.393 CURVE SMOOTH",
"489.536 549.464 OFFCURVE",
"435.714 587 OFFCURVE",
"325.464 587 CURVE SMOOTH",
"134.571 587 LINE",
"126.429 554.571 LINE",
"183.036 541.5 LINE",
"182.5 524.893 OFFCURVE",
"176.429 486.607 OFFCURVE",
"156.5 392.893 CURVE SMOOTH",
"112.321 185.857 LINE SMOOTH",
"92.393 94.143 OFFCURVE",
"86.179 64.5 OFFCURVE",
"80.179 45.036 CURVE",
"18.036 32.429 LINE",
"12.964 0 LINE"
);
},
{
closed = 1;
nodes = (
"475.964 -9.071 OFFCURVE",
"487.714 -8.536 OFFCURVE",
"496.071 -6 CURVE",
"504.143 24.893 LINE",
"453.071 29.107 OFFCURVE",
"425.536 54.714 OFFCURVE",
"381.893 151.25 CURVE SMOOTH",
"312.536 307 LINE",
"253.25 294.179 LINE",
"299.286 179.179 LINE SMOOTH",
"358.036 27.429 OFFCURVE",
"388.821 -9.071 OFFCURVE",
"456.429 -9.071 CURVE SMOOTH"
);
}
);
};
color = -1;
layerId = "D9A1C40A-2361-406B-8D3E-8FA7FBCB82BD";
paths = (
{
closed = 1;
nodes = (
"193 0 LINE",
"202 32 LINE",
"145 45 LINE",
"147 61 OFFCURVE",
"150 82 OFFCURVE",
"172 186 CURVE SMOOTH",
"216 393 LINE SMOOTH",
"246 535 OFFCURVE",
"248 543 OFFCURVE",
"250 549 CURVE",
"309 549 LINE SMOOTH",
"382 549 OFFCURVE",
"422 523 OFFCURVE",
"422 458 CURVE SMOOTH",
"422 376 OFFCURVE",
"365 316 OFFCURVE",
"264 316 CURVE SMOOTH",
"186 316 LINE",
"179 277 LINE",
"257 277 LINE SMOOTH",
"382 277 OFFCURVE",
"490 367 OFFCURVE",
"490 466 CURVE SMOOTH",
"490 549 OFFCURVE",
"436 587 OFFCURVE",
"325 587 CURVE SMOOTH",
"135 587 LINE",
"126 555 LINE",
"183 542 LINE",
"183 525 OFFCURVE",
"176 487 OFFCURVE",
"156 393 CURVE SMOOTH",
"112 186 LINE SMOOTH",
"92 94 OFFCURVE",
"86 65 OFFCURVE",
"80 45 CURVE",
"17 32 LINE",
"12 0 LINE"
);
},
{
closed = 1;
nodes = (
"478 -9 OFFCURVE",
"488 -8 OFFCURVE",
"496 -6 CURVE",
"504 25 LINE",
"453 28 OFFCURVE",
"423 54 OFFCURVE",
"380 151 CURVE SMOOTH",
"311 307 LINE",
"253 294 LINE",
"313 144 LINE SMOOTH",
"360 27 OFFCURVE",
"395 -9 OFFCURVE",
"467 -9 CURVE SMOOTH"
);
}
);
width = 541;
},
{
anchors = (
{
name = bottom;
position = "{307, 0}";
},
{
name = top;
position = "{405, 587}";
}
);
background = {
anchors = (
{
name = bottom;
position = "{308, 0}";
},
{
name = top;
position = "{406, 587}";
}
);
paths = (
{
closed = 1;
nodes = (
"277 0 LINE",
"293 57 LINE",
"245 76 LINE",
"249 101 OFFCURVE",
"268 202 OFFCURVE",
"274 235 CURVE SMOOTH",
"300 358 LINE SMOOTH",
"311 409 OFFCURVE",
"336 514 OFFCURVE",
"339 524 CURVE",
"354 524 LINE SMOOTH",
"413 524 OFFCURVE",
"438 498 OFFCURVE",
"438 462 CURVE SMOOTH",
"438 380 OFFCURVE",
"392 326 OFFCURVE",
"317 326 CURVE SMOOTH",
"288 326 LINE",
"273 260 LINE",
"338 260 LINE SMOOTH",
"509 260 OFFCURVE",
"612 350 OFFCURVE",
"612 460 CURVE SMOOTH",
"612 547 OFFCURVE",
"539 587 OFFCURVE",
"386 587 CURVE SMOOTH",
"116 587 LINE",
"100 530 LINE",
"163 513 LINE",
"160 490 OFFCURVE",
"150 436 OFFCURVE",
"134 358 CURVE SMOOTH",
"108 235 LINE SMOOTH",
"92 159 OFFCURVE",
"74 93 OFFCURVE",
"68 76 CURVE",
"-2 57 LINE",
"-12 0 LINE"
);
},
{
closed = 1;
nodes = (
"565 -13 OFFCURVE",
"591 -11 OFFCURVE",
"620 -6 CURVE",
"632 47 LINE",
"577 64 OFFCURVE",
"548 95 OFFCURVE",
"524 137 CURVE SMOOTH",
"435 307 LINE",
"302 276 LINE",
"322 161 LINE SMOOTH",
"338 52 OFFCURVE",
"413 -13 OFFCURVE",
"544 -13 CURVE SMOOTH"
);
}
);
};
color = -1;
layerId = "24976ABE-9171-461B-B338-52EF76BD92C7";
paths = (
{
closed = 1;
nodes = (
"279 0 LINE",
"294 57 LINE",
"244 76 LINE",
"248 101 OFFCURVE",
"266 202 OFFCURVE",
"273 235 CURVE SMOOTH",
"299 358 LINE SMOOTH",
"310 409 OFFCURVE",
"335 514 OFFCURVE",
"338 524 CURVE",
"353 524 LINE SMOOTH",
"410 524 OFFCURVE",
"437 498 OFFCURVE",
"437 454 CURVE SMOOTH",
"437 380 OFFCURVE",
"391 326 OFFCURVE",
"308 326 CURVE SMOOTH",
"267 326 LINE",
"252 260 LINE",
"327 260 LINE SMOOTH",
"508 260 OFFCURVE",
"611 350 OFFCURVE",
"611 460 CURVE SMOOTH",
"611 547 OFFCURVE",
"538 587 OFFCURVE",
"385 587 CURVE SMOOTH",
"117 587 LINE",
"102 530 LINE",
"162 513 LINE",
"159 490 OFFCURVE",
"149 436 OFFCURVE",
"133 358 CURVE SMOOTH",
"107 235 LINE SMOOTH",
"91 159 OFFCURVE",
"73 93 OFFCURVE",
"67 76 CURVE",
"-2 57 LINE",
"-11 0 LINE"
);
},
{
closed = 1;
nodes = (
"564 -13 OFFCURVE",
"590 -11 OFFCURVE",
"619 -6 CURVE",
"631 47 LINE",
"576 64 OFFCURVE",
"546 94 OFFCURVE",
"523 137 CURVE SMOOTH",
"432 307 LINE",
"299 276 LINE",
"321 161 LINE SMOOTH",
"342 52 OFFCURVE",
"392 -13 OFFCURVE",
"533 -13 CURVE SMOOTH"
);
}
);
width = 668;
},
{
anchors = (
{
name = bottom;
position = "{266.284, 0}";
},
{
name = top;
position = "{346.926, 587}";
}
);
color = -1;
layerId = "8B4ACB86-485E-4983-BA11-7AC678D884D1";
paths = (
{
closed = 1;
nodes = (
"210.724 0 LINE",
"221.412 37.486 LINE",
"165.256 51.33 LINE",
"167.256 69.44 OFFCURVE",
"173.632 107.32 OFFCURVE",
"192.256 196.128 CURVE SMOOTH",
"232.458 385.826 LINE SMOOTH",
"258.238 508.414 OFFCURVE",
"265.302 536.67 OFFCURVE",
"267.724 543.514 CURVE",
"317.44 543.514 LINE SMOOTH",
"387.486 543.514 OFFCURVE",
"424.11 517.514 OFFCURVE",
"424.11 458.422 CURVE SMOOTH",
"424.11 376.844 OFFCURVE",
"367.11 318.11 OFFCURVE",
"274.128 318.11 CURVE SMOOTH",
"206.256 318.11 LINE",
"197.568 273.624 LINE",
"272.614 273.624 LINE SMOOTH",
"405.21 273.624 OFFCURVE",
"514.476 363.624 OFFCURVE",
"514.476 464.734 CURVE SMOOTH",
"514.476 548.578 OFFCURVE",
"456.678 587 OFFCURVE",
"336.816 587 CURVE SMOOTH",
"130.358 587 LINE",
"119.67 549.514 LINE",
"177.514 535.67 LINE",
"176.67 517.826 OFFCURVE",
"169.248 476.028 OFFCURVE",
"150.092 385.826 CURVE SMOOTH",
"109.89 196.128 LINE SMOOTH",
"90.734 107.926 OFFCURVE",
"82.202 70.908 OFFCURVE",
"76.202 51.33 CURVE",
"11.936 37.486 LINE",
"6.092 0 LINE"
);
},
{
closed = 1;
nodes = (
"494.88 -9.844 OFFCURVE",
"508.678 -8.844 OFFCURVE",
"520.898 -6 CURVE",
"529.742 29.642 LINE",
"477.898 35.596 OFFCURVE",
"448.742 62.862 OFFCURVE",
"409.54 148.046 CURVE SMOOTH",
"336.32 307 LINE",
"262.284 290.202 LINE",
"310.468 154.972 LINE SMOOTH",
"352.826 32.486 OFFCURVE",
"396.266 -9.844 OFFCURVE",
"479.66 -9.844 CURVE SMOOTH"
);
}
);
width = 566.742;
}
);
leftKerningGroup = H;
note = R;
rightKerningGroup = R;
unicode = 0052;
},
{
glyphname = S;
lastChange = "2018-11-30 12:57:44 +0000";
layers = (
{
anchors = (
{
name = bottom;
position = "{190, 0}";
},
{
name = top;
position = "{314, 587}";
}
);
background = {
anchors = (
{
name = bottom;
position = "{190.107, 0}";
},
{
name = top;
position = "{313.643, 587}";
}
);
paths = (
{
closed = 1;
nodes = (
"289.357 -9 OFFCURVE",
"407.714 58.357 OFFCURVE",
"407.714 168.107 CURVE SMOOTH",
"407.714 316.786 OFFCURVE",
"171.036 320.357 OFFCURVE",
"171.036 437.607 CURVE SMOOTH",
"171.036 516.571 OFFCURVE",
"239.607 555.964 OFFCURVE",
"318.321 555.964 CURVE SMOOTH",
"356.036 555.964 OFFCURVE",
"381.5 550.964 OFFCURVE",
"400.036 539.036 CURVE",
"411.429 455.679 LINE",
"444.214 457.679 LINE",
"463.821 572.464 LINE",
"428.357 588.464 OFFCURVE",
"387.321 596.536 OFFCURVE",
"330.393 596.536 CURVE SMOOTH",
"216.536 596.536 OFFCURVE",
"104.643 533.571 OFFCURVE",
"104.643 424.143 CURVE SMOOTH",
"104.643 265.071 OFFCURVE",
"341.714 270.036 OFFCURVE",
"341.714 149.786 CURVE SMOOTH",
"341.714 71.964 OFFCURVE",
"269.036 33.571 OFFCURVE",
"198.5 33.571 CURVE SMOOTH",
"156.643 33.571 OFFCURVE",
"121.036 44.571 OFFCURVE",
"89.786 64.964 CURVE",
"86.179 149.393 LINE",
"49.464 147.393 LINE",
"27.25 27.214 LINE",
"70.857 6.536 OFFCURVE",
"134.536 -9 OFFCURVE",
"184.964 -9 CURVE SMOOTH"
);
}
);
};
color = -1;
layerId = "D9A1C40A-2361-406B-8D3E-8FA7FBCB82BD";
paths = (
{
closed = 1;
nodes = (
"292 -9 OFFCURVE",
"408 58 OFFCURVE",
"408 168 CURVE SMOOTH",
"408 317 OFFCURVE",
"171 320 OFFCURVE",
"171 441 CURVE SMOOTH",
"171 517 OFFCURVE",
"238 556 OFFCURVE",
"318 556 CURVE SMOOTH",
"356 556 OFFCURVE",
"382 551 OFFCURVE",
"400 539 CURVE",
"411 456 LINE",
"444 458 LINE",
"464 572 LINE",
"428 588 OFFCURVE",
"385 597 OFFCURVE",
"330 597 CURVE SMOOTH",
"213 597 OFFCURVE",
"105 534 OFFCURVE",
"105 422 CURVE SMOOTH",
"105 265 OFFCURVE",
"342 270 OFFCURVE",
"342 148 CURVE SMOOTH",
"342 72 OFFCURVE",
"272 34 OFFCURVE",
"199 34 CURVE SMOOTH",
"157 34 OFFCURVE",
"121 45 OFFCURVE",
"90 65 CURVE",
"86 149 LINE",
"49 147 LINE",
"27 27 LINE",
"71 7 OFFCURVE",
"135 -9 OFFCURVE",
"188 -9 CURVE SMOOTH"
);
}
);
width = 466;
},
{
anchors = (
{
name = bottom;
position = "{230, 0}";
},
{
name = top;
position = "{355, 587}";
}
);
background = {
anchors = (
{
name = bottom;
position = "{231, 0}";
},
{
name = top;
position = "{356, 587}";
}
);
paths = (
{
closed = 1;
nodes = (
"373 -9 OFFCURVE",
"511 79 OFFCURVE",
"511 203 CURVE SMOOTH",
"511 362 OFFCURVE",
"265 341 OFFCURVE",
"265 444 CURVE SMOOTH",
"265 492 OFFCURVE",
"309 525 OFFCURVE",
"371 525 CURVE SMOOTH",
"393 525 OFFCURVE",
"416 520 OFFCURVE",
"437 513 CURVE",
"442 409 LINE",
"519 411 LINE",
"545 570 LINE",
"512 586 OFFCURVE",
"440 599 OFFCURVE",
"387 599 CURVE SMOOTH",
"225 599 OFFCURVE",
"90 509 OFFCURVE",
"90 375 CURVE SMOOTH",
"90 212 OFFCURVE",
"331 244 OFFCURVE",
"331 138 CURVE SMOOTH",
"331 98 OFFCURVE",
"306 66 OFFCURVE",
"233 66 CURVE SMOOTH",
"199 66 OFFCURVE",
"158 77 OFFCURVE",
"141 91 CURVE",
"131 200 LINE",
"53 198 LINE",
"19 39 LINE",
"69 9 OFFCURVE",
"143 -9 OFFCURVE",
"217 -9 CURVE SMOOTH"
);
}
);
};
color = -1;
layerId = "24976ABE-9171-461B-B338-52EF76BD92C7";
paths = (
{
closed = 1;
nodes = (
"372 -9 OFFCURVE",
"510 79 OFFCURVE",
"510 203 CURVE SMOOTH",
"510 362 OFFCURVE",
"264 341 OFFCURVE",
"264 442 CURVE SMOOTH",
"264 492 OFFCURVE",
"308 525 OFFCURVE",
"370 525 CURVE SMOOTH",
"392 525 OFFCURVE",
"415 521 OFFCURVE",
"436 513 CURVE",
"441 409 LINE",
"518 411 LINE",
"544 570 LINE",
"511 586 OFFCURVE",
"439 599 OFFCURVE",
"386 599 CURVE SMOOTH",
"224 599 OFFCURVE",
"89 509 OFFCURVE",
"89 375 CURVE SMOOTH",
"89 212 OFFCURVE",
"330 244 OFFCURVE",
"330 140 CURVE SMOOTH",
"330 98 OFFCURVE",
"301 66 OFFCURVE",
"232 66 CURVE SMOOTH",
"198 66 OFFCURVE",
"158 77 OFFCURVE",
"140 91 CURVE",
"130 200 LINE",
"52 198 LINE",
"18 39 LINE",
"61 13 OFFCURVE",
"142 -9 OFFCURVE",
"216 -9 CURVE SMOOTH"
);
}
);
width = 542;
},
{
anchors = (
{
name = bottom;
position = "{196.752, 0}";
},
{
name = top;
position = "{321.174, 587}";
}
);
color = -1;
layerId = "8B4ACB86-485E-4983-BA11-7AC678D884D1";
paths = (
{
closed = 1;
nodes = (
"310.146 -9 OFFCURVE",
"428.256 64.33 OFFCURVE",
"428.256 175.174 CURVE SMOOTH",
"428.256 326.284 OFFCURVE",
"189.146 324.642 OFFCURVE",
"189.146 441 CURVE SMOOTH",
"189.146 511.514 OFFCURVE",
"251.504 549.67 OFFCURVE",
"327.706 549.67 CURVE SMOOTH",
"361.908 549.67 OFFCURVE",
"387.486 544.67 OFFCURVE",
"405.908 533.514 CURVE",
"416.064 445.872 LINE",
"458.348 447.872 LINE",
"479.192 571.578 LINE",
"444.036 587.578 OFFCURVE",
"395.55 597.422 OFFCURVE",
"340.55 597.422 CURVE SMOOTH",
"219.752 597.422 OFFCURVE",
"99.936 531.89 OFFCURVE",
"99.936 412.716 CURVE SMOOTH",
"99.936 254.028 OFFCURVE",
"338.202 264.514 OFFCURVE",
"338.202 146.312 CURVE SMOOTH",
"338.202 77.486 OFFCURVE",
"276.642 40.752 OFFCURVE",
"204.486 40.752 CURVE SMOOTH",
"164.174 40.752 OFFCURVE",
"126.908 51.752 OFFCURVE",
"98.862 70.486 CURVE",
"94.018 159.972 LINE",
"48.156 157.972 LINE",
"23.624 29.532 LINE",
"68.89 7.422 OFFCURVE",
"135 -9 OFFCURVE",
"191.798 -9 CURVE SMOOTH"
);
}
);
width = 479.082;
}
);
leftKerningGroup = S;
note = S;
rightKerningGroup = S;
unicode = 0053;
},
{
glyphname = Germandbls;
lastChange = "2018-11-30 12:57:44 +0000";
layers = (
{
background = {
paths = (
{
closed = 1;
nodes = (
"183 0 LINE",
"192 32 LINE",
"135 45 LINE",
"135 61 OFFCURVE",
"136 81 OFFCURVE",
"158 186 CURVE SMOOTH",
"199 379 LINE SMOOTH",
"228 517 OFFCURVE",
"299 556 OFFCURVE",
"376 556 CURVE SMOOTH",
"443 556 OFFCURVE",
"488 525 OFFCURVE",
"493 469 CURVE",
"543 469 LINE",
"527 551 OFFCURVE",
"474 597 OFFCURVE",
"378 597 CURVE SMOOTH",
"260 597 OFFCURVE",
"168 520 OFFCURVE",
"137 368 CURVE SMOOTH",
"99 186 LINE SMOOTH",
"80 94 OFFCURVE",
"73 65 OFFCURVE",
"67 45 CURVE",
"4 32 LINE",
"-1 0 LINE"
);
},
{
closed = 1;
nodes = (
"504 -9 OFFCURVE",
"608 48 OFFCURVE",
"608 148 CURVE SMOOTH",
"608 270 OFFCURVE",
"397 262 OFFCURVE",
"397 361 CURVE SMOOTH",
"397 414 OFFCURVE",
"444 451 OFFCURVE",
"522 451 CURVE SMOOTH",
"553 451 OFFCURVE",
"582 445 OFFCURVE",
"592 440 CURVE",
"596 372 LINE",
"630 373 LINE",
"647 474 LINE",
"621 483 OFFCURVE",
"569 489 OFFCURVE",
"528 489 CURVE SMOOTH",
"400 489 OFFCURVE",
"331 418 OFFCURVE",
"331 340 CURVE SMOOTH",
"331 210 OFFCURVE",
"541 231 OFFCURVE",
"541 121 CURVE SMOOTH",
"541 61 OFFCURVE",
"482 33 OFFCURVE",
"433 33 CURVE SMOOTH",
"385 33 OFFCURVE",
"347 45 OFFCURVE",
"322 67 CURVE",
"328 152 LINE",
"289 149 LINE",
"261 27 LINE",
"294 7 OFFCURVE",
"347 -9 OFFCURVE",
"410 -9 CURVE SMOOTH"
);
}
);
};
color = -1;
layerId = "D9A1C40A-2361-406B-8D3E-8FA7FBCB82BD";
paths = (
{
closed = 1;
nodes = (
"181 0 LINE",
"190 32 LINE",
"133 45 LINE",
"135 61 OFFCURVE",
"136 81 OFFCURVE",
"158 186 CURVE SMOOTH",
"198 379 LINE SMOOTH",
"227 517 OFFCURVE",
"294 556 OFFCURVE",
"376 556 CURVE SMOOTH",
"443 556 OFFCURVE",
"488 525 OFFCURVE",
"493 469 CURVE",
"543 469 LINE",
"527 551 OFFCURVE",
"473 597 OFFCURVE",
"378 597 CURVE SMOOTH",
"260 597 OFFCURVE",
"170 528 OFFCURVE",
"137 368 CURVE SMOOTH",
"99 186 LINE SMOOTH",
"80 94 OFFCURVE",
"73 65 OFFCURVE",
"67 45 CURVE",
"4 32 LINE",
"-1 0 LINE"
);
},
{
closed = 1;
nodes = (
"504 -9 OFFCURVE",
"608 48 OFFCURVE",
"608 148 CURVE SMOOTH",
"608 270 OFFCURVE",
"397 262 OFFCURVE",
"397 361 CURVE SMOOTH",
"397 414 OFFCURVE",
"444 451 OFFCURVE",
"522 451 CURVE SMOOTH",
"553 451 OFFCURVE",
"582 445 OFFCURVE",
"592 440 CURVE",
"596 372 LINE",
"630 373 LINE",
"647 474 LINE",
"621 483 OFFCURVE",
"569 489 OFFCURVE",
"528 489 CURVE SMOOTH",
"400 489 OFFCURVE",
"331 418 OFFCURVE",
"331 340 CURVE SMOOTH",
"331 210 OFFCURVE",
"541 231 OFFCURVE",
"541 121 CURVE SMOOTH",
"541 61 OFFCURVE",
"482 33 OFFCURVE",
"433 33 CURVE SMOOTH",
"385 33 OFFCURVE",
"347 45 OFFCURVE",
"322 67 CURVE",
"328 152 LINE",
"289 149 LINE",
"261 27 LINE",
"294 7 OFFCURVE",
"347 -9 OFFCURVE",
"410 -9 CURVE SMOOTH"
);
}
);
width = 672;
},
{
background = {
paths = (
{
closed = 1;
nodes = (
"280 0 LINE",
"296 57 LINE",
"235 76 LINE",
"239 101 OFFCURVE",
"251 169 OFFCURVE",
"265 235 CURVE SMOOTH",
"293 373 LINE SMOOTH",
"312 470 OFFCURVE",
"371 524 OFFCURVE",
"454 524 CURVE SMOOTH",
"515 524 OFFCURVE",
"548 504 OFFCURVE",
"559 465 CURVE",
"658 465 LINE",
"642 551 OFFCURVE",
"574 599 OFFCURVE",
"456 599 CURVE SMOOTH",
"289 599 OFFCURVE",
"152 499 OFFCURVE",
"117 332 CURVE SMOOTH",
"97 235 LINE SMOOTH",
"81 159 OFFCURVE",
"63 93 OFFCURVE",
"57 76 CURVE",
"-13 57 LINE",
"-22 0 LINE"
);
},
{
closed = 1;
nodes = (
"635 -9 OFFCURVE",
"725 83 OFFCURVE",
"725 176 CURVE SMOOTH",
"725 313 OFFCURVE",
"524 297 OFFCURVE",
"524 373 CURVE SMOOTH",
"524 410 OFFCURVE",
"565 429 OFFCURVE",
"606 429 CURVE SMOOTH",
"621 429 OFFCURVE",
"633 428 OFFCURVE",
"642 426 CURVE",
"651 329 LINE",
"724 334 LINE",
"744 476 LINE",
"714 489 OFFCURVE",
"649 497 OFFCURVE",
"614 497 CURVE SMOOTH",
"504 497 OFFCURVE",
"371 432 OFFCURVE",
"371 309 CURVE SMOOTH",
"371 167 OFFCURVE",
"568 196 OFFCURVE",
"568 117 CURVE SMOOTH",
"568 86 OFFCURVE",
"546 61 OFFCURVE",
"484 61 CURVE SMOOTH",
"467 61 OFFCURVE",
"447 63 OFFCURVE",
"422 71 CURVE",
"408 158 LINE",
"335 153 LINE",
"308 21 LINE",
"354 3 OFFCURVE",
"423 -9 OFFCURVE",
"486 -9 CURVE SMOOTH"
);
}
);
};
color = -1;
layerId = "24976ABE-9171-461B-B338-52EF76BD92C7";
paths = (
{
closed = 1;
nodes = (
"272 0 LINE",
"287 57 LINE",
"234 76 LINE",
"238 101 OFFCURVE",
"251 169 OFFCURVE",
"264 235 CURVE SMOOTH",
"291 373 LINE SMOOTH",
"310 470 OFFCURVE",
"370 524 OFFCURVE",
"453 524 CURVE SMOOTH",
"514 524 OFFCURVE",
"545 504 OFFCURVE",
"558 465 CURVE",
"657 465 LINE",
"639 544 OFFCURVE",
"567 599 OFFCURVE",
"453 599 CURVE SMOOTH",
"287 599 OFFCURVE",
"150 499 OFFCURVE",
"116 332 CURVE SMOOTH",
"96 235 LINE SMOOTH",
"80 159 OFFCURVE",
"62 93 OFFCURVE",
"56 76 CURVE",
"-12 57 LINE",
"-21 0 LINE"
);
},
{
closed = 1;
nodes = (
"634 -9 OFFCURVE",
"724 83 OFFCURVE",
"724 176 CURVE SMOOTH",
"724 313 OFFCURVE",
"523 297 OFFCURVE",
"523 373 CURVE SMOOTH",
"523 406 OFFCURVE",
"555 429 OFFCURVE",
"605 429 CURVE SMOOTH",
"620 429 OFFCURVE",
"632 429 OFFCURVE",
"641 427 CURVE",
"650 329 LINE",
"723 334 LINE",
"743 476 LINE",
"713 489 OFFCURVE",
"648 497 OFFCURVE",
"613 497 CURVE SMOOTH",
"503 497 OFFCURVE",
"370 432 OFFCURVE",
"370 309 CURVE SMOOTH",
"370 170 OFFCURVE",
"567 193 OFFCURVE",
"567 117 CURVE SMOOTH",
"567 86 OFFCURVE",
"545 61 OFFCURVE",
"483 61 CURVE SMOOTH",
"466 61 OFFCURVE",
"446 63 OFFCURVE",
"421 71 CURVE",
"407 158 LINE",
"334 153 LINE",
"307 21 LINE",
"353 3 OFFCURVE",
"422 -9 OFFCURVE",
"485 -9 CURVE SMOOTH"
);
}
);
width = 764;
},
{
color = -1;
layerId = "8B4ACB86-485E-4983-BA11-7AC678D884D1";
paths = (
{
closed = 1;
nodes = (
"200.834 0 LINE",
"211.522 37.486 LINE",
"153.678 51.33 LINE",
"155.678 69.44 OFFCURVE",
"159.632 99.568 OFFCURVE",
"179.522 196.128 CURVE SMOOTH",
"216.99 377.734 LINE SMOOTH",
"243.88 506.872 OFFCURVE",
"310.458 549.248 OFFCURVE",
"391.192 549.248 CURVE SMOOTH",
"457.348 549.248 OFFCURVE",
"499.394 520.358 OFFCURVE",
"506.082 468.156 CURVE",
"566.21 468.156 LINE",
"549.366 548.046 OFFCURVE",
"493.256 597.422 OFFCURVE",
"393.192 597.422 CURVE SMOOTH",
"265.064 597.422 OFFCURVE",
"164.936 519.982 OFFCURVE",
"131.936 360.404 CURVE SMOOTH",
"97.734 196.128 LINE SMOOTH",
"79.156 107.926 OFFCURVE",
"69.624 70.908 OFFCURVE",
"63.624 51.33 CURVE",
"-0.22 37.486 LINE",
"-6.064 0 LINE"
);
},
{
closed = 1;
nodes = (
"530.586 -9 OFFCURVE",
"631.632 55.174 OFFCURVE",
"631.632 153.908 CURVE SMOOTH",
"631.632 279.284 OFFCURVE",
"422.742 269.174 OFFCURVE",
"422.742 363.532 CURVE SMOOTH",
"422.742 413.156 OFFCURVE",
"468.476 446.358 OFFCURVE",
"538.88 446.358 CURVE SMOOTH",
"566.082 446.358 OFFCURVE",
"591.706 441.624 OFFCURVE",
"601.284 437.046 CURVE",
"606.55 362.716 LINE",
"648.99 364.56 LINE",
"666.412 474.422 LINE",
"639.568 484.266 OFFCURVE",
"585.036 490.688 OFFCURVE",
"544.88 490.688 CURVE SMOOTH",
"420.678 490.688 OFFCURVE",
"338.596 420.954 OFFCURVE",
"338.596 333.67 CURVE SMOOTH",
"338.596 200.716 OFFCURVE",
"545.642 223.826 OFFCURVE",
"545.642 120.156 CURVE SMOOTH",
"545.642 66.486 OFFCURVE",
"494.238 38.908 OFFCURVE",
"442.706 38.908 CURVE SMOOTH",
"401.036 38.908 OFFCURVE",
"366.834 48.798 OFFCURVE",
"341.834 67.844 CURVE",
"344.036 153.266 LINE",
"297.44 149.844 LINE",
"269.862 25.734 LINE",
"305.394 6.156 OFFCURVE",
"362.192 -9 OFFCURVE",
"425.192 -9 CURVE SMOOTH"
);
}
);
width = 689.302;
}
);
leftKerningGroup = Germandbls;
rightKerningGroup = S;
unicode = 1E9E;
},
{
glyphname = Schwa;
lastChange = "2018-11-30 12:57:44 +0000";
layers = (
{
anchors = (
{
name = bottom;
position = "{279, 0}";
},
{
name = top;
position = "{403, 587}";
}
);
background = {
anchors = (
{
name = bottom;
position = "{279, 0}";
},
{
name = top;
position = "{403, 587}";
}
);
paths = (
{
closed = 1;
nodes = (
"276 596 OFFCURVE",
"175 548 OFFCURVE",
"114 452 CURVE",
"142 428 LINE",
"207 496 OFFCURVE",
"273 520 OFFCURVE",
"349 520 CURVE SMOOTH",
"488 520 OFFCURVE",
"555 420 OFFCURVE",
"523 258 CURVE SMOOTH",
"521 244 LINE SMOOTH",
"493 103 OFFCURVE",
"404 35 OFFCURVE",
"300 35 CURVE SMOOTH",
"164 35 OFFCURVE",
"132 124 OFFCURVE",
"152 241 CURVE",
"132 232 LINE",
"529 232 LINE",
"540 282 LINE",
"74 282 LINE",
"35 100 OFFCURVE",
"118 -8 OFFCURVE",
"283 -9 CURVE SMOOTH",
"473 -10 OFFCURVE",
"610 167 OFFCURVE",
"610 358 CURVE SMOOTH",
"610 506 OFFCURVE",
"512 596 OFFCURVE",
"368 596 CURVE SMOOTH"
);
}
);
};
color = -1;
layerId = "D9A1C40A-2361-406B-8D3E-8FA7FBCB82BD";
paths = (
{
closed = 1;
nodes = (
"276 596 OFFCURVE",
"175 548 OFFCURVE",
"114 452 CURVE",
"142 428 LINE",
"207 496 OFFCURVE",
"273 523 OFFCURVE",
"349 523 CURVE SMOOTH",
"488 523 OFFCURVE",
"551 419 OFFCURVE",
"525 267 CURVE SMOOTH",
"521 244 LINE SMOOTH",
"497 108 OFFCURVE",
"404 35 OFFCURVE",
"300 35 CURVE SMOOTH",
"174 35 OFFCURVE",
"132 124 OFFCURVE",
"152 241 CURVE",
"132 232 LINE",
"529 232 LINE",
"540 282 LINE",
"74 282 LINE",
"35 100 OFFCURVE",
"128 -8 OFFCURVE",
"283 -9 CURVE SMOOTH",
"473 -10 OFFCURVE",
"610 167 OFFCURVE",
"610 358 CURVE SMOOTH",
"610 506 OFFCURVE",
"512 596 OFFCURVE",
"368 596 CURVE SMOOTH"
);
}
);
width = 645;
},
{
anchors = (
{
name = bottom;
position = "{290, 0}";
},
{
name = top;
position = "{414, 587}";
}
);
background = {
anchors = (
{
name = bottom;
position = "{291, 0}";
},
{
name = top;
position = "{415, 587}";
}
);
paths = (
{
closed = 1;
nodes = (
"270 596 OFFCURVE",
"148 526 OFFCURVE",
"87 417 CURVE",
"111 385 LINE",
"164 429 OFFCURVE",
"224 461 OFFCURVE",
"300 461 CURVE SMOOTH",
"417 461 OFFCURVE",
"481 388 OFFCURVE",
"452 254 CURVE SMOOTH",
"443 213 LINE SMOOTH",
"426 139 OFFCURVE",
"383 75 OFFCURVE",
"321 75 CURVE SMOOTH",
"247 75 OFFCURVE",
"205 138 OFFCURVE",
"245 255 CURVE",
"214 210 LINE",
"551 210 LINE",
"566 288 LINE",
"56 288 LINE",
"17 102 OFFCURVE",
"110 -10 OFFCURVE",
"305 -9 CURVE SMOOTH",
"471 -8 OFFCURVE",
"654 169 OFFCURVE",
"654 358 CURVE SMOOTH",
"654 502 OFFCURVE",
"552 596 OFFCURVE",
"403 596 CURVE SMOOTH"
);
}
);
};
color = -1;
layerId = "24976ABE-9171-461B-B338-52EF76BD92C7";
paths = (
{
closed = 1;
nodes = (
"269 596 OFFCURVE",
"147 526 OFFCURVE",
"86 417 CURVE",
"110 385 LINE",
"172 437 OFFCURVE",
"233 461 OFFCURVE",
"305 461 CURVE SMOOTH",
"416 461 OFFCURVE",
"480 388 OFFCURVE",
"451 254 CURVE SMOOTH",
"442 213 LINE SMOOTH",
"422 124 OFFCURVE",
"375 75 OFFCURVE",
"315 75 CURVE SMOOTH",
"246 75 OFFCURVE",
"204 138 OFFCURVE",
"244 255 CURVE",
"213 210 LINE",
"550 210 LINE",
"565 288 LINE",
"55 288 LINE",
"17 105 OFFCURVE",
"109 -10 OFFCURVE",
"300 -9 CURVE SMOOTH",
"486 -8 OFFCURVE",
"653 183 OFFCURVE",
"653 358 CURVE SMOOTH",
"653 502 OFFCURVE",
"551 596 OFFCURVE",
"402 596 CURVE SMOOTH"
);
}
);
width = 672;
},
{
anchors = (
{
name = bottom;
position = "{280.266, 0}";
},
{
name = top;
position = "{404.266, 587}";
}
);
color = -1;
layerId = "8B4ACB86-485E-4983-BA11-7AC678D884D1";
paths = (
{
closed = 1;
nodes = (
"273.468 596 OFFCURVE",
"168.248 543.358 OFFCURVE",
"107.248 444.826 CURVE",
"134.404 418.716 LINE",
"196.45 482.074 OFFCURVE",
"261.606 509.496 OFFCURVE",
"337.606 509.496 CURVE SMOOTH",
"471.964 509.496 OFFCURVE",
"537.074 412.248 OFFCURVE",
"508.12 262.358 CURVE SMOOTH",
"503.276 237.67 LINE SMOOTH",
"479.276 113.486 OFFCURVE",
"398.092 43.44 OFFCURVE",
"302.954 43.44 CURVE SMOOTH",
"186.238 43.44 OFFCURVE",
"146.348 126.954 OFFCURVE",
"170.146 243.954 CURVE",
"148.036 227.358 LINE",
"532.376 227.358 LINE",
"544.22 283.266 LINE",
"68.936 283.266 LINE",
"29.936 100.422 OFFCURVE",
"120.826 -8.422 OFFCURVE",
"286.376 -9 CURVE SMOOTH",
"471.312 -9.578 OFFCURVE",
"618.018 167.422 OFFCURVE",
"618.018 358 CURVE SMOOTH",
"618.018 505.156 OFFCURVE",
"519.174 596 OFFCURVE",
"373.908 596 CURVE SMOOTH"
);
}
);
width = 648.798;
}
);
leftKerningGroup = O;
rightKerningGroup = O;
unicode = 018F;
},
